<svg width="30" height="30" viewBox="0 0 30 30" fill="none" xmlns="http://www.w3.org/2000/svg">
<g style="mix-blend-mode:multiply">
<circle cx="14.7158" cy="14.9352" r="13.5" fill="#7F6019"/>
<path d="M5.61633 23.1986C7.67329 25.581 10.9773 27.1838 14.1659 27.3738C14.5553 27.3997 14.5291 27.4661 14.6398 27.4789C14.666 27.4817 14.6913 27.4836 14.7158 27.4846C14.9765 27.4956 15.1436 27.423 15.3432 27.4222C16.4132 27.4133 17.4129 27.2635 18.4328 26.9933C19.4785 26.6912 19.058 27.0358 19.4385 26.9543C20.1776 26.765 19.4789 26.757 19.728 26.591C20.5204 26.2796 21.2961 25.8932 22.0234 25.4322C21.8632 25.5701 21.6997 25.7038 21.5295 25.8342C21.8534 25.6437 22.3244 25.369 21.8328 25.7767C21.961 25.716 22.0828 25.6606 22.2125 25.5926C22.1945 25.4967 22.7309 25.0937 22.7422 25.0101C22.7566 24.9308 22.467 25.1682 22.4651 25.162C22.4561 25.1108 23.6912 24.1961 23.7628 24.104C23.987 23.9122 23.8821 24.1723 24.0552 23.9888C24.3484 23.6658 23.9849 23.7322 24.6014 23.4928C24.6825 23.253 24.7341 23.2714 24.9272 23.0452C24.9524 23.0154 24.8901 23.0046 24.8997 22.9904C25.1454 22.6149 25.0132 22.9469 25.0188 22.949C25.1203 22.9763 25.3802 22.5637 25.4447 22.4846C26.2714 21.4984 26.7949 20.6771 27.2932 19.395C27.4062 19.1191 27.6293 18.2391 27.7009 17.9624C27.7784 17.6889 27.8041 17.8506 27.8646 17.7104C27.7687 17.4455 27.8029 17.2266 27.971 16.71C27.8921 16.4994 27.9763 16.5347 27.9933 16.1536C28.0077 15.8343 27.9142 15.284 28.0174 14.9352C28.0028 15.3365 28.0554 15.2939 28.0616 15.7472C28.0863 15.9011 27.8763 17.4549 27.986 17.3584C28.0554 17.3084 28.0851 16.7798 28.0956 16.7617C28.1705 16.6525 28.2076 16.9532 28.1381 17.2095C28.1367 17.143 28.1369 17.0632 28.1352 16.992C27.966 17.5582 28.3216 17.2141 27.9884 17.6041C27.9468 17.6516 27.919 17.6242 27.8677 17.7057C27.8775 17.7268 27.9338 17.6254 27.9203 17.7201C27.9067 17.8171 27.8019 17.9819 27.8493 18.021C27.9193 18.0801 27.976 17.678 27.985 17.6489C27.9846 17.6485 27.9842 17.6481 27.9838 17.6477C28.0785 17.3927 27.9716 17.9447 27.9704 17.9724C27.9799 18.1536 28.0456 18.0465 28.0236 18.3122C28.0117 18.4646 27.8959 18.8319 27.8612 18.9687C27.828 19.1056 27.9284 18.9075 27.9089 19.0006C27.8895 19.0941 27.8258 19.1986 27.8002 19.3076C27.7893 19.3543 27.8312 19.3659 27.8253 19.3884C27.7614 19.6295 27.7289 19.4456 27.6594 19.6587C27.6156 19.797 27.5158 20.2857 27.6621 19.9792C27.612 20.135 27.5589 20.2845 27.5019 20.4374C27.5541 20.3478 27.6023 20.2535 27.6534 20.166C27.5208 20.4419 27.5336 20.6 27.4603 20.779C27.3862 20.958 27.2298 21.0738 27.1753 21.2834C27.0591 21.7341 27.5175 20.7051 27.5773 20.5789C27.605 20.5313 27.5873 20.753 27.5756 20.7835C27.5256 20.9191 27.4077 21.0508 27.3616 21.1516C27.1967 21.5117 27.1436 21.7593 26.9682 22.0976C26.3786 23.2524 25.3985 24.5593 24.5052 25.4205C24.1749 25.7443 23.9083 25.8597 23.7526 25.994C23.3844 26.3052 23.3809 26.3997 23.0432 26.6557C22.5399 27.0386 21.7472 27.4485 21.2757 27.6763C20.9508 27.838 20.6841 28.0453 20.5981 28.0871C19.4148 28.6812 17.846 29.12 16.7582 29.2752C16.2463 29.3534 15.9929 29.2819 15.8883 29.2954C15.4344 29.345 15.559 29.4127 15.1884 29.4246C14.9874 29.4291 14.9484 29.3541 14.9217 29.3521C14.8316 29.345 14.7692 29.3543 14.7158 29.3691C14.6291 29.3932 14.5669 29.4321 14.4521 29.4337C13.3866 29.4466 12.3669 29.2649 11.3436 29.0241C11.2693 29.0064 11.2867 28.9637 11.2382 28.9548C11.03 28.9163 11.1074 29.0095 10.8897 28.9596C10.4378 28.8543 9.98495 28.7019 9.52677 28.5235C9.48132 28.5057 9.48223 28.4426 9.37864 28.403C9.27502 28.3631 9.17502 28.3854 9.014 28.3159C8.59292 28.1333 8.21427 27.8806 7.79083 27.6517C7.72066 27.6138 7.59736 27.6312 7.49235 27.5719C7.16181 27.3879 6.72357 27.0359 6.46001 26.8517C5.58577 26.2487 4.80573 25.6407 4.10523 24.917C3.94074 24.7465 3.85414 24.5434 3.77431 24.4509C3.5947 24.2412 3.67948 24.4432 3.4961 24.2302C2.00613 22.4817 0.957736 20.3499 0.429196 18.0779C0.215986 17.1887 -0.00110722 16.0804 -0.000154495 15.1886C-0.000540137 15.0837 0.00845206 15.0029 0.0211391 14.9352C0.0536573 14.7636 0.108383 14.6774 0.11225 14.4914C0.125666 14.0315 -0.00671756 13.9344 0.0192101 13.442C0.0428107 13.0443 0.237404 12.6178 0.300288 12.2155C0.364475 11.8147 0.270162 11.5976 0.367341 11.1328C0.448337 10.7487 0.6634 10.244 0.796087 9.84204C1.99048 6.13749 4.74921 2.93303 8.38891 1.32306C9.66175 0.751848 11.1628 0.256917 12.6076 0.197825C12.7425 0.193189 12.5603 0.37143 12.9802 0.282514C13.2071 0.236959 13.5126 0.0651144 14.051 0.0273857C14.2703 0.012547 14.492 0.00393271 14.7158 0.00158286C17.7373 -0.0488082 20.8085 1.15245 23.2806 2.82793C27.2691 5.24806 31.1292 10.4639 29.1772 14.8233C29.0851 15.0257 28.6222 14.9136 28.4902 14.8013C28.5826 14.6936 28.6914 14.5919 28.7928 14.4749C28.211 14.3519 28.3698 14.3777 28.3835 13.8554C28.3883 13.5359 28.1665 13.8093 28.0824 13.6495C27.9822 13.4355 27.5548 12.4983 27.9521 12.6239C27.8772 12.5731 27.8057 12.5276 27.7322 12.4801C27.5443 11.7792 27.2696 11.1276 26.9367 10.5106C26.8788 10.4042 26.7684 10.4392 26.7082 10.3313C26.5449 10.0432 26.5142 9.77367 26.3612 9.47014C26.2774 9.30619 26.148 9.34063 26.0488 9.12372C25.948 8.90859 26.1064 8.82521 25.7794 8.63395C25.6922 8.92606 25.3649 8.03227 25.1549 7.76591C25.1261 7.72471 24.7394 7.51583 24.6313 7.33759C24.5239 7.15736 24.4212 6.82495 24.1526 6.62449C24.0268 6.53085 23.8531 6.56466 23.7371 6.45116C23.6555 6.37157 23.6575 6.17762 23.5583 6.06906C23.4596 5.95954 23.1563 5.82075 23.113 5.78383C22.9557 5.64777 23.1876 5.73414 23.0857 5.63381C22.5935 5.14994 21.9775 4.61567 21.3667 4.30245C21.292 4.26379 21.332 4.41823 21.3205 4.41528C20.7741 4.22942 21.1022 4.26951 21.0205 4.10568C20.9463 3.93719 19.9449 3.47654 19.8596 3.6538C19.9266 3.42696 19.6325 3.48919 19.5732 3.47143C19.3406 3.40019 19.4595 3.23225 19.2156 3.2016C19.1266 3.19086 19.2352 3.37926 19.1502 3.34141C18.941 3.24871 18.8199 2.97227 18.5284 2.85478C18.458 2.82664 18.407 2.911 18.2815 2.86913C18.1576 2.82428 17.6465 2.56781 17.8449 2.82927C17.5599 2.58824 17.469 2.6568 17.0873 2.57349C16.9907 2.55295 16.8905 2.37761 16.6707 2.38979C16.5967 2.39423 16.5775 2.53968 16.4715 2.52486C16.2299 2.49221 16.0143 2.31253 15.7 2.27984C15.3804 2.24675 15.051 2.25935 14.7158 2.27772C14.4308 2.29337 14.1513 2.313 13.867 2.31244C13.6998 2.31279 13.7303 2.16553 13.4858 2.18335C13.45 2.18597 13.1686 2.33794 13.0018 2.34836C12.9018 2.35094 12.366 2.34736 12.2601 2.36328C12.0851 2.38526 12.082 2.52631 11.9827 2.51961C11.6953 2.50352 11.8636 2.25905 11.6035 2.60273C11.4598 2.48077 11.272 2.54621 11.1599 2.38401C11.1043 2.61176 10.9063 2.46375 10.711 2.59761C10.5155 2.73186 10.4807 3.16086 10.2857 2.7819C10.203 2.86395 9.82296 3.10481 9.75838 3.14043C9.56325 3.24151 9.62519 3.08946 9.47868 3.16999C9.45303 3.18436 9.51283 3.2435 9.33937 3.31325C9.22231 3.35139 8.41861 3.75783 8.36974 3.78186C7.77369 3.98232 8.62186 3.54615 8.70579 3.41601C8.73721 3.42493 8.76838 3.43414 8.80097 3.44235C9.06182 3.35315 8.84347 3.26287 8.71204 3.28363C8.58058 3.30404 8.41145 3.48438 8.29208 3.48494C8.23233 3.48515 8.15557 3.2842 8.30906 3.22909C8.12666 3.25479 8.29963 3.08078 8.21027 3.05977C8.10905 3.03153 7.42204 3.41855 7.48413 3.52268C7.60923 3.44784 7.76199 3.3498 7.89142 3.27959C8.15323 3.36389 8.01972 4.22968 7.45275 4.28295C7.03359 4.33353 7.44396 3.84345 6.81876 4.50271C6.93343 4.42658 7.03808 4.3736 7.14444 4.30861C7.24254 4.42297 6.98235 4.40544 6.92726 4.50629C6.90159 4.5538 7.21007 4.45946 7.01848 4.64367C6.70697 4.60906 6.69641 4.88613 6.40753 5.12931C6.46397 5.03262 6.52208 4.93632 6.58137 4.84034C5.97574 5.13278 7.12805 4.12932 6.08098 4.8755C6.19428 4.76961 6.31434 4.67285 6.42958 4.56762C6.32121 4.55405 6.27301 4.29823 6.1889 4.30347C5.96663 4.31843 5.8071 4.55298 5.63406 4.69263C5.55817 4.75417 5.56224 4.66792 5.5559 4.67308C5.45156 4.75803 5.53413 4.805 5.45189 4.88851C5.34773 4.99189 4.98205 5.2281 4.94122 5.2862C4.83414 5.43159 5.1682 5.34365 5.16529 5.36624C5.14597 5.50572 4.93634 5.62109 5.02564 5.68984C5.3408 5.22207 6.59609 4.26781 5.66445 5.34875C6.07472 5.21974 6.15145 5.48123 5.77746 5.86504C5.47171 6.19 5.60549 5.91639 5.36188 6.00774C5.32869 6.01712 4.87843 6.43119 4.91899 6.50725C4.80108 6.3719 4.54973 6.42396 4.49929 6.20156C4.49144 6.16848 4.67037 5.98043 4.50004 5.95114C4.41447 5.93599 4.2062 5.93149 4.14871 5.85411C4.16255 5.9387 4.18169 6.03005 4.19855 6.11614C3.96115 6.43305 3.87499 6.43432 3.64571 6.53488C3.69242 6.55693 3.98112 6.52716 3.74734 6.72971C3.73504 6.74002 3.66569 6.70439 3.54398 6.80768C3.3002 7.0178 3.24285 7.06396 3.20138 6.73322C2.92994 7.35028 2.64545 7.33726 2.36736 7.97002C2.68122 7.9912 2.72726 7.75067 3.01871 7.20024C3.08999 7.21526 3.15278 7.24205 3.22489 7.25743C2.65586 7.85752 2.88356 7.53311 2.76544 7.99718C2.73488 8.1098 2.42096 8.62076 2.68252 8.53393C2.74248 8.51324 2.91631 8.18982 2.95761 8.26193C2.96364 8.27515 2.7811 8.67972 2.74875 8.70653C2.33179 9.04744 2.56463 8.17053 2.06281 9.45853C2.05 9.49446 2.1191 9.53875 2.10083 9.61111C2.06696 9.74674 1.97973 9.71283 1.95361 9.83638C1.92767 9.96056 1.98358 10.1642 1.81227 10.2995C1.49868 10.5553 1.65458 9.73781 1.90753 9.447C1.66349 9.17261 0.821851 11.7007 0.872473 11.8805C0.826735 12.6024 1.01039 11.4239 1.10866 11.3876C1.14642 11.3704 1.53225 11.487 1.35688 11.1335C1.30503 11.0266 1.10886 11.3557 1.12526 11.131C1.14301 10.9054 1.23482 11.0236 1.24702 11.0104C1.289 10.9656 1.31339 10.7292 1.33927 10.7048C1.72875 10.3431 2.08116 10.5026 1.35168 10.9121C1.4008 11.2028 1.77307 10.6842 1.76322 11.0216C1.75301 11.426 1.50838 11.6578 1.48825 11.7051C1.26008 12.2643 1.66696 11.6532 1.43562 12.3435C1.31425 12.7326 1.37201 11.7113 1.22151 12.6287C1.11747 13.4016 1.27485 12.997 1.47284 13.0825C1.51977 13.1028 1.52215 13.5197 1.57943 12.9595C1.52769 12.9357 1.46086 12.8953 1.41657 12.8514C1.47728 12.7168 1.78898 12.5378 1.8126 12.4698C1.92685 12.1329 1.78586 12.1167 1.99774 11.9513C1.78308 12.0549 1.9472 11.8431 1.93205 11.7456C1.87959 11.3824 1.70396 11.7922 2.09675 11.1091C1.9838 11.1787 1.8758 11.2419 1.76546 11.3132C1.78775 11.2224 1.81092 11.1318 1.83505 11.0416C2.05851 10.9628 2.18915 10.4956 2.23646 10.9735C2.45249 10.4903 2.49562 10.284 2.39583 10.119C2.37697 10.0879 2.39562 10.0091 2.42884 9.92101C2.3825 9.92121 2.25144 9.89293 2.24209 9.87292C2.16071 9.69312 2.47096 9.59724 2.52919 9.7002C2.55953 9.64148 2.58556 9.596 2.59514 9.58013C2.65596 9.47992 2.64122 9.72231 2.70623 9.64821C2.72652 9.62346 2.84644 9.32085 2.88141 9.33061C3.10341 9.39419 2.71351 9.78965 3.31305 8.90608C3.14325 8.78579 2.9556 9.25002 2.82043 9.03997C2.67469 8.8092 3.08505 8.70149 2.86339 8.5115C2.91596 8.5134 2.9554 8.52317 3.01207 8.53142C3.11926 8.08268 3.33417 8.20024 3.4474 8.11402C3.6619 7.9431 4.32469 6.95649 3.54936 7.72677C3.61778 7.58321 3.7 7.44416 3.77531 7.30458C4.15424 7.52666 3.94622 7.49383 4.45134 6.94617C4.5646 6.82667 4.74663 6.90878 4.67148 6.64078C4.82962 6.79921 5.0375 6.35096 5.09029 6.33666C5.40675 6.24787 4.91036 7.18075 4.52318 7.05114C4.53558 7.28583 4.37394 7.16167 4.2757 7.33898C4.13648 7.59609 4.14642 7.6475 3.83069 7.85205C3.81114 8.23794 4.66387 6.83039 4.31517 7.79917C3.81219 8.58425 2.17437 13.0541 2.45779 14.9352C2.46038 15.1191 2.46646 15.2729 2.47249 15.3909C2.65132 17.7375 3.06037 18.9435 3.9868 20.8318C4.05979 21.0302 4.93063 22.3416 4.5912 22.1839C4.53929 22.1653 4.08848 21.6275 4.29002 22.2168C4.29852 22.0624 4.54786 22.3167 4.57348 22.3336C5.15409 22.7368 4.9441 22.4055 5.61633 23.1986ZM6.97803 26.6634C5.72913 25.7491 6.58914 26.5008 6.15108 26.5509C6.31596 26.671 6.48288 26.7872 6.65288 26.9003C6.61828 26.8557 6.58456 26.8114 6.55066 26.7665C6.55047 26.7663 6.55028 26.7662 6.55009 26.7661C6.69409 26.7336 6.83717 26.6996 6.97803 26.6634ZM27.8743 19.7762C27.8788 19.8422 27.8832 19.9078 27.8846 19.9788C27.8052 20.1686 27.7226 20.3546 27.6349 20.5407C27.6277 20.5109 27.62 20.4818 27.6126 20.4521C27.7065 20.2295 27.7942 20.0056 27.8743 19.7762ZM1.94569 9.22858C2.18307 9.021 1.95812 8.94454 2.2235 8.64619C2.04756 8.61001 1.87229 8.58209 1.69603 8.55274C1.58954 8.83768 1.62118 8.92569 1.45392 9.20974C1.51955 9.19656 1.58585 9.1832 1.65147 9.17195C1.662 9.11769 1.67275 9.05962 1.68446 9.00752C1.85806 8.9972 1.67498 9.47384 1.94561 9.22965C1.94564 9.22929 1.94567 9.22894 1.94569 9.22858ZM3.359 6.62908C3.46661 6.51313 3.91286 6.08293 3.91155 5.97321C3.89237 5.58045 2.93705 7.07911 3.55846 5.90883C3.52737 5.89137 3.5043 5.86498 3.47723 5.84303C3.31784 6.02357 3.16427 6.2092 3.01494 6.40069C3.13383 6.47154 3.23873 6.55884 3.359 6.62908ZM2.99177 22.7693C2.86084 22.5708 2.19048 21.6308 2.265 22.0196C2.28622 22.138 2.72014 22.4808 2.82178 22.6453C2.88749 22.7535 2.72094 22.6929 2.89364 22.8793C2.92532 22.8447 2.96354 22.8107 2.99113 22.7689C2.99135 22.769 2.99156 22.7692 2.99177 22.7693ZM3.73917 22.7879C3.58572 22.6053 3.43074 22.4185 3.28451 22.2266C3.27857 22.4396 3.53815 22.6841 3.41449 22.7953C3.36581 22.7478 3.31787 22.7004 3.26971 22.652C3.27102 22.5893 3.2733 22.5274 3.27606 22.4657C3.08637 22.3405 3.11452 22.4723 2.92915 22.1264C2.83946 22.4574 2.74848 22.5843 3.34815 22.9942C3.16233 22.9666 2.87078 23.3271 3.35734 23.4464C3.44675 23.468 3.29961 23.2078 3.30593 23.1993C3.37321 23.0949 3.52939 23.1821 3.58904 23.0784C3.616 23.032 3.5119 22.8898 3.55327 22.8284C3.57382 22.7995 3.74822 22.8781 3.73917 22.7879ZM3.55799 23.5258C3.45468 23.5073 3.4862 23.8186 3.66141 23.9753C3.93246 24.2168 3.68876 23.6857 3.55799 23.5258ZM27.8746 19.7749C27.8745 19.7753 27.8744 19.7757 27.8743 19.7762C27.8742 19.7759 27.8742 19.7757 27.8742 19.7754C27.8743 19.7753 27.8745 19.7751 27.8746 19.7749ZM2.8248 7.24067C2.8641 7.04562 3.02779 6.82325 2.92318 6.77539C2.99285 6.71282 3.06332 6.65011 3.134 6.58933C3.10573 6.56998 3.0769 6.55129 3.04891 6.53216C2.87265 6.74381 2.70261 6.96039 2.53815 7.18264C2.63317 7.20222 2.72694 7.22477 2.8248 7.24067ZM4.71792 4.99454C4.96508 4.76268 4.65321 4.85133 4.65201 4.74413C4.65104 4.63535 4.91528 4.46626 4.814 4.41154C4.66345 4.54967 4.50962 4.69726 4.36362 4.844C4.48666 4.88781 4.59936 4.94603 4.71839 4.99405C4.71823 4.99421 4.71807 4.99438 4.71792 4.99454ZM12.8401 28.9077C12.6153 28.853 12.7231 28.7849 12.2583 28.8126C12.2586 28.8126 12.2589 28.8127 12.2593 28.8128C12.6726 28.9557 13.2253 29.083 13.707 29.0439C13.4228 28.9355 13.1954 28.9894 12.8401 28.9077ZM1.32964 9.84689C1.37932 9.96981 1.61135 9.57268 1.57334 9.44852C1.50917 9.24296 1.25163 9.65523 1.32964 9.84689ZM21.4787 26.6148C21.6695 26.2872 21.0356 26.4348 20.4943 26.7927C20.4474 26.8256 20.8504 26.6914 20.7556 26.7793C20.7461 26.7886 20.5365 26.8876 20.4957 26.9354C20.4551 26.9837 20.5361 27.0123 20.4614 27.076C20.3302 27.189 19.951 27.2649 19.8587 27.3653C19.8463 27.3795 20.0944 27.3636 20.1094 27.3598C20.352 27.3082 20.5172 27.111 20.5499 27.0945C20.7207 27.0079 20.7312 27.0941 20.7837 27.0898C20.8827 27.0814 21.0098 26.9739 21.021 26.9709C21.3143 26.8982 20.711 27.1921 20.6398 27.2551C20.4525 27.4328 20.6953 27.409 20.1693 27.6941C20.12 27.7207 19.4912 27.9823 20.3165 27.7311C18.8279 28.573 21.1552 27.5062 21.3542 27.2914C21.4562 27.2129 21.2506 27.2364 21.3012 27.1684C21.4168 27.0142 21.6649 26.8532 21.585 26.7686C21.4175 26.5922 21.1633 26.9161 20.9088 27.0006C20.9095 26.9415 20.8955 26.8915 20.9168 26.823C20.8799 26.9231 21.4663 26.6426 21.4789 26.6152C21.4788 26.6151 21.4787 26.615 21.4787 26.6148ZM17.7102 28.3916C17.3282 28.3966 17.3865 28.548 17.0317 28.5187C16.7554 28.7134 17.3467 28.6009 17.416 28.5918C17.7358 28.5621 17.7648 28.7152 18.075 28.5893C17.943 28.5279 17.8327 28.4587 17.7102 28.3916ZM20.7966 27.3627C20.6043 27.5439 21.0086 27.3421 21.0309 27.3452C21.2833 27.3996 20.0462 27.967 20.7966 27.3627ZM2.57714 21.3058C2.52441 21.1908 2.47546 21.3069 2.39812 21.2203C2.31884 21.1335 2.22615 20.7507 2.1763 20.7851C2.12174 20.8182 2.29794 21.5317 1.94984 20.8991C1.92935 20.9357 1.9027 20.9391 1.87982 20.963C1.96513 21.143 2.05515 21.3243 2.14817 21.5007C2.18333 21.3586 2.22437 21.2131 2.26336 21.0786C2.38238 21.142 2.3213 21.2415 2.32405 21.2469C2.32414 21.2469 2.32424 21.2468 2.32433 21.2468C2.42596 21.4265 2.69796 21.563 2.57714 21.3058ZM9.7822 27.991C9.89441 27.8031 9.5262 27.9216 9.39896 27.8984C9.27267 27.8767 9.14581 27.7352 9.16845 27.8464C9.3305 27.9867 9.7704 28.0133 9.7823 27.9908C9.78227 27.9909 9.78224 27.9909 9.7822 27.991ZM15.7011 28.6917C15.3904 28.7611 15.4416 28.8122 15.0552 28.7663C15.0713 28.8145 15.0876 28.8636 15.1039 28.911C15.4129 28.8994 15.383 28.7615 15.7416 28.7921C15.8004 28.7964 15.6841 28.9192 15.9445 28.8599C15.8629 28.8079 15.7805 28.7485 15.7011 28.6917ZM14.1379 28.9033C14.505 28.9054 14.7929 28.5151 14.1297 28.6767C14.0318 28.6995 13.8642 28.8984 14.1379 28.9033ZM4.46477 24.0043C4.0753 23.537 4.47005 24.108 4.53027 24.2714C3.54234 23.2365 4.63984 24.3839 4.58496 24.64C4.75701 24.7227 5.0947 24.845 4.86761 24.5602C4.7741 24.4407 4.76295 24.5279 4.75677 24.5213C4.57593 24.3078 4.68138 24.2558 4.46477 24.0043ZM18.3383 28.2245C18.3167 28.2334 18.3688 28.2863 18.3008 28.3184C18.2323 28.3508 18.0594 28.3484 18.053 28.391C18.0461 28.4351 18.3811 28.3792 18.4725 28.3214C18.5639 28.2643 18.5326 28.1444 18.3383 28.2245ZM16.0151 28.4888C15.7177 28.5652 16.2348 28.7646 16.3047 28.7526C16.8879 28.6661 16.0009 28.5743 16.0151 28.4888ZM5.78499 24.6519C5.17319 24.2688 5.35957 24.8118 5.60926 25.2324C5.67531 25.2496 5.74251 25.2674 5.8076 25.2833C5.48025 25.2419 4.97849 25.063 5.91772 25.6456C5.48841 25.2314 5.90319 25.5131 5.91235 25.5068C6.17514 25.2901 5.42682 24.8419 5.78546 24.6524C5.7853 24.6522 5.78515 24.6521 5.78499 24.6519ZM19.3089 27.9886C19.6164 27.8852 20.3655 27.5121 19.9606 27.5517C19.7491 27.702 19.531 27.8481 19.3089 27.9886ZM1.55489 14.2818C1.66627 14.035 1.68214 13.8084 1.70989 13.5019C1.53734 13.7632 1.54 13.5814 1.51546 13.4823C1.47852 13.333 1.44504 13.6813 1.43641 13.681C1.30242 13.6627 1.29802 13.4352 1.25972 13.9468C1.22172 13.8167 1.18486 13.6874 1.15049 13.5556C1.1074 13.9468 1.01552 14.0345 0.895401 14.2833C1.17098 14.0513 0.987216 14.3659 1.1131 14.6603C1.17527 14.8045 1.49613 14.4029 1.55494 14.2808C1.55493 14.2811 1.55491 14.2815 1.55489 14.2818ZM5.29629 24.1082C5.21595 24.0852 5.12902 24.0762 5.04556 24.0574C4.98933 24.0042 4.93383 23.95 4.87846 23.8958C4.89955 23.8636 4.92303 23.8315 4.94215 23.7992C4.88271 23.7168 4.87047 23.7807 4.84677 23.7615C4.84692 23.7614 4.84707 23.7612 4.84722 23.7611C4.51005 23.4825 4.40121 23.3353 4.2864 22.9974C4.19501 23.0681 4.10363 23.1388 4.01225 23.2096C4.0686 23.2643 4.12562 23.3193 4.1825 23.3732C4.25661 23.3666 4.33058 23.3596 4.40412 23.352C4.43354 23.4422 4.46393 23.5317 4.49578 23.6218C4.55892 23.6619 4.63255 23.7115 4.6893 23.7436C4.68527 24.2241 4.31341 23.4679 4.21044 23.5439C4.13603 23.5976 4.68586 24.2225 4.81491 24.2639C4.83279 24.27 4.88321 23.9797 4.99994 24.2813C5.01742 24.3269 4.66517 24.7008 5.1904 24.6389C5.26418 24.6292 5.37016 24.2916 5.29629 24.1082ZM3.67152 21.729C3.60593 22.2938 3.09181 20.6767 3.20001 21.4373C2.96382 21.3343 2.98155 21.3644 2.96473 21.617C2.96309 21.6395 2.85358 21.5331 2.85496 21.5465C2.88492 21.7579 3.04397 21.9434 2.92616 22.0162C2.96061 22.0588 2.99299 22.099 3.02793 22.1413C3.02098 21.8812 3.28298 22.1409 3.44893 22.1939C3.52399 22.2188 3.46044 22.0914 3.52499 22.1115C3.54826 22.1191 3.62927 22.3013 3.67182 22.2827C3.76656 22.2393 3.81337 22.0607 3.76977 21.8472C3.76986 21.8471 3.76995 21.8471 3.77003 21.847C3.73724 21.8072 3.70418 21.7692 3.67152 21.729ZM10.9281 27.6622C10.9538 27.842 11.2454 27.9798 10.6414 27.8822C10.6603 27.9225 10.6803 27.9626 10.6996 28.0026C10.799 28.0299 10.8956 28.0552 10.9972 28.0809C11.425 27.6997 11.8368 28.3545 11.5669 27.9387C11.5373 27.8935 11.2969 27.8756 11.5489 27.8345C11.5486 27.8343 11.5484 27.8342 11.5481 27.834C11.2241 27.7839 11.1653 27.8277 10.9281 27.6622ZM8.83804 26.9667C7.98256 26.9537 9.72162 27.5993 9.47983 27.3741C9.45615 27.3609 8.70586 27.1005 8.83804 26.9667ZM14.7471 28.0438C14.7364 28.0436 14.7259 28.0435 14.7158 28.0437C14.41 28.0462 14.3858 28.2128 14.4176 28.2767C14.4496 28.3406 14.674 28.2843 14.7158 28.2894C14.7172 28.2895 14.7184 28.2898 14.7193 28.2901C14.7701 28.3071 14.7404 28.3212 14.7158 28.3369C14.6952 28.3501 14.6782 28.3645 14.7158 28.3828C14.7216 28.3856 14.7287 28.3885 14.7372 28.3915C14.7805 28.4098 15.3823 28.4569 15.4091 28.4446C15.5598 28.3945 15.3293 28.2604 15.3724 28.2414C15.5099 28.1807 15.7056 28.2433 15.7403 28.1631C15.8149 27.9932 15.4755 28.1893 15.414 28.194C15.2344 28.2101 15.2464 28.1159 15.1118 28.1009C14.9774 28.0854 14.8902 28.1183 14.7711 28.1118C14.7315 28.1095 14.7642 28.0444 14.7471 28.0438ZM13.61 28.3755C13.9745 28.2692 13.1283 28.0454 13.0261 28.0569C12.7123 28.1139 13.4303 28.433 13.61 28.3755ZM3.88233 22.9515C4.16807 23.1446 3.79296 22.4811 3.64051 22.3246C3.61956 22.3847 3.78021 22.8849 3.88233 22.9515ZM5.92947 24.7846C5.68673 24.6106 5.80846 25.0641 6.00657 25.2247C6.22494 25.1942 6.09736 25.1305 5.97884 25.0184C5.86111 24.906 6.11967 24.918 5.92947 24.7846ZM18.3778 27.7057C18.3196 27.7288 17.3339 28.0811 17.9277 27.9888C17.9736 27.9864 18.6764 27.7709 18.7204 27.7299C18.8137 27.6562 18.5384 27.6676 18.3778 27.7057ZM7.1727 25.4814C6.96663 25.5047 6.84353 25.4095 6.86124 25.6284C6.86141 25.6285 6.86158 25.6286 6.86175 25.6287C6.51094 25.4296 6.70922 25.1486 6.63906 25.1026C6.39469 24.9364 6.45999 25.3017 6.26439 25.2442C6.65246 25.4628 6.45326 25.5111 6.71633 25.7232C6.77555 25.7712 7.07715 25.869 7.14709 25.8439C7.21667 25.8195 7.19508 25.585 7.1727 25.4814ZM19.7489 27.204C19.4111 27.2918 19.1727 27.5805 19.6417 27.4342C19.8704 27.3595 19.9558 27.1477 19.7489 27.204ZM4.47623 6.83341C4.3842 6.82738 4.29121 6.82376 4.19686 6.82332C4.26145 6.71028 4.32753 6.59763 4.39528 6.48584C4.34886 6.58004 4.30325 6.6744 4.25842 6.76958C4.42959 6.5956 4.60528 6.60036 4.47662 6.83292C4.47649 6.83308 4.47636 6.83324 4.47623 6.83341ZM11.4735 2.38799C11.5939 2.4388 11.7394 2.15332 11.71 2.14052C11.4793 2.04709 11.3024 2.31895 11.4735 2.38799ZM4.07044 22.2333C3.87632 21.8931 3.76701 22.2868 3.89148 22.5023C3.85468 22.3462 4.18371 22.4257 4.07044 22.2333ZM8.70579 3.41601C8.65899 3.40273 8.6118 3.38985 8.5609 3.3791C8.6935 3.36151 8.72695 3.37993 8.70579 3.41601ZM18.162 27.5404C18.0984 27.54 17.6625 27.6293 17.6081 27.6632C17.4957 27.7385 17.8695 27.797 18.0603 27.7033C18.0819 27.6933 18.2255 27.5431 18.1611 27.5407C18.1614 27.5406 18.1617 27.5405 18.162 27.5404ZM4.92595 6.51447C4.92282 6.51269 4.92051 6.51022 4.91899 6.50725C4.92118 6.50973 4.92384 6.51186 4.92595 6.51447ZM19.8544 3.6731C19.8551 3.66604 19.8568 3.65948 19.8596 3.6538C19.8579 3.65987 19.8567 3.66661 19.8544 3.6731ZM15.0448 27.7565C14.8941 27.5145 14.5612 27.6408 14.8275 27.7645C14.8426 27.7712 15.0094 27.7569 15.0448 27.7565Z" fill="#7F6019"/>
<path d="M17.4758 22.1952L17.9958 21.9152L18.5758 21.8352L18.5958 21.2352L18.6958 20.6752L18.7958 19.9952L18.6158 19.4752L18.7758 18.7952L18.6158 17.7952L18.7358 17.0552L18.7158 16.6352L18.6158 16.0752L18.6958 15.4752L18.1958 14.8952L17.5358 14.9552L17.0158 14.9152L16.5358 15.0152L15.8358 14.9752L15.2558 15.0152L14.7158 15.0352L14.2158 15.5552L14.1158 16.0752L14.7558 16.6352L15.3358 16.5952L16.5758 16.5352L17.1558 16.5552L17.8758 16.8552L17.1958 17.1352L16.5758 17.2152L15.8758 17.0752L15.3758 17.1952L14.8158 17.2552L14.1558 17.4952L14.0558 17.8152L14.0158 18.4952L14.5958 18.8152L15.1358 18.8552L15.6558 18.6752L16.7358 18.6152L17.3158 18.7552H17.9358L17.9158 18.7952L17.9958 19.0552L17.4358 19.1952L16.7158 19.1552L16.1758 19.1752L15.5958 19.2152L15.0358 19.2552L14.1758 19.3352V19.8752L13.9958 20.5552L14.1358 21.3752L13.8158 22.5552L13.2958 23.4552L12.7158 23.5552L12.5558 23.4752L12.4958 22.8752L12.4358 22.3352L12.3958 21.5752V21.1552L12.3758 20.5152L12.5158 19.8352L12.3958 19.2352L12.5158 18.1952L12.5358 17.5752L12.4558 16.9152V16.3752L12.4758 15.7952L12.3758 14.5152L12.8558 14.0552L13.6158 14.4552L15.6758 14.5752L16.2758 14.4752H16.7558L17.2958 14.5152L17.8558 14.4752L18.8958 13.8352L19.2358 13.3952L19.5758 13.4952L20.0958 14.0552L20.7158 14.2152L20.9758 14.8352L20.7558 15.1552L20.6958 15.9752L20.5958 16.5552L20.7358 17.2552L20.5958 17.9152L20.7558 18.4952L20.7158 18.9752L20.6558 20.2952L20.5758 20.7552L20.6158 21.4552L20.4558 22.2352L19.7158 23.1152L19.2158 23.3552L18.6558 23.9152L18.5158 23.7552L18.4158 23.5952L18.0558 22.8952L17.4758 22.1952ZM10.6758 12.6952L11.3558 12.5952L11.8358 12.6752L13.0558 12.5952L13.7158 12.5552H14.8358L15.4358 12.1952L15.5158 11.5752L15.5558 11.1752L14.9558 10.9752L14.3958 11.0352L13.2958 11.2552L12.2158 11.0152L12.2758 10.6152L12.7558 10.5352L14.0758 10.5752L15.0558 10.4352L15.4358 9.71518L15.5158 8.95518L14.7758 9.07518L14.1758 9.03518H13.7158L12.6958 9.09518L12.0558 9.11518L11.5558 8.79518L11.9358 8.45518L12.4158 8.59518L13.0758 8.55518L13.8358 8.53518L14.4158 8.45518L15.1558 8.55518L15.4158 7.89518L15.4358 7.21518L15.2958 6.27518L15.3758 5.93518L15.3558 5.83518H15.4558L16.1758 5.99518L16.6758 6.05518L17.3758 6.31518L17.8358 6.63518L17.5758 6.91518L17.4158 7.27518L17.4358 7.97518L17.9158 8.39518L18.3958 8.31518L19.2758 8.29518L20.1158 7.83518L21.2158 7.79518L21.9758 8.49518L22.1558 8.67518L21.6158 8.79518L20.9958 8.85518L20.3758 8.77518L19.7758 8.79518L18.6558 8.91518L18.0158 8.83518L17.4158 9.61518L18.0958 10.3152L19.0958 9.97518L19.6758 9.55518L20.2158 9.81518L20.8758 10.4752L20.9158 10.6552L20.9358 10.6352L20.9958 10.6552L20.3358 10.7352L19.7758 10.8952L19.1558 10.7552L18.7758 10.9352L17.7558 10.8552L17.2158 11.6152L17.4158 12.2352L18.0558 12.3752L19.4558 12.3152L20.0958 12.3952L21.4158 11.9352L22.0558 11.4552L22.1558 11.4352L22.6358 11.8752L23.0958 12.2752L23.4358 12.7352L22.9758 12.8952L22.3958 12.9152L21.1158 12.9552L20.5358 12.9352L19.9358 12.9752L19.3758 12.8952L18.8158 12.9352L18.1958 13.0752L17.5758 12.9752H16.9758L16.4958 13.0952L15.7558 13.0552H15.2958L14.1558 13.1952H13.4758L12.8558 13.2352L12.2958 13.3352L11.2558 13.4752L10.5958 13.2552L10.4758 13.0152L10.2558 12.8752L10.6758 12.6952ZM7.11582 22.5552L7.15582 22.0752L6.79582 20.9552L6.63582 20.5752L5.97582 19.9952V19.9152L6.29582 19.8552L6.79582 19.6752L7.19582 19.1952L7.37582 18.7952L7.57582 18.1752L7.91582 17.5152L8.07582 16.9552L8.25582 16.4152L8.75582 15.4352L8.97582 14.8752L9.01582 14.3152L9.31582 13.8752L9.43582 13.2352L9.71582 12.7152L9.97582 11.7752L10.3758 11.1352L10.3958 10.6952L10.7158 9.85518L10.8358 10.2752L10.5558 11.1152L10.2958 11.6752L10.2158 12.3552L10.1158 12.8952L10.0158 13.6152L9.67582 14.1552V14.6952L9.37582 16.0152L9.25582 16.5552L9.13582 17.3152L9.07582 17.8152L8.93582 18.4752L8.89582 19.6152L8.73582 20.0152L8.89582 20.9952L8.91582 22.0552L8.59582 22.9352L8.13582 23.1752L7.79582 23.3352L7.47582 23.2952L7.23582 23.2752L7.11582 22.5552ZM6.51582 13.0952L6.29582 12.1952L5.83582 11.5952L5.53582 10.9152L5.39582 10.7952L5.37582 10.6352L5.63582 10.6752L6.17582 11.0352L7.13582 11.4352L7.71582 11.8352L8.15582 12.2552L8.23582 12.4552L8.07582 13.0952L7.31582 13.4952L6.87582 13.7752L6.85582 13.5352L6.51582 13.0952ZM8.61582 9.33518L8.41582 8.45518L8.25582 7.91518L7.97582 7.49518L7.65582 6.83518L7.97582 6.89518L8.43582 6.91518L9.35582 7.61518L9.99582 7.95518L10.3758 8.45518L10.2758 8.73518L9.67582 9.37518L9.17582 9.77518L8.85582 9.75518L8.81582 9.53518L8.61582 9.33518Z" fill="white"/>
</g>
</svg>
