<svg width="32" height="32" viewBox="0 0 32 32" fill="none" xmlns="http://www.w3.org/2000/svg">
<path d="M4 5.35C4 4.60442 4.60442 4 5.35 4H26.65C27.3956 4 28 4.60442 28 5.35V26.65C28 27.3956 27.3956 28 26.65 28H5.35C4.60442 28 4 27.3956 4 26.65V5.35Z" fill="#6A8D52"/>
<path d="M19.3745 26.652C21.7748 26.6256 24.0848 26.8747 26.4933 26.8752C26.5455 26.8752 26.5978 26.8751 26.65 26.875C26.7709 26.8782 26.8657 26.7488 26.8383 26.65C26.7734 24.4024 26.6489 22.1407 26.6821 19.9016C26.7264 16.9217 26.7901 13.9273 26.8686 10.9424C26.9176 9.07738 26.9724 7.21409 27.0318 5.35C27.0622 5.14969 26.8913 4.91756 26.65 4.89877C26.2339 4.88478 25.8176 4.87058 25.4013 4.85618C22.4179 4.75281 19.4281 4.63942 16.4424 4.52043C14.4144 4.43961 12.3842 4.35617 10.3564 4.27171C9.46621 4.23469 8.57869 4.1975 7.68898 4.16018C7.02523 4.13227 6.36148 4.10436 5.69772 4.07645C5.60545 4.07251 5.51703 4.05655 5.45185 4.03121C5.38667 4.00583 5.34991 3.97333 5.35 3.93974C5.35012 3.90614 5.38716 3.87357 5.45257 3.84828C5.51794 3.82306 5.60651 3.80732 5.69879 3.80354C6.36814 3.7765 7.0375 3.74947 7.70685 3.72244C8.45033 3.69245 9.19249 3.66241 9.93577 3.63262C10.0528 3.77045 10.2134 3.87499 10.5143 3.92116C10.6679 3.9447 10.8919 3.9545 11.0568 3.92889C11.2049 3.90588 11.3165 3.86485 11.4224 3.82575C11.5332 3.78485 11.6384 3.74602 11.7737 3.73231C12.0034 3.70902 12.2217 3.65051 12.4509 3.58903C12.5344 3.56665 12.6193 3.54385 12.7068 3.52224C13.4163 3.49421 14.1259 3.46641 14.8353 3.43884C15.1094 3.45352 15.3613 3.46538 15.5751 3.45973C15.7668 3.45466 15.9424 3.42554 16.1172 3.38932C16.227 3.3851 16.3368 3.38088 16.4467 3.37666C17.1555 3.34953 17.8646 3.32284 18.5737 3.29638C19.1271 3.33315 19.707 3.36887 20.461 3.38455C20.786 3.39131 21.1066 3.4112 21.4148 3.43028C21.8701 3.45847 22.2984 3.48497 22.6738 3.46516C22.9248 3.45192 23.1888 3.47139 23.4522 3.49082C23.8054 3.51687 24.1579 3.54288 24.4775 3.48983C24.6784 3.45647 24.863 3.41592 25.0339 3.3783C25.3059 3.31845 25.5435 3.2661 25.7587 3.26249C26.0898 3.25695 26.3846 3.22669 26.65 3.19478C26.7431 3.18775 26.8345 3.18653 26.9248 3.19094C27.5275 3.21947 28.0272 3.49961 28.295 3.8598C28.3359 3.91441 28.3793 3.97938 28.4227 4.05502C28.5809 4.3327 28.7578 4.77026 28.7479 5.35C28.7431 5.5084 28.7452 5.68348 28.7584 5.87596C28.7742 6.10594 28.8153 6.32196 28.8556 6.53352C28.9143 6.8415 28.9713 7.14059 28.9459 7.46089C28.9421 7.50874 28.9262 7.55871 28.9117 7.6042C28.8932 7.66204 28.8771 7.71258 28.8912 7.7425C28.9323 7.83027 28.9777 7.96962 29.0272 8.12095C29.0635 8.23214 29.1021 8.35 29.1425 8.45867C29.1654 9.28853 29.1873 10.1186 29.208 10.9488C29.2175 11.3292 29.2268 11.7097 29.2358 12.0903C29.1739 12.2849 29.1181 12.484 29.0759 12.6942C29.0207 12.969 29.0038 13.3253 28.982 13.7845C28.9659 14.1224 28.947 14.5163 28.9084 14.9746C28.837 15.8229 28.853 16.6944 28.8913 17.2528C28.8994 17.3709 28.9081 17.4896 28.9175 17.6166C28.9531 18.0983 28.9978 18.6993 29.0471 19.8409C29.0937 20.9208 29.1058 21.8391 29.1149 22.529C29.1195 22.8812 29.1232 23.1739 29.1305 23.3981C29.1429 23.7819 29.154 24.2531 29.165 24.7261C29.1823 25.4664 29.1997 26.2113 29.2228 26.6331C29.2231 26.6387 29.2234 26.6443 29.2237 26.65C29.2317 26.9239 29.1985 27.2188 29.1023 27.5213C28.8622 28.3 28.0813 29.2875 26.65 29.3348C26.5957 29.3365 26.5404 29.3381 26.484 29.3396C25.6601 29.3616 25.1494 29.3466 24.6189 29.3139C24.4033 29.3006 24.213 29.2481 24.0171 29.1938C23.739 29.1168 23.4489 29.0364 23.0565 29.0604C22.9649 29.066 22.8671 29.0785 22.7649 29.0917C22.5771 29.1158 22.3739 29.142 22.1659 29.1305C22.0934 29.1265 22.0295 29.1122 21.9669 29.0983C21.898 29.0829 21.8304 29.0678 21.7539 29.067C21.468 29.0639 21.1898 29.0674 20.9426 29.0706C20.6239 29.0747 20.3566 29.0782 20.1907 29.0657C19.8951 29.0434 19.5718 29.0634 19.2444 29.0836C18.9943 29.0991 18.7417 29.1148 18.4972 29.1119C17.7983 29.1035 16.8372 29.1415 15.8469 29.2047C15.4722 29.2286 15.1548 29.1959 14.748 29.154C14.495 29.128 14.2074 29.0982 13.8499 29.0764C13.6473 29.064 13.4756 29.0931 13.3167 29.12C13.1703 29.1447 13.0346 29.1676 12.8954 29.1547C12.7725 29.1433 12.6947 29.0944 12.6209 29.0479C12.5388 28.9962 12.4615 28.9476 12.3322 28.9571C12.2634 28.9622 12.1797 28.9866 12.0802 29.0157C12.0409 29.0272 11.9989 29.0393 11.9544 29.0514C11.9567 29.0415 11.9573 29.0326 11.9573 29.0259C11.9574 28.9784 11.8255 28.9535 11.6961 28.929C11.6444 28.9192 11.5929 28.9096 11.5506 28.8986C11.395 28.858 11.1003 28.8514 10.8752 28.8533C10.7799 28.8541 10.6936 28.8394 10.5929 28.8222C10.5034 28.807 10.4026 28.7898 10.2741 28.7798C10.2008 28.7741 10.1445 28.7603 10.0979 28.7489C10.0642 28.7405 10.0355 28.7334 10.0089 28.7316C9.98588 28.73 9.96727 28.7436 9.94637 28.7589C9.93133 28.7699 9.91498 28.7819 9.89491 28.7897C9.84692 28.8083 9.78524 28.8139 9.74195 28.8079C9.72197 28.8051 9.70617 28.7999 9.69049 28.7946C9.67222 28.7885 9.65407 28.7823 9.62903 28.7801C9.51413 28.7702 9.4024 28.7857 9.28631 28.8018C9.15871 28.8195 9.02563 28.8379 8.87748 28.8242C8.83085 28.8199 8.78119 28.81 8.7331 28.8003C8.68277 28.7903 8.63387 28.7806 8.5923 28.778C8.42347 28.7675 8.26478 28.8014 8.11878 28.8326C8.02169 28.8533 7.93007 28.8729 7.84504 28.8773C7.68916 28.8855 7.60547 28.9262 7.54377 28.9563C7.5118 28.9719 7.48571 28.9847 7.45836 28.9885C7.43328 28.9874 7.40785 28.9861 7.38296 28.9846C7.36011 28.9816 7.33649 28.9785 7.31434 28.9795C7.31266 28.9796 7.31101 28.9797 7.30934 28.9798C7.16994 28.9699 7.033 28.9559 6.89694 28.942C6.59132 28.9106 6.28945 28.8796 5.97028 28.8971C5.9015 28.9008 5.83142 28.9177 5.76014 28.9347C5.67282 28.9557 5.58347 28.9771 5.49247 28.9755C5.44506 28.9747 5.39755 28.9728 5.35 28.9699C5.05989 28.9602 4.77043 28.8825 4.51503 28.7578C4.01803 28.5156 3.66485 28.1227 3.39655 27.7254C3.30717 27.5932 3.22375 27.4574 3.15411 27.3108C3.11537 27.2292 3.08086 27.1438 3.05317 27.0555C3.07849 27.0708 3.10096 27.0769 3.12189 27.0825C3.16523 27.0936 3.20119 27.1039 3.24903 27.1766C3.36196 27.3518 3.53675 27.4983 3.58978 27.4477C3.60448 27.4346 3.62556 27.4304 3.64685 27.4262C3.70144 27.4158 3.75013 27.4032 3.72013 27.26C3.69719 27.1618 3.67385 26.9186 3.6277 26.7651C3.61668 26.7313 3.59854 26.7113 3.57857 26.6878C3.56903 26.6766 3.55911 26.6646 3.54962 26.65C3.52348 26.6198 3.49936 26.576 3.4923 26.4902C3.49068 26.4705 3.48922 26.449 3.48786 26.4269C3.48243 26.3386 3.47644 26.2398 3.44838 26.2028C3.41605 26.1603 3.37903 26.1694 3.33586 26.18C3.27964 26.1938 3.21286 26.2102 3.13237 26.1185C3.11646 26.1003 3.11101 26.0657 3.10687 26.0395C3.10396 26.0211 3.10163 26.007 3.09684 26.0056C3.09134 26.004 3.0799 26.0099 3.06542 26.0174C3.01434 26.0438 2.9251 26.0897 2.92132 25.898C2.9203 25.8461 2.92455 25.7868 2.92839 25.7336C2.93405 25.6552 2.93871 25.5901 2.92411 25.5814C2.91857 25.5781 2.91257 25.5758 2.90635 25.5739C2.9081 25.5115 2.90986 25.449 2.91161 25.3866C2.92902 25.3065 2.92753 25.1942 2.92559 25.0539C2.92512 25.0199 2.92469 24.984 2.92444 24.9467C2.92805 24.8235 2.93163 24.7003 2.9353 24.5772C2.94268 24.4795 2.95471 24.3756 2.97379 24.2659C3.01204 24.0461 3.07513 23.8549 3.13681 23.668C3.16281 23.5893 3.18861 23.5113 3.21216 23.4322C3.21505 23.463 3.21847 23.4908 3.22318 23.5122C3.2554 23.6587 3.31879 23.7176 3.37715 23.7717C3.41597 23.8076 3.45256 23.8416 3.47618 23.8978C3.51944 24.0007 3.57004 23.9904 3.60745 23.9829C3.62686 23.9789 3.64276 23.976 3.6522 23.9897C3.65976 24.0007 3.66332 24.0262 3.667 24.0525C3.67021 24.0755 3.67357 24.0992 3.67967 24.1144C3.75374 24.2985 3.79673 24.2431 3.8593 24.1626C3.89381 24.1182 3.93431 24.0663 3.98926 24.0425C4.04744 24.0221 4.06446 24.029 4.08763 24.1255C4.11636 24.0503 4.1451 23.9751 4.17383 23.9C4.17196 23.8705 4.154 23.8481 4.12415 23.8167C4.07085 23.7606 4.05137 23.5778 4.03614 23.435C4.02909 23.3689 4.02293 23.3113 4.01476 23.2788C3.97129 23.1061 3.91076 23.1563 3.85749 23.2006C3.82818 23.2249 3.80104 23.2474 3.78018 23.2299C3.77125 23.2224 3.7624 23.2331 3.75336 23.2438C3.74638 23.2521 3.73928 23.2606 3.73198 23.261C3.67894 23.2632 3.63957 23.161 3.60301 23.0662C3.58207 23.0119 3.56199 22.9601 3.54083 22.9315C3.53438 22.9228 3.5278 22.9158 3.52142 22.9093C3.51209 22.8998 3.50321 22.8906 3.49559 22.8761C3.47825 22.8431 3.46655 22.7751 3.45381 22.7006C3.44727 22.6624 3.44045 22.6225 3.43242 22.5848C3.42202 22.536 3.40104 22.5184 3.37912 22.4998C3.36364 22.4866 3.34769 22.4729 3.33454 22.4476C3.31078 22.4018 3.3022 22.3093 3.29424 22.2235C3.29077 22.1862 3.28733 22.15 3.28289 22.1195C3.28108 22.1071 3.27748 22.1012 3.27253 22.0999C3.25592 21.959 3.23896 21.8245 3.22235 21.6936C3.13908 21.0371 3.06688 20.4689 3.11921 19.6205C3.12911 19.46 3.12713 19.2878 3.11921 19.1137C3.14002 18.5568 3.1615 17.9997 3.18353 17.443C3.23133 17.3328 3.27146 17.198 3.30296 17.0385C3.3621 16.7388 3.37473 16.4305 3.38965 16.0668C3.40068 15.7978 3.413 15.4985 3.44624 15.1498C3.50209 14.5638 3.54934 13.9621 3.57389 13.2832C3.59834 12.6073 3.61636 11.8334 3.62275 11.2859C3.62624 10.9874 3.66899 10.6739 3.70878 10.3817C3.76475 9.97075 3.81492 9.60196 3.74218 9.37681C3.71893 9.30491 3.67857 9.2354 3.63937 9.16775C3.61144 9.11957 3.58417 9.07206 3.56386 9.02552C3.57017 8.90159 3.57641 8.77752 3.58278 8.6535C3.63125 8.43314 3.68322 8.09072 3.62917 7.75971C3.63585 7.63178 3.64249 7.50377 3.64924 7.38019C3.66334 7.1105 3.67762 6.84665 3.69201 6.58039C3.69676 6.49349 3.70153 6.40572 3.70632 6.31773C3.70637 6.31689 3.70643 6.31606 3.70648 6.31523C3.71612 6.13812 3.72583 5.95967 3.7356 5.78418C3.73977 5.70901 3.74393 5.63384 3.7481 5.55868C3.75195 5.48923 3.7558 5.41959 3.75965 5.35C3.76636 5.20669 3.79243 5.06539 3.83634 4.93197C3.87277 4.82114 3.92188 4.71398 3.98221 4.61421C4.07999 4.4522 4.20767 4.3091 4.35458 4.19498C4.59185 4.00987 4.88062 3.90098 5.17123 3.88219C5.21884 3.87898 5.26509 3.88413 5.29835 3.89524C5.33174 3.90637 5.35008 3.92199 5.35 3.93777C5.34992 3.95364 5.33166 3.9688 5.30102 3.98206C5.27041 3.99527 5.22941 4.00581 5.18672 4.01354C4.92529 4.05991 4.6841 4.18539 4.4997 4.36482C4.3855 4.47548 4.29268 4.60665 4.22733 4.74746C4.18698 4.83423 4.15688 4.92469 4.13754 5.01603C4.11427 5.12556 4.10591 5.23824 4.1125 5.35C4.11629 5.42009 4.12007 5.49021 4.12382 5.56011C4.12788 5.63527 4.13194 5.71044 4.13599 5.78561C4.1455 5.96157 4.15491 6.14051 4.16429 6.31809C4.16434 6.31916 4.1644 6.32023 4.16445 6.3213C4.16907 6.40867 4.17369 6.49589 4.17827 6.58218C4.19223 6.84854 4.20606 7.11254 4.21973 7.38233C4.2271 7.52172 4.23431 7.66699 4.2416 7.81118C4.24566 7.89146 4.24974 7.97158 4.25378 8.05026C4.25593 8.09327 4.25805 8.13687 4.26019 8.1807C4.31077 9.18666 4.35943 10.1855 4.40611 11.1937C4.45278 12.1981 4.49753 13.2042 4.5405 14.2074C4.58348 15.213 4.62459 16.2168 4.66404 17.2214C4.78732 20.359 4.89968 23.5028 4.99733 26.65C5.01527 26.8384 5.19887 26.9662 5.35 26.9392C7.89269 26.8658 10.4372 26.8026 12.9822 26.7515C13.8957 26.733 14.833 26.7164 15.7483 26.7015C16.6736 26.6866 17.5798 26.6733 18.5075 26.662C18.7893 26.6585 19.0781 26.6551 19.3745 26.652Z" fill="#6A8D52"/>
<path d="M15.32 23.28L15.36 22.56L15.42 22L15.44 21.58V20.86L15.34 20.26L15.32 19.82L15.42 18.58L15.34 18L15.52 17.46L15.56 16.8L15.54 16.22V15.7L15.58 14.94L15.24 14.68L14.7 15.26L14.4 15.66L13.98 16.04L13.4 16.58L13.02 16.98L12.6 17.24L12.12 17.7L11.66 18.04L11.24 18.54L10.76 18.88L10.34 19.38L9.94 19.66L9.36 19.98L8.98 20.44L8.52 20.78L7.98 21.18L6.88 21.9L6.02 22.38L5.98 22.24L6.36 22L7.04 21.32L7.48 21L7.98 20.52L8.52 20.22L8.82 19.88L9.26 19.38L10.1 18.56L10.4 18.16L10.88 17.7L11.14 17.34L11.46 16.72L11.88 16.34L12.2 15.84L12.5 15.3L12.98 14.88L13.56 14.06L13.96 13.5L14.24 13L14.44 12.58L14.84 12.08L14.44 11.58L13.9 11.52L13.38 11.54L12.72 11.6L12.1 11.68L11.58 11.76L10.98 11.88L9.76 11.96H9L8.52 11.6L8.54 11.02L9.06 11L9.72 11.06L10.32 10.98L10.92 10.96L11.6 10.86L12.94 10.98L13.6 10.9H14.1L14.76 10.82L15.44 10.12L15.34 9.46L15.32 8.86L15.24 7.92L15 7.36L15.1 6.92L15.98 6.72L16.78 6.68L17.28 6.86L17.82 7.36L17.7 7.7L17.48 8.18L17.32 9.14L17.28 9.7L17.4 10.64L17.84 10.8L18.34 10.9L18.88 10.8L19.38 10.76L20.8 10.72L21.54 10.68L22.2 9.98L23.16 10.2L23.78 10.54L24.34 11.12L24.14 11.4L24.06 11.58L23.58 11.5L22.94 11.44L22.34 11.48L21.78 11.46L21.12 11.6L20.44 11.44L19.9 11.46L19.36 11.58L18.76 11.56L18.14 11.52L18.16 12.18L18.56 13.18L18.7 13.66L19.08 14.04L19.78 14.96L20.14 15.4L20.5 15.84L21.02 16.3L21.4 16.58L21.98 16.9L22.44 17.26L23.4 18.06L24.02 18.38L24.6 18.56L25.6 19.26L26.24 19.5L25.92 19.64L25.04 19.88L24.48 19.94L23.9 20.24L22.92 20.6L22.32 20.4L21.94 20.02L21.56 19.64L21.12 19.24L20.8 18.78L20.14 17.92L19.82 17.44L19.5 16.92L19.26 16.36L18.88 15.88L18.74 15.28L18.48 14.78L18.36 14.1L18.02 13.54L17.94 13.14L17.68 12.08L17.48 11.66L17.42 11.52L17.36 12.12V12.7L17.28 13.24L17.3 13.8L17.32 14.4L17.24 15L17.26 15.66L17.36 16.1L17.26 16.68L17.3 17.34L17.42 17.9L17.32 18.5L17.4 19.1L17.24 19.76L17.38 20.3L17.3 20.86L17.42 21.36L17.34 22.1L16.78 22.86L16.46 23.38L15.82 24.1L15.56 24.14L15.32 23.88V23.28Z" fill="#FBF6EA"/>
</svg>
