<svg width="32" height="32" viewBox="0 0 32 32" fill="none" xmlns="http://www.w3.org/2000/svg">
<path d="M4 5.35C4 4.60442 4.60442 4 5.35 4H26.65C27.3956 4 28 4.60442 28 5.35V26.65C28 27.3956 27.3956 28 26.65 28H5.35C4.60442 28 4 27.3956 4 26.65V5.35Z" fill="#8A2E1E"/>
<g transform="translate(6.000 23.680) scale(0.020000 -0.020000)">
<path d="M538 -63 541 -31 537 0 539 28V63L542 88L539 118V181L536 214L545 244L540 270L542 299L544 338L536 364L542 396L543 424L538 460L535 494L541 524L532 554L537 586L529 616L531 644L530 684H553L586 673L609 658L643 636L673 639H703L733 642L758 644L819 674L848 695L874 683L906 656L924 639L911 606L895 587L898 555L896 525L891 498L894 471L898 413L890 383L896 354L888 325L893 303L880 240L861 198L853 176L824 155L799 141L767 129L759 143L746 159L722 196L706 215L722 218L751 227L779 263L785 290L791 318L789 355L794 387L787 414L791 449L796 476L794 533L789 561L791 593L777 617H739L712 609L680 605L657 607L632 577V544L625 519L631 492L632 463L631 432L630 397L622 369L624 343L630 311L624 278L625 254L624 219L627 195L628 160L620 106V71L627 36L625 -13L614 -54L601 -78L572 -116L558 -117L550 -104L546 -99ZM120 144 152 155 171 187 172 221 173 251 167 282 173 313 176 337 175 372 169 403 172 427 174 458 169 492 165 523 171 574 159 621 146 637 153 655 168 666 198 659 237 646 285 657 304 676 327 687 345 713 386 747 420 751 455 715 481 691 480 670 452 660 395 642 366 639 342 624 308 615 284 604 246 592 243 562 249 531 243 499 248 466 275 433 341 449 409 462H456L474 441L480 426L449 413L418 410L380 413L356 414L319 405H294L252 401L247 397L241 362V330L248 307L246 274L242 240L251 209V187L275 190L300 197L334 211L362 219L414 231L438 241L482 248L481 240L450 228L400 199L382 185L349 173L321 159L296 142L274 133L245 119L220 104L200 85L172 74L141 49L105 72L81 98L96 136Z" fill="#FBF6EA"/>
</g>
</svg>
