<svg preserveAspectRatio="none" width="100%" height="100%" overflow="visible" style="display: block;" viewBox="0 0 17.2631 18.2047" fill="none" xmlns="http://www.w3.org/2000/svg">
<g id="Ellipse 34" style="mix-blend-mode:multiply">
<path d="M12.2546 3.56597C12.283 3.59162 12.3316 3.63581 12.309 3.63527C12.282 3.63407 12.2279 3.57775 12.1859 3.54589C12.1564 3.51899 12.1169 3.48426 12.1313 3.48199C12.1543 3.47834 12.21 3.52589 12.2546 3.56597ZM0.0398058 9.92276C0.0108262 9.62961 -0.00223124 9.33438 0.000310421 9.03741C0.00405121 8.60475 0.0407965 8.17439 0.110115 7.74625C0.177973 7.3266 0.271479 6.90941 0.413821 6.52024C0.414009 6.51922 0.414318 6.51809 0.414503 6.51707C0.414688 6.51657 0.414868 6.51603 0.415052 6.51554C0.415045 6.51536 0.415125 6.51502 0.415118 6.51484C0.415177 6.51485 0.415236 6.51487 0.415296 6.51488C0.533176 6.19628 0.646016 5.85943 0.780177 5.53709C0.780428 5.53722 0.780557 5.53767 0.780799 5.53781C0.781062 5.53692 0.781315 5.53604 0.78158 5.53516C0.915286 5.2155 1.05364 4.90266 1.20164 4.58946C1.34687 4.28325 1.5355 4.00383 1.72902 3.72784C1.90622 3.47533 2.08121 3.2246 2.24146 2.98083C2.2426 2.97936 2.24373 2.97788 2.24487 2.97642C2.24407 2.9772 2.24328 2.9779 2.24249 2.97869C2.29011 2.89223 2.35646 2.79688 2.43537 2.70704C2.85737 2.22216 3.33746 1.77999 3.86461 1.40054C3.86449 1.40017 3.86423 1.39988 3.86412 1.39949C4.33671 1.06199 4.84746 0.772182 5.3879 0.547496C5.95051 0.31327 6.5449 0.15044 7.1459 0.0645532C7.27348 0.04624 7.40257 0.0359205 7.52931 0.0271229C7.53085 0.0273196 7.53259 0.0274441 7.53414 0.0276306C7.81347 -0.000992417 8.0915 -0.00595891 8.36839 0.00622916C8.41385 0.00822985 8.45918 0.0106958 8.50438 0.013599C8.50387 0.0137388 8.50323 0.0138853 8.50272 0.0140244C8.50405 0.0139198 8.50539 0.0137981 8.50675 0.0136956C9.65079 0.0520474 10.7822 0.382842 11.7584 0.938506C11.8474 0.988872 11.9328 1.04501 12.0161 1.09937C12.327 1.28086 12.6154 1.4953 12.8887 1.72407C13.0423 1.86207 13.1922 2.00299 13.343 2.14832C14.05 2.87162 14.6056 3.71102 14.9847 4.58537C15.0429 4.71952 15.0853 4.84204 15.1285 4.96781C15.123 4.95632 15.1178 4.94478 15.1123 4.9332C15.1157 4.94159 15.119 4.94983 15.1224 4.95816C15.1244 4.96137 15.1264 4.96459 15.1285 4.96781C15.237 5.25358 15.348 5.55453 15.4349 5.85382C15.4472 5.89644 15.4592 5.93918 15.4709 5.98203C15.4745 5.99462 15.4781 6.00722 15.4817 6.01984C15.5338 6.20705 15.5535 6.35628 15.5713 6.5086C15.5714 6.50864 15.5715 6.50866 15.5717 6.50871C15.5746 6.52625 15.581 6.55823 15.5801 6.56089C15.5484 6.58537 15.5559 6.69391 15.5926 6.89241C15.5969 6.91613 15.5958 6.93675 15.5968 6.95867C15.5965 6.95738 15.5961 6.95608 15.5957 6.95478C15.596 6.9561 15.5962 6.95744 15.5964 6.95876C15.619 7.15205 15.6369 7.34996 15.6478 7.54307C15.648 7.54331 15.6482 7.54381 15.6484 7.54404C15.6485 7.54696 15.6485 7.54988 15.6486 7.5528C15.6536 7.57172 15.6588 7.59279 15.6637 7.61178C15.6785 7.68407 15.6872 7.75834 15.6785 7.79619C15.6715 7.82536 15.6749 7.87486 15.676 7.92471C15.6796 8.13904 15.6787 8.15313 15.6397 7.97969C15.6409 7.99915 15.6424 8.01909 15.6441 8.03969C15.6446 8.04291 15.645 8.04627 15.6456 8.04948C15.6599 8.15298 15.6724 8.25602 15.6832 8.35938C15.683 8.35939 15.6829 8.3594 15.6828 8.3594C15.6833 8.368 15.6838 8.3766 15.6843 8.3852C15.6757 8.40733 15.6873 8.58146 15.6609 8.48161C15.6489 8.45222 15.6484 8.51876 15.6421 8.53415C15.6356 8.55004 15.6283 8.56593 15.6254 8.50421C15.6253 8.50444 15.6253 8.50482 15.6252 8.50506C15.6248 8.5042 15.6245 8.50306 15.6241 8.50218C15.6239 8.50854 15.6235 8.51481 15.623 8.52027C15.6131 8.56384 15.6248 8.65734 15.6175 8.70002C15.5844 8.64164 15.5523 8.61997 15.5207 8.61712C15.5211 8.62973 15.5212 8.64229 15.5213 8.6549C15.498 8.75039 15.4656 8.68649 15.4394 8.72711C15.4363 8.73138 15.4327 8.73158 15.4298 8.7421C15.4283 8.75256 15.4263 8.75894 15.4241 8.75695C15.4239 8.75695 15.4238 8.75657 15.4236 8.75655C15.4215 8.7683 15.4191 8.77843 15.417 8.79036C15.4167 8.7885 15.4165 8.78633 15.4162 8.78447C15.4063 8.7537 15.3993 8.68245 15.3869 8.67918C15.3868 8.68052 15.3867 8.68192 15.3866 8.68325C15.3878 8.72468 15.3878 8.76421 15.3816 8.78723C15.3815 8.78657 15.3815 8.78587 15.3814 8.78521C15.3813 8.78521 15.3813 8.78521 15.3812 8.78521C15.3706 8.80629 15.3657 8.854 15.3666 8.92055C15.3677 9.02467 15.3551 9.03744 15.3416 9.03741C15.3416 9.03741 15.3416 9.03741 15.3416 9.03741C15.3416 9.03741 15.3416 9.03741 15.3416 9.03741C15.3416 9.01132 15.3408 8.98713 15.3402 8.96124C15.3401 8.96091 15.3399 8.96077 15.3398 8.96043C15.3399 8.96043 15.34 8.96043 15.3401 8.96043C15.3352 8.93348 15.3302 8.90865 15.3251 8.88184C15.32 8.86122 15.3149 8.84271 15.3097 8.8222C15.3018 8.83274 15.3025 8.90044 15.2927 8.8987C15.2824 8.9603 15.2678 8.93061 15.2542 8.91594C15.2492 8.85227 15.2441 8.78672 15.237 8.72363C15.231 8.67069 15.2164 8.61235 15.2117 8.64916C15.1856 8.83298 15.1759 8.61846 15.1607 8.54116C15.1429 8.51769 15.1701 8.71202 15.1426 8.63195C15.1426 8.63188 15.1426 8.63182 15.1426 8.63175C15.1424 8.63174 15.1422 8.63204 15.1419 8.63199C15.1376 8.61993 15.1334 8.60777 15.129 8.59576C15.1196 8.52497 15.1106 8.44427 15.0905 8.38713C15.0946 8.4958 15.1091 8.583 15.1139 8.67356C15.0976 8.66646 15.0921 8.59189 15.0837 8.53015C15.0465 8.60985 15.0007 8.45187 14.9729 8.23828C14.9728 8.23756 14.9728 8.23685 14.9727 8.23613C14.9681 8.19837 14.9632 8.16069 14.958 8.12312C14.9578 8.12011 14.9575 8.11701 14.9572 8.11399C14.9223 7.96073 14.888 7.79151 14.8476 7.6254C14.847 7.62457 14.8464 7.62349 14.8459 7.62274C14.8436 7.62309 14.8407 7.61956 14.8378 7.61604C14.7988 7.46925 14.7538 7.32517 14.7172 7.15796C14.7148 7.14664 14.7124 7.13537 14.7099 7.12392C14.6757 7.02206 14.6486 6.91324 14.6179 6.80579C14.5328 6.50796 14.432 6.2169 14.3148 5.93156C14.1981 5.6473 14.0645 5.36854 13.9162 5.10076C13.913 5.09563 13.9099 5.0905 13.9068 5.08538C13.9043 5.08103 13.9018 5.07649 13.8991 5.07171C13.9063 5.09326 13.9117 5.11803 13.9223 5.13728C14.0607 5.38628 14.1241 5.60971 14.226 5.86196C14.2266 5.86408 14.2273 5.8664 14.2279 5.86855C14.2728 5.97347 14.3161 6.08102 14.3564 6.18758C14.3566 6.18843 14.3567 6.18919 14.3569 6.19002C14.3571 6.18973 14.3573 6.18952 14.3574 6.18923C14.4067 6.31643 14.3889 6.33937 14.3875 6.38694C14.3868 6.38512 14.3861 6.38319 14.3855 6.38141C14.3858 6.38264 14.3861 6.38383 14.3865 6.38508C14.3868 6.3857 14.3872 6.38632 14.3875 6.38694C14.4048 6.44079 14.4281 6.49437 14.4415 6.5693C14.3774 6.42195 14.3171 6.33301 14.2561 6.24159C14.2503 6.23522 14.244 6.2283 14.237 6.22018C14.2263 6.20775 14.2144 6.19375 14.203 6.17968C14.1696 6.13294 14.1352 6.08203 14.0961 5.99304C14.0971 5.99471 14.0982 5.99638 14.0992 5.99805C14.0569 5.90191 14.023 5.87127 13.9876 5.82834C13.9215 5.74884 13.8588 5.63309 13.8485 5.54836C13.8312 5.40189 13.7384 5.21008 13.6263 5.01589C13.6103 4.98808 13.594 4.96041 13.5777 4.93288C13.5742 4.9281 13.5708 4.92337 13.5673 4.91857C13.5234 4.85616 13.4946 4.79419 13.4579 4.73322C13.452 4.72386 13.4462 4.71452 13.4403 4.70519C13.3271 4.53665 13.2074 4.37346 13.0809 4.21547C13.081 4.21537 13.0811 4.21527 13.0813 4.21517C13.0807 4.21476 13.0803 4.21447 13.0797 4.21403C13.0187 4.14672 12.9579 4.08243 12.906 4.00791C12.9059 4.00785 12.9059 4.0078 12.9059 4.00774C12.8823 3.97923 12.8583 3.95123 12.8356 3.92453C12.8355 3.92426 12.8355 3.92398 12.8354 3.92371C12.8345 3.92314 12.8336 3.92249 12.8327 3.92193C12.7275 3.80496 12.671 3.69221 12.5347 3.57566C12.4451 3.50001 12.3504 3.41668 12.2607 3.32867C11.9878 3.09557 11.8517 3.04308 11.7767 3.09595C11.7516 3.11347 11.6958 3.09914 11.618 3.06816C11.6022 3.05718 11.5867 3.04587 11.5709 3.03485C11.5637 3.03137 11.5561 3.02764 11.5481 3.02356C11.3442 2.88335 11.3179 2.85837 11.3537 2.80648C11.3733 2.7765 11.3471 2.71894 11.4005 2.70739C11.4237 2.7022 11.3619 2.65446 11.323 2.6225C11.2829 2.58859 11.2332 2.55231 11.279 2.55562C11.3595 2.57457 11.4526 2.67116 11.53 2.68999C11.53 2.68997 11.53 2.68994 11.53 2.68992C11.4914 2.65449 11.4295 2.61548 11.3708 2.57739C11.2146 2.47633 11.0611 2.43367 10.9018 2.34646C10.888 2.33785 10.8778 2.33057 10.8699 2.32423C10.7485 2.24177 10.7467 2.2205 10.8885 2.25687C11.0324 2.29628 11.1313 2.2826 11.3382 2.40978C11.3387 2.41022 11.3391 2.41066 11.3396 2.4111C11.7636 2.64324 12.1592 2.93385 12.5002 3.28053C12.7278 3.51138 12.9582 3.75016 13.1694 4.00429C13.3352 4.20393 13.4882 4.41176 13.623 4.63253C13.6262 4.63626 13.6295 4.64051 13.6328 4.64502C13.6361 4.64972 13.6395 4.65443 13.6428 4.65914C13.6434 4.65694 13.6439 4.65473 13.6444 4.65253C13.648 4.61622 13.5854 4.53365 13.5474 4.4751C13.404 4.2519 13.2469 4.03889 13.0783 3.83216C13.0759 3.83003 13.0736 3.82803 13.0713 3.82584C12.7622 3.46993 12.424 3.14206 12.0608 2.8502C12.0538 2.84441 12.0467 2.83868 12.0396 2.83294C11.9564 2.77017 11.8724 2.70944 11.786 2.6507C11.7864 2.65117 11.7869 2.65175 11.7873 2.65221C11.7867 2.65182 11.7861 2.65142 11.7856 2.65103C11.6755 2.58567 11.5673 2.5175 11.4612 2.44729C11.3636 2.39458 11.2712 2.33025 11.1772 2.27506C11.1528 2.26074 11.1287 2.24388 11.1043 2.22777C11.0298 2.18969 10.9532 2.15534 10.8752 2.12493C10.415 1.90371 9.93179 1.73108 9.42915 1.64897C9.42805 1.64829 9.42733 1.64762 9.42631 1.64696C9.42546 1.64716 9.42438 1.64729 9.42355 1.6475C9.38535 1.64085 9.34688 1.63456 9.3088 1.62873C9.30831 1.62864 9.30784 1.62851 9.30735 1.62841C9.30909 1.62887 9.31083 1.62934 9.31257 1.6298C8.99973 1.58284 8.68486 1.56066 8.36839 1.56359C7.56829 1.57024 6.77456 1.74294 6.04696 2.07482C5.78768 2.19286 5.5378 2.33152 5.29791 2.48666C5.29659 2.48464 5.29346 2.48383 5.29064 2.48278C5.28242 2.48747 5.27422 2.492 5.26593 2.49635C5.18556 2.54749 5.10635 2.60116 5.02869 2.65675C4.88018 2.76449 4.7368 2.87968 4.59614 2.99771C4.49984 3.08061 4.4065 3.16561 4.31427 3.25337C3.95473 3.63485 3.61241 4.03706 3.32106 4.47668C3.3078 4.4979 3.28958 4.52273 3.28211 4.5409C3.17093 4.82488 2.97552 5.0848 2.8439 5.36727C2.79415 5.4737 2.74236 5.57634 2.70194 5.68667C2.61625 5.92186 2.51304 6.13806 2.41402 6.33469C2.33714 6.48708 2.28654 6.65097 2.23615 6.81909C2.23672 6.81859 2.23729 6.81809 2.23786 6.81759C2.18668 7.03407 2.1255 7.27655 2.06705 7.43817C1.92757 7.82186 1.92992 8.25109 1.88416 8.65448C1.86958 8.77978 1.86306 8.90783 1.86238 9.03741C1.8608 9.32757 1.88879 9.61815 1.91729 9.90547C1.92375 9.96413 1.93081 10.0226 1.93844 10.0808C1.93797 10.0807 1.93749 10.0806 1.93703 10.0806C1.96717 10.3294 2.04545 10.5579 2.09393 10.8019C2.09498 10.8046 2.09598 10.8073 2.09702 10.81C2.0966 10.8078 2.09612 10.8057 2.09571 10.8035C2.12236 10.7364 2.07813 10.6282 2.06957 10.5385C2.06985 10.528 2.06896 10.5171 2.06769 10.506C2.06804 10.5157 2.06836 10.5265 2.06885 10.5386C2.02942 10.3306 1.99762 10.1193 1.97384 9.90768C2.02688 10.0337 2.0396 10.1932 2.08337 10.3557C2.07734 10.2668 2.07367 10.1997 2.07031 10.0978C2.11583 10.2631 2.14481 10.4122 2.199 10.5162C2.19883 10.5164 2.19862 10.5164 2.19845 10.5165C2.19892 10.5169 2.1994 10.5175 2.19987 10.518C2.19957 10.5174 2.19929 10.5168 2.199 10.5162C2.19928 10.516 2.19955 10.5156 2.19983 10.5153C2.20002 10.5163 2.20021 10.5173 2.20039 10.5182C2.20066 10.5185 2.20095 10.5188 2.20122 10.519C2.21338 10.5799 2.22624 10.6406 2.23972 10.7009C2.24348 10.7119 2.24561 10.7212 2.24808 10.7324C2.24829 10.7333 2.24845 10.7343 2.24866 10.7353C2.25179 10.7347 2.25587 10.7372 2.26097 10.7434C2.27147 10.7906 2.28234 10.8374 2.29365 10.8843C2.33402 10.9792 2.35272 11.0802 2.37205 11.1791C2.55669 11.8353 2.8239 12.4648 3.16842 13.0446C3.15758 13.0228 3.14636 13.001 3.13512 12.9792C3.00464 12.7468 2.87982 12.5095 2.78544 12.2618C2.74637 12.1451 2.65594 12.0019 2.69426 11.9165C2.70302 11.9273 2.71183 11.938 2.72135 11.9504C2.93136 12.4595 3.19425 12.9434 3.49482 13.3968C3.49426 13.3965 3.4937 13.3961 3.49314 13.3957C3.4933 13.402 3.49203 13.4073 3.49206 13.4135C3.51814 13.4552 3.54065 13.4948 3.54508 13.5361C3.50144 13.5187 3.45901 13.4456 3.41782 13.4142C3.39075 13.3937 3.35412 13.3437 3.3403 13.3591C3.32329 13.379 3.36566 13.4324 3.38839 13.4743C3.388 13.4746 3.38761 13.4748 3.38722 13.4751C3.38774 13.4755 3.38826 13.4759 3.38879 13.4763C3.38984 13.4748 3.3909 13.4734 3.39196 13.4719C3.52473 13.6951 3.53772 13.7243 3.47031 13.8095C3.44678 13.8386 3.49504 13.9014 3.51013 13.9409C3.25985 13.7017 3.04213 13.4094 2.87627 13.0728C2.90932 13.1515 2.94331 13.2292 2.97898 13.3071C2.98163 13.3123 2.98437 13.3175 2.98694 13.3226C2.98628 13.3216 2.98561 13.3205 2.98494 13.3194C2.99046 13.3298 2.99542 13.3405 3.00038 13.3513C3.01903 13.3815 3.03691 13.4102 3.05535 13.4402C3.059 13.4446 3.06268 13.449 3.06635 13.4534C3.08257 13.4802 3.11568 13.5309 3.1145 13.5317C3.0516 13.5856 3.18154 13.7262 3.23953 13.8196C3.51151 14.2686 3.89043 14.6444 4.27515 14.9948C4.5444 15.24 4.83263 15.4682 5.15561 15.6355C5.33906 15.731 5.52589 15.8426 5.70108 15.9606C5.75134 15.9945 5.81 16.0247 5.8675 16.0531C5.93417 16.085 5.99158 16.0948 6.00939 16.069C6.0302 16.0411 5.96246 16.0141 5.91568 15.9873C5.80043 15.9216 5.68111 15.8611 5.56261 15.7977C5.456 15.7407 5.34539 15.6816 5.25447 15.6045C5.24717 15.6 5.23982 15.5954 5.23254 15.5908C4.99323 15.4077 4.71404 15.2433 4.52204 15.0115C4.75891 15.1831 4.99111 15.361 5.23562 15.5158C5.23653 15.5167 5.23744 15.5176 5.23835 15.5184C5.24259 15.5211 5.24686 15.5237 5.2511 15.5264C5.24962 15.5243 5.24784 15.5221 5.24642 15.5199C5.52078 15.6588 5.8026 15.771 6.08993 15.8705C6.21508 15.9139 6.34469 15.9681 6.47004 16.0194C6.83445 16.1672 7.21395 16.2751 7.59799 16.3538C7.8024 16.3955 7.98862 16.4693 8.21891 16.4575C8.22312 16.4582 8.22752 16.4587 8.23175 16.4593C8.27719 16.4599 8.32273 16.46 8.36839 16.4596C8.59475 16.4573 8.81923 16.4416 9.04185 16.4124C9.04235 16.4127 9.04306 16.4129 9.04361 16.4132C9.41679 16.3749 9.78511 16.2824 10.1465 16.1836C10.1515 16.1822 10.1566 16.1806 10.1616 16.1792C10.1789 16.1733 10.1945 16.1678 10.2113 16.161C10.2113 16.161 10.2112 16.161 10.2111 16.161C10.3127 16.1032 10.4577 16.0633 10.5078 15.9782C10.5081 15.9777 10.5086 15.9773 10.5088 15.9768C10.4081 16.0163 10.3042 16.0657 10.1973 16.0699C10.4297 15.9833 10.6442 15.8621 10.8746 15.7661C10.8747 15.7661 10.8747 15.7661 10.8748 15.7661C10.9489 15.7291 11.0135 15.706 11.0237 15.7528C11.0332 15.7946 10.9667 15.8315 10.9046 15.8639C10.8709 15.8811 10.8363 15.8964 10.8029 15.9145C10.7447 15.9468 10.6392 15.9747 10.639 16.0075C10.6401 16.053 10.7535 15.9889 10.8102 15.9836C10.8114 15.9833 10.8127 15.983 10.8139 15.9827C10.8088 15.9851 10.8036 15.9874 10.7984 15.9898C10.8027 15.9885 10.807 15.9871 10.8113 15.9859C10.8216 15.9809 10.8327 15.9775 10.8451 15.9724C10.8496 15.9706 10.8542 15.9688 10.8587 15.967C10.8545 15.968 10.8503 15.969 10.8462 15.9699C10.9958 15.8975 11.1734 15.8244 11.2786 15.7303C11.5672 15.4694 11.9061 15.3216 12.1925 15.0752C12.2439 15.0313 12.3186 14.9537 12.3606 14.9771C12.4027 15.0007 12.35 15.0791 12.3119 15.1461C12.2956 15.1755 12.1896 15.2423 12.2768 15.2329C12.2773 15.2325 12.2778 15.2321 12.2783 15.2316C12.2755 15.234 12.2727 15.2364 12.2699 15.2388C12.273 15.2369 12.2762 15.2348 12.2793 15.2329C12.3397 15.1819 12.3977 15.1323 12.4567 15.08C12.4566 15.0793 12.4564 15.0787 12.4563 15.0779C12.4719 15.0568 12.4859 15.0369 12.5013 15.0157C12.6587 15.0288 12.8317 14.8337 12.9898 14.6939C12.8598 14.8349 12.7237 14.9714 12.5826 15.1018C12.5825 15.1026 12.5824 15.1035 12.5823 15.1044C12.5819 15.1039 12.5815 15.1035 12.5812 15.1031C12.5636 15.1205 12.5459 15.1378 12.5281 15.155C12.5237 15.1892 12.5582 15.1769 12.592 15.1659C12.6633 15.0931 12.7372 15.0275 12.8119 14.9631C12.8552 14.9163 12.8971 14.8683 12.9372 14.8187C12.9709 14.7897 13.0049 14.7688 13.0387 14.7476C13.0476 14.7393 13.0564 14.7309 13.066 14.7205C13.1044 14.6979 13.1314 14.6562 13.1643 14.6229C13.1988 14.5878 13.2361 14.5268 13.2647 14.5486C13.2853 14.5636 13.2742 14.605 13.2415 14.6529C13.1595 14.7729 13.0798 14.892 12.9751 15.0043C12.9025 15.0822 12.8319 15.1598 12.7657 15.2388C12.8603 15.1543 12.9506 15.064 13.0511 15.0385C13.1724 14.9263 13.288 14.8111 13.402 14.6911C13.4796 14.6308 13.5296 14.5307 13.6037 14.4717C13.6524 14.4729 13.5407 14.5775 13.587 14.5774C13.6222 14.5789 13.6624 14.5183 13.6994 14.4912C13.7434 14.4371 13.7862 14.3843 13.829 14.3288C13.9218 14.2199 13.9994 14.0968 14.0854 13.9829C14.2196 13.8129 14.3653 13.6655 14.4769 13.4686C14.5024 13.4363 14.5269 13.4033 14.552 13.3705C14.5717 13.3495 14.5983 13.3077 14.6017 13.3486C14.6003 13.3487 14.599 13.3487 14.5976 13.3488C14.5246 13.4836 14.4482 13.6143 14.3662 13.7464C14.1506 14.0927 13.91 14.4248 13.6475 14.738C13.6115 14.7808 13.5878 14.8312 13.5637 14.8759C13.5382 14.9221 13.5442 14.9626 13.5784 14.9347C13.7197 14.8144 13.8437 14.8152 13.9951 14.615C14.1388 14.4227 14.2786 14.2253 14.4023 14.0175C14.4283 13.9743 14.454 13.9308 14.4819 13.8913C14.518 13.8388 14.5549 13.807 14.5821 13.8155C14.5964 13.8211 14.5982 13.8377 14.5919 13.8605C14.6588 13.7537 14.7308 13.6456 14.8367 13.5452C14.7681 13.6688 14.6975 13.7892 14.6229 13.9096C14.6234 13.9093 14.6239 13.909 14.6244 13.9087C14.5834 13.9832 14.527 14.0524 14.4834 14.1675C14.5638 14.0683 14.6424 13.9671 14.7191 13.8636C14.7343 13.8386 14.7492 13.8138 14.764 13.7888C14.8982 13.61 14.9726 13.4001 15.0808 13.2065C15.1485 13.0845 15.2121 12.9595 15.2734 12.834C15.3602 12.6392 15.3844 12.4321 15.4868 12.2376C15.5187 12.1756 15.5504 12.1129 15.582 12.0508C15.6101 11.9304 15.6389 11.8126 15.7085 11.7042C15.7086 11.7051 15.7086 11.7059 15.7087 11.7068C15.7164 11.6731 15.7239 11.6394 15.7312 11.6056C15.7524 11.5373 15.7728 11.4686 15.7925 11.3996C15.8407 11.4836 15.7632 11.607 15.7419 11.7114C15.7355 11.7386 15.729 11.7657 15.7224 11.7927C15.7219 11.7941 15.7214 11.7956 15.7208 11.7971C15.7217 11.7957 15.7225 11.7943 15.7233 11.793C15.692 12.023 15.5832 12.2393 15.4922 12.4398C15.3338 12.7871 15.2181 13.1253 15.0731 13.4675C15.2176 13.1958 15.3485 12.9163 15.4647 12.6324C15.4646 12.631 15.4646 12.6294 15.4645 12.628C15.554 12.4136 15.6171 12.1921 15.7099 11.9804C15.7163 11.9665 15.7226 11.9525 15.7289 11.9385C15.7985 11.7422 15.8617 11.5405 15.9203 11.3399C15.9333 11.2963 15.94 11.1999 15.9777 11.2294C16.0025 11.249 16.0145 11.2919 15.9747 11.374C15.9213 11.4836 15.9037 11.5975 15.8952 11.7121C15.8597 11.8573 15.8204 11.9996 15.778 12.1432C15.7444 12.1877 15.7241 12.2483 15.7012 12.3057C15.6321 12.4961 15.5566 12.6871 15.476 12.8733C15.4762 12.8735 15.4763 12.8739 15.4766 12.8741C15.4509 12.9212 15.424 12.9691 15.3971 13.0161C15.3943 13.0394 15.3923 13.0622 15.3912 13.0846C15.3833 13.1187 15.371 13.1612 15.3514 13.1874C15.2286 13.3513 15.1611 13.5295 15.082 13.7066C15.0979 13.6885 15.1138 13.67 15.129 13.6598C15.1397 13.6927 15.0938 13.7551 15.0872 13.795C15.087 13.7975 15.0867 13.8001 15.0865 13.8026C15.1259 13.7535 15.1632 13.7025 15.1987 13.6497C15.2039 13.6341 15.2086 13.619 15.2125 13.6049C15.2956 13.448 15.3723 13.286 15.4657 13.1388C15.4919 13.0924 15.5173 13.0453 15.5425 13.0013C15.5552 12.9728 15.5677 12.9441 15.5803 12.9155C15.5806 12.9156 15.5809 12.9157 15.5811 12.9158C15.5775 12.9329 15.5695 12.9496 15.5625 12.9667C15.5644 12.9634 15.5664 12.9602 15.5683 12.9571C15.5736 12.9433 15.5782 12.9296 15.5811 12.9158C15.5868 12.9006 15.5907 12.8872 15.5963 12.8721C15.6006 12.8551 15.6048 12.838 15.609 12.821C15.6365 12.7195 15.677 12.6222 15.7277 12.5278C15.7364 12.5122 15.7452 12.4964 15.7538 12.481C15.7765 12.4574 15.8 12.4338 15.8226 12.4098C15.8268 12.4113 15.8313 12.4121 15.8359 12.4124C15.9285 12.2152 16.0352 12.0349 16.0978 11.8101C16.1092 11.7792 16.1205 11.7482 16.1317 11.7172C16.1488 11.6775 16.1658 11.6378 16.1825 11.5978C16.2041 11.5575 16.2158 11.4806 16.2486 11.4862C16.2491 11.4868 16.2495 11.4876 16.25 11.4882C16.2853 11.3957 16.3343 11.3655 16.3738 11.2944C16.3775 11.2881 16.381 11.2814 16.3846 11.2746C16.3807 11.2812 16.3768 11.2877 16.3729 11.2942C16.381 11.2646 16.3884 11.2373 16.3961 11.2075C16.4273 11.1465 16.4575 11.0824 16.489 11.023C16.527 10.9502 16.5645 10.9227 16.5965 10.9482C16.6308 10.9766 16.598 11.0664 16.5867 11.1303C16.5759 11.1969 16.5645 11.2706 16.5821 11.2966C16.6228 11.362 16.5732 11.4515 16.5466 11.5346C16.5131 11.6338 16.4638 11.7329 16.4292 11.7063C16.3707 11.6628 16.3022 11.743 16.2335 11.8083C16.2321 11.8199 16.2306 11.8315 16.2293 11.8426C16.2268 11.8863 16.2121 11.9341 16.2014 11.9804C16.1797 12.0662 16.1422 12.1416 16.1125 12.2247C16.1492 12.2108 16.1605 12.2485 16.1404 12.345C16.1552 12.3337 16.1679 12.3391 16.1825 12.3323C16.1941 12.3159 16.2055 12.2943 16.2163 12.2826C16.2584 12.2352 16.3012 12.0854 16.3277 12.1161C16.3423 12.1333 16.3426 12.167 16.3352 12.2082C16.3477 12.2456 16.3353 12.3168 16.3095 12.393C16.3067 12.4012 16.3036 12.4092 16.3006 12.4174C16.3318 12.3405 16.3589 12.258 16.3941 12.1899C16.4381 12.1155 16.4812 12.0365 16.5142 12.0325C16.5305 12.0074 16.5473 11.9832 16.5648 11.9606C16.6273 11.8939 16.6644 11.9059 16.6714 12.0089C16.6687 12.0212 16.6659 12.0336 16.6629 12.0459C16.7034 12.0274 16.7016 12.0868 16.6813 12.1783C16.6557 12.2954 16.6086 12.4121 16.5769 12.5283C16.5459 12.6238 16.4966 12.7168 16.487 12.8098C16.4373 12.9497 16.3954 13.0929 16.3164 13.2203C16.3153 13.2207 16.3143 13.2209 16.3132 13.2213C16.3133 13.2223 16.3133 13.2235 16.3135 13.2244C16.2398 13.3467 16.2126 13.2758 16.1569 13.3216C16.155 13.3239 16.1531 13.3264 16.1512 13.3287C16.1178 13.4001 16.0837 13.4711 16.0487 13.5415C16.0554 13.8943 15.7788 14.2105 15.5364 14.5579C15.5567 14.4525 15.5589 14.389 15.6191 14.2835C15.6196 14.2833 15.6201 14.2827 15.6206 14.2825C15.6221 14.2796 15.6236 14.2767 15.6251 14.2738C15.6231 14.277 15.6211 14.2803 15.6191 14.2835C15.7452 14.0176 15.9081 13.7553 16.0177 13.4778C16.0178 13.477 16.0179 13.4762 16.0179 13.4753C16.0464 13.3989 16.1096 13.3157 16.0988 13.2326C15.9119 13.5533 15.6819 13.7936 15.5204 14.1667C15.5202 14.1675 15.5201 14.1683 15.5199 14.1691C15.519 14.1712 15.5181 14.1733 15.5172 14.1753C15.4622 14.3333 15.321 14.4827 15.2604 14.6393C15.2608 14.6393 15.261 14.6395 15.2614 14.6396C15.2804 14.6226 15.3088 14.5882 15.319 14.5889C15.3393 14.5872 15.3155 14.6277 15.2967 14.6508C15.1619 14.8203 15.0547 15.0331 14.875 15.1566C14.7535 15.2408 14.6365 15.469 14.7132 15.4878C14.8126 15.5102 14.6984 15.6093 14.6082 15.7008C14.4793 15.8321 14.3413 15.9293 14.2057 16.031C14.2045 16.0318 14.2033 16.0325 14.2021 16.0333C14.1837 16.0498 14.1618 16.0732 14.1515 16.0765C14.0154 16.1164 13.8752 16.2011 13.6988 16.3703C13.8171 16.2449 13.9054 16.1153 14.0455 16.0117C14.0459 16.0114 14.0463 16.0111 14.0467 16.0108C14.0489 16.0092 14.0512 16.0076 14.0535 16.0059C14.0607 16.0006 14.0681 15.9953 14.0756 15.9903C14.0758 15.99 14.0761 15.9896 14.0763 15.9893C14.0769 15.989 14.0776 15.9887 14.0782 15.9884C14.1146 15.9413 14.1506 15.8951 14.1972 15.8318C14.1063 15.8713 14.0302 15.972 13.9539 16.0144C13.9564 16.012 13.9589 16.0096 13.9613 16.0071C13.9592 16.0088 13.9571 16.0105 13.9551 16.0121C13.8032 16.1458 13.6429 16.222 13.4856 16.3651C13.4858 16.3653 13.486 16.3655 13.4861 16.3657C13.4047 16.4247 13.3218 16.4828 13.2275 16.5451C13.2492 16.4788 13.2666 16.4161 13.285 16.3519C13.2679 16.364 13.2508 16.376 13.2336 16.3879C12.9781 16.5682 12.7344 16.7624 12.4712 16.938C12.3042 17.05 12.1409 17.1977 11.9412 17.2399C11.9327 17.2423 11.9241 17.2446 11.9154 17.2465C11.8609 17.2886 11.8069 17.3332 11.7246 17.354C11.7619 17.2937 11.8762 17.266 11.9507 17.1905C11.7696 17.2878 11.5846 17.3777 11.3958 17.4602C11.3956 17.4597 11.3953 17.4592 11.3951 17.4587C11.3914 17.4585 11.3875 17.4584 11.3835 17.4583C11.3787 17.4607 11.3738 17.463 11.3691 17.4654C10.7009 17.7181 10.048 17.9836 9.33296 18.0682C9.30266 18.0816 9.26712 18.0954 9.2276 18.0962C8.92464 18.1022 8.65374 18.1513 8.36839 18.1695C8.30068 18.1738 8.23256 18.1762 8.16372 18.1757C8.09599 18.1834 8.02415 18.1843 7.95241 18.1814C7.846 18.2018 7.7372 18.2206 7.57533 18.1836C7.57528 18.1833 7.57523 18.183 7.57518 18.1827C7.25579 18.1637 6.93698 18.1236 6.62179 18.0626C6.69512 18.0921 6.76832 18.1204 6.84269 18.1478C6.5085 18.1314 6.25683 18.0236 6.05283 17.8765C6.04314 17.8724 6.03346 17.8684 6.02379 17.8643C5.87876 17.805 5.7339 17.7701 5.59476 17.7242C5.18816 17.5891 4.81167 17.3901 4.47935 17.1369C4.43615 17.1135 4.39248 17.0851 4.34968 17.0669C4.2595 17.0209 4.23105 17.0296 4.26484 17.0954C4.06615 16.9485 3.87673 16.8186 3.68516 16.6887C3.64646 16.6626 3.60054 16.63 3.5708 16.6005C3.52807 16.5576 3.48483 16.515 3.44162 16.4727C3.38617 16.4296 3.31976 16.3626 3.27152 16.3185C2.91768 15.9972 2.59825 15.6492 2.29009 15.2974C2.22394 15.2077 2.16268 15.1185 2.09742 15.0293C2.06773 14.9887 2.03914 14.9475 2.00887 14.9113C2.01604 14.9317 2.02314 14.9514 2.03011 14.9708C2.06242 15.0102 2.09493 15.0501 2.12648 15.0919C2.15344 15.1319 2.18118 15.1711 2.20622 15.2098C2.24197 15.2648 2.27519 15.3221 2.25322 15.3307C2.22956 15.3408 2.184 15.2804 2.14374 15.2286C1.81992 14.8153 1.5398 14.371 1.28259 13.9195C1.00278 13.3972 0.77619 12.8516 0.581572 12.3021C0.563334 12.2467 0.543071 12.1905 0.524634 12.1349C0.469508 11.972 0.417916 11.8053 0.371509 11.6394C0.342326 11.5337 0.319688 11.4307 0.29121 11.5239C0.268944 11.5963 0.243773 11.4884 0.224615 11.3986C0.224672 11.3978 0.224728 11.397 0.224785 11.3962C0.224967 11.3961 0.225185 11.3961 0.225368 11.396C0.215184 11.3512 0.20545 11.3069 0.195963 11.2624C0.196402 11.256 0.196184 11.2486 0.195797 11.2411C0.195291 11.2471 0.194925 11.2533 0.194827 11.26C0.18891 11.2294 0.177264 11.1853 0.178207 11.1679C0.202777 10.9329 0.138516 10.6643 0.108012 10.3985C0.107988 10.3982 0.107963 10.398 0.107938 10.3978C0.0793166 10.2437 0.0419568 10.0976 0.0393149 9.92537C0.0395858 9.92498 0.0397955 9.92422 0.0400563 9.92367C0.0399648 9.92344 0.0398983 9.923 0.0398058 9.92276ZM2.7024 6.3225C2.72438 6.24325 2.76959 6.23012 2.80383 6.19928C2.82451 6.1813 2.8418 6.18402 2.86109 6.17561C2.86097 6.17601 2.86083 6.17642 2.86072 6.17682C2.86063 6.17696 2.86056 6.17716 2.86048 6.1773C2.86048 6.17737 2.86048 6.17743 2.86047 6.17749C2.86054 6.17727 2.86066 6.17704 2.86072 6.17682C2.87272 6.15589 2.88492 6.13313 2.89709 6.11242C2.919 6.07759 2.94352 6.03041 2.95604 6.06104C2.95596 6.07676 2.95146 6.10646 2.9572 6.10683C3.03094 6.12262 2.97573 6.23904 2.9187 6.36275C2.91856 6.36182 2.91831 6.36104 2.91812 6.3601C2.91793 6.36212 2.91783 6.36409 2.91753 6.36627C2.90158 6.40859 2.88595 6.45118 2.87127 6.49415C2.86114 6.50796 2.84685 6.5357 2.84097 6.53385C2.79275 6.52338 2.74897 6.57526 2.71141 6.72664C2.70434 6.75707 2.68894 6.76413 2.68206 6.74673C2.71391 6.63724 2.71381 6.54844 2.72932 6.45168C2.7295 6.4511 2.72968 6.45053 2.72986 6.44995C2.7354 6.43032 2.74101 6.41068 2.7467 6.39112C2.74702 6.39025 2.74739 6.38945 2.74771 6.3886C2.74756 6.38887 2.74741 6.38913 2.74726 6.3894C2.73785 6.35072 2.67847 6.41084 2.7024 6.3225ZM3.44561 12.6416C3.40851 12.5809 3.35751 12.4952 3.37448 12.4668C3.39747 12.4276 3.43582 12.5349 3.4699 12.5706C3.4715 12.5744 3.47311 12.5782 3.47473 12.582C3.47703 12.5861 3.47933 12.5902 3.48164 12.5943C3.48184 12.5942 3.48204 12.5941 3.48225 12.594C3.49108 12.6374 3.5486 12.7106 3.51613 12.7225C3.50215 12.7282 3.46792 12.6782 3.44561 12.6416ZM3.34359 4.88744C3.42129 4.76057 3.48517 4.63248 3.57846 4.55694C3.57914 4.55652 3.57976 4.55627 3.58041 4.55587C3.67372 4.46492 3.62614 4.57925 3.6101 4.61909C3.56642 4.72709 3.51987 4.7429 3.48044 4.75237C3.481 4.75159 3.48158 4.75082 3.48215 4.75004C3.48139 4.75074 3.48066 4.7513 3.47991 4.75202C3.48008 4.75214 3.48026 4.75225 3.48044 4.75237C3.43686 4.80106 3.38993 4.87864 3.34359 4.88744ZM6.17155 2.29197C6.21164 2.25188 6.27885 2.22233 6.34735 2.2021C6.36637 2.19635 6.38477 2.19379 6.39912 2.19078C6.3936 2.20765 6.36441 2.22101 6.34207 2.23289C6.28868 2.26096 6.24117 2.30165 6.17914 2.3092C6.16778 2.31033 6.16318 2.30003 6.17155 2.29197ZM2.67961 5.81316C2.73472 5.66129 2.79013 5.51 2.88357 5.38494C2.94024 5.30852 2.9771 5.21726 3.01774 5.12356C3.096 4.9404 3.194 4.76335 3.31665 4.60746C3.31648 4.61653 3.31094 4.62644 3.30091 4.63577C3.23114 4.76915 3.16479 4.90597 3.10374 5.04293C3.10755 5.04509 3.11136 5.04725 3.11517 5.04941C3.18075 4.92901 3.25036 4.80924 3.32254 4.69268C3.32408 4.69065 3.32563 4.68847 3.32716 4.68644C3.32548 4.68837 3.32375 4.69048 3.32206 4.69236C3.38773 4.58177 3.45513 4.48074 3.47847 4.37653C3.49725 4.27764 3.75462 3.96077 3.84908 3.90972C3.89976 3.8807 3.94561 3.83107 3.99481 3.77346C4.00143 3.7667 4.00933 3.75852 4.01598 3.75181C4.20965 3.52333 4.42617 3.31537 4.66248 3.13404C4.56695 3.23533 4.45361 3.33976 4.39709 3.4426C4.38449 3.45589 4.37194 3.46924 4.35944 3.48265C4.32141 3.52263 4.28348 3.56288 4.25721 3.60571C4.25082 3.61773 4.24448 3.62978 4.23818 3.64184C4.1871 3.69339 4.17485 3.72273 4.17346 3.75689C4.16927 3.81876 4.08741 3.91334 4.02859 3.94559C3.88034 4.02517 3.7454 4.21778 3.61562 4.37547C3.57409 4.42545 3.53506 4.48565 3.49704 4.54546C3.4844 4.56505 3.47185 4.58472 3.45938 4.60447C3.43377 4.6438 3.40844 4.68353 3.38376 4.72311C3.38313 4.72357 3.3825 4.72404 3.38188 4.7245C3.38216 4.72458 3.38251 4.72457 3.3828 4.72466C3.28161 4.82863 3.20081 4.96861 3.1315 5.11487C3.13552 5.10492 3.13952 5.09502 3.14357 5.08516C3.1392 5.09498 3.13497 5.10479 3.13094 5.11456C3.07296 5.22915 3.00838 5.34624 2.98455 5.46048C2.96961 5.49215 2.9541 5.52558 2.93903 5.55736C2.93891 5.5581 2.93876 5.55888 2.93865 5.55963C2.88579 5.634 2.8489 5.64643 2.84724 5.58728C2.84362 5.45161 2.79096 5.57112 2.74078 5.68079C2.72084 5.72425 2.70274 5.77083 2.67961 5.81316ZM6.39965 2.19067C6.39947 2.19071 6.3993 2.19074 6.39912 2.19078C6.39918 2.1906 6.39941 2.19036 6.39946 2.19018C6.39953 2.19035 6.39959 2.19051 6.39965 2.19067ZM2.45623 6.54258C2.49018 6.38497 2.54291 6.23167 2.60655 6.08414C2.61163 6.07381 2.61563 6.06299 2.62027 6.05046C2.62007 6.05038 2.61986 6.0503 2.61966 6.05022C2.63711 6.02424 2.65492 5.99447 2.67169 5.9746C2.69578 5.94528 2.74344 5.83833 2.737 5.91937C2.73255 5.97288 2.76489 6.0337 2.6818 6.1412C2.65446 6.17745 2.62474 6.22484 2.60196 6.28487C2.55793 6.37146 2.54452 6.44949 2.55278 6.51181C2.55826 6.5514 2.55765 6.59016 2.539 6.65123C2.41302 6.83379 2.39889 6.82406 2.45623 6.54258ZM6.71071 1.97408C7.06661 1.83624 7.44364 1.74532 7.82223 1.73003C7.4444 1.78989 7.07594 1.878 6.71071 1.97408ZM2.61204 11.6624C2.5514 11.6433 2.53504 11.5341 2.5309 11.4767C2.52504 11.4036 2.53163 11.3257 2.59383 11.3987C2.59791 11.4092 2.60268 11.4194 2.60688 11.4278C2.68896 11.6439 2.69301 11.6529 2.61204 11.6624ZM10.6735 2.02755C10.6769 2.02915 10.6804 2.03071 10.684 2.03227C10.6805 2.03069 10.677 2.02913 10.6735 2.02755ZM2.70545 5.49053C2.70619 5.49734 2.70519 5.50736 2.70279 5.5199C2.71021 5.50258 2.71308 5.48956 2.71455 5.47772C2.71176 5.48218 2.70875 5.48646 2.70545 5.49053ZM8.89173 16.3396C8.78389 16.374 8.67041 16.4108 8.55247 16.3805C8.52059 16.3723 8.46498 16.3637 8.49401 16.3402C8.51212 16.3243 8.55809 16.3264 8.59494 16.3284C8.694 16.3344 8.79329 16.3378 8.89344 16.3385C8.89287 16.3389 8.8923 16.3392 8.89173 16.3396ZM2.8247 12.842C2.84167 12.8728 2.85555 12.9119 2.87205 12.9308C2.85812 12.8998 2.84222 12.8702 2.8247 12.842ZM11.9874 15.0813C11.867 15.2561 11.6773 15.4103 11.4476 15.5034C11.6509 15.3467 11.7857 15.1811 11.9874 15.0813ZM2.78401 12.8003C2.79371 12.8028 2.80205 12.8096 2.80972 12.8191C2.79948 12.8038 2.78883 12.789 2.77776 12.7746C2.77972 12.781 2.78114 12.7877 2.78181 12.7944C2.78251 12.7963 2.7833 12.7984 2.78401 12.8003ZM9.79933 1.56641C9.80071 1.56642 9.80209 1.56643 9.80347 1.56644C9.804 1.56664 9.80456 1.56683 9.80509 1.56703C9.80504 1.56678 9.80494 1.56651 9.8049 1.56625C9.80446 1.56615 9.80402 1.56608 9.80358 1.56598C9.80354 1.56613 9.8035 1.56629 9.80347 1.56644C9.80117 1.56568 9.79883 1.56493 9.79653 1.56417C9.79744 1.56491 9.79847 1.56567 9.79933 1.56641ZM3.10537 4.45736C3.10527 4.45722 3.10518 4.45708 3.10508 4.45694C3.10465 4.45758 3.10421 4.45822 3.10378 4.45886C3.10431 4.45835 3.10483 4.45786 3.10537 4.45736ZM3.79465 14.4226C3.70308 14.3396 3.62205 14.249 3.56716 14.1425C3.65755 14.2281 3.73106 14.3224 3.79465 14.4226ZM4.6779 2.62533C4.67861 2.62478 4.67933 2.62422 4.68005 2.62367C4.67936 2.62392 4.67864 2.62421 4.67796 2.62445C4.67789 2.62478 4.67798 2.625 4.6779 2.62533ZM15.1507 8.10233C15.1508 8.10259 15.1508 8.10286 15.1508 8.10312C15.1508 8.10276 15.1507 8.1023 15.1507 8.10194C15.1504 8.1008 15.1501 8.09956 15.1499 8.09841C15.1495 8.0972 15.1491 8.09594 15.1487 8.09472C15.1494 8.09777 15.1502 8.10034 15.1509 8.10332C15.151 8.10371 15.1511 8.10409 15.1512 8.10448C15.1511 8.10379 15.1509 8.10303 15.1507 8.10233ZM4.51025 15.2903C4.55738 15.3281 4.6048 15.3653 4.65253 15.402C4.60516 15.3647 4.55773 15.3275 4.51025 15.2903ZM3.93991 14.8375C3.95808 14.8439 3.97692 14.8537 3.99644 14.8658C3.90956 14.7869 3.82549 14.7049 3.74569 14.6182C3.7994 14.6991 3.87447 14.7623 3.93915 14.8363C3.93942 14.8367 3.93965 14.8371 3.93991 14.8375ZM11.886 15.5423C11.8809 15.546 11.8758 15.5498 11.8706 15.5535C11.8758 15.5514 11.881 15.5493 11.8861 15.547C11.8861 15.5455 11.886 15.5439 11.886 15.5423ZM12.5897 15.1678C12.59 15.1676 12.5903 15.1674 12.5906 15.1672C12.5908 15.1669 12.5912 15.1667 12.5914 15.1664C12.5909 15.1669 12.5903 15.1673 12.5897 15.1678ZM14.2154 13.4194C14.1932 13.4544 14.1713 13.4868 14.1477 13.5212C14.1476 13.5219 14.1475 13.5227 14.1474 13.5234C14.0114 13.6717 13.9046 13.8571 13.7635 14.0455C13.7945 13.9491 13.9027 13.8187 13.8219 13.8068C13.9121 13.6323 14.0413 13.5081 14.1429 13.3516C14.1842 13.2881 14.2158 13.2821 14.2387 13.3019C14.2615 13.3216 14.2498 13.365 14.2154 13.4194ZM13.9309 4.23814C13.9316 4.23932 13.9322 4.24051 13.9329 4.24172C13.9324 4.24115 13.9319 4.24061 13.9314 4.24002C13.9322 4.24116 13.9331 4.24228 13.934 4.24341C13.937 4.24707 13.9401 4.25073 13.9431 4.25439C13.939 4.24899 13.935 4.24352 13.9309 4.23814ZM2.29121 5.11334C2.29127 5.11322 2.29133 5.1131 2.29139 5.11298C2.29121 5.11289 2.29103 5.1128 2.29086 5.11272C2.29097 5.11292 2.29109 5.11313 2.29121 5.11334ZM8.52181 17.0556C8.51252 17.0559 8.50322 17.0561 8.49392 17.0562C8.50033 17.057 8.50669 17.0577 8.51312 17.0583C8.51586 17.0573 8.51888 17.0565 8.52181 17.0556ZM8.62085 17.2307C8.62032 17.2308 8.61972 17.2308 8.61919 17.2309C8.61918 17.2306 8.61917 17.2304 8.61916 17.2301C8.61848 17.2302 8.61775 17.2302 8.61707 17.2303C8.61773 17.2308 8.61858 17.2312 8.61922 17.2317C8.62048 17.2317 8.62172 17.2317 8.62298 17.2317C8.62223 17.2314 8.62155 17.231 8.62085 17.2307ZM15.3366 11.7087C15.3144 11.7855 15.2846 11.8482 15.2537 11.7938C15.2668 11.7522 15.2795 11.7105 15.292 11.6686C15.2977 11.6591 15.3017 11.649 15.3053 11.6366C15.3051 11.6374 15.3049 11.6381 15.3047 11.6388C15.3417 11.6137 15.3587 11.6319 15.3366 11.7087ZM5.48557 1.50045C5.46301 1.51024 5.44023 1.52126 5.41785 1.53317C5.44035 1.52208 5.46294 1.51122 5.48557 1.50045ZM5.47099 1.48194C5.4731 1.4809 5.47529 1.47984 5.47741 1.4788C5.47971 1.47797 5.48204 1.47707 5.48434 1.47623C5.48477 1.47561 5.48529 1.47495 5.48574 1.47432C5.48224 1.47595 5.47866 1.47775 5.47509 1.47934C5.47377 1.48021 5.47232 1.48107 5.47099 1.48194ZM3.04669 14.8584C3.04865 14.8588 3.05076 14.8594 3.05299 14.86C3.05224 14.8591 3.05147 14.8581 3.05072 14.8572C3.05007 14.8568 3.04941 14.8565 3.04876 14.8561C3.04707 14.8541 3.04539 14.8521 3.04371 14.8501C3.04406 14.8512 3.04461 14.8526 3.04494 14.8538C3.04546 14.8553 3.04614 14.8569 3.04669 14.8584ZM13.6433 15.2026C13.6431 15.2028 13.643 15.203 13.6428 15.2032C13.6431 15.203 13.6434 15.2028 13.6437 15.2026C13.6436 15.2026 13.6435 15.2026 13.6433 15.2026ZM16.055 10.4833C16.066 10.5398 16.048 10.5968 16.031 10.6511C16.0051 10.761 15.963 10.8199 15.9146 10.859C15.918 10.8322 15.9209 10.8076 15.924 10.7807C15.9243 10.7808 15.9246 10.7808 15.9249 10.7809C15.9464 10.6666 15.9262 10.5595 15.9621 10.4222C15.9915 10.4534 16.0118 10.5226 16.055 10.4833ZM16.0676 10.8535C16.0166 10.724 16.1011 10.5849 16.1211 10.4471C16.1334 10.5157 16.1137 10.5957 16.104 10.6723C16.0934 10.7323 16.0803 10.7933 16.0676 10.8535ZM16.0672 10.8552C16.0673 10.8546 16.0675 10.8541 16.0676 10.8535C16.0678 10.854 16.0679 10.8549 16.0681 10.8554C16.0678 10.8553 16.0675 10.8553 16.0672 10.8552ZM15.0374 13.8936C15.0364 13.8954 15.0354 13.8972 15.0344 13.8989C15.0345 13.8987 15.0346 13.8985 15.0348 13.8983C15.036 13.8969 15.0372 13.8954 15.0385 13.894C15.0381 13.8938 15.0377 13.8937 15.0374 13.8936ZM4.85138 1.32748C4.77356 1.36929 4.69903 1.41651 4.62574 1.46377C4.6519 1.44792 4.67806 1.43221 4.70444 1.41652C4.75494 1.38517 4.80586 1.35449 4.85707 1.32439C4.85517 1.32541 4.85328 1.32646 4.85138 1.32748ZM6.04457 0.787271C6.04464 0.787136 6.04482 0.786969 6.04489 0.786832C6.04072 0.788249 6.03656 0.789707 6.0324 0.791135C6.03645 0.789853 6.04051 0.788543 6.04457 0.787271ZM16.8529 9.73325C16.8609 9.84983 16.8838 10.0431 16.867 10.0718C16.7858 10.2109 16.6943 10.3306 16.6033 10.4022C16.5465 10.4484 16.573 10.298 16.5736 10.2155C16.5735 10.2154 16.5733 10.2152 16.5732 10.215C16.5578 10.1561 16.5093 10.1464 16.5355 10.0211C16.5361 10.0196 16.5368 10.0183 16.5373 10.0169C16.5372 10.0166 16.537 10.0166 16.5369 10.0164C16.5426 9.97254 16.5481 9.92929 16.5534 9.88369C16.5995 9.79519 16.6509 9.78417 16.7006 9.76396C16.7456 9.74553 16.7891 9.71748 16.823 9.61542C16.8333 9.63046 16.8434 9.64789 16.8536 9.663C16.8537 9.68725 16.8509 9.71132 16.8529 9.73325ZM16.5522 9.88566C16.5527 9.88409 16.5532 9.88252 16.5536 9.88095C16.5535 9.88186 16.5535 9.88278 16.5534 9.88369C16.553 9.88436 16.5526 9.88498 16.5522 9.88566ZM16.0292 12.6409C16.0629 12.534 16.057 12.4606 16.0483 12.3897C15.96 12.5823 15.9545 12.6387 16.0292 12.6409ZM13.7442 16.0566C13.8645 15.9899 13.9549 15.8725 14.0466 15.7707C14.144 15.6633 14.2379 15.5526 14.336 15.4503C14.3597 15.4207 14.3833 15.3911 14.4063 15.3611C14.3831 15.3719 14.3635 15.3765 14.3508 15.3699C14.3491 15.3714 14.3475 15.373 14.3459 15.3744C14.3372 15.3797 14.3284 15.3858 14.3198 15.3914C14.2917 15.4429 14.2475 15.497 14.2029 15.5466C14.0662 15.6973 13.9186 15.8317 13.763 15.9437C13.78 15.946 13.7853 15.96 13.7809 15.9837C13.8255 15.9435 13.8697 15.9031 13.9121 15.8632C13.8635 15.93 13.7981 15.9931 13.7442 16.0566ZM4.93299 17.3646C4.93298 17.3651 4.93289 17.3655 4.93286 17.3659C4.93377 17.3664 4.93468 17.3669 4.93559 17.3674C4.93473 17.3665 4.93385 17.3655 4.93299 17.3646ZM14.088 15.9834C14.1062 15.9733 14.1244 15.9571 14.1385 15.9394C14.1204 15.9557 14.101 15.9717 14.0802 15.9874C14.0828 15.986 14.0854 15.9847 14.088 15.9834ZM17.1703 10.4058C17.0379 10.8385 16.9752 11.3233 16.8075 11.752C16.808 11.7503 16.8084 11.7487 16.8089 11.747C16.7859 11.7386 16.7608 11.7391 16.7555 11.6858C16.7546 11.686 16.7537 11.6865 16.7528 11.6866C16.7524 11.6848 16.7519 11.683 16.7514 11.6813C16.726 11.679 16.7098 11.6372 16.6729 11.6842C16.6417 11.7245 16.6072 11.7556 16.6107 11.6809C16.6141 11.581 16.6584 11.5819 16.6861 11.5456C16.6961 11.5328 16.7076 11.5255 16.7179 11.5153C16.7177 11.5161 16.7175 11.5169 16.7173 11.5177C16.7174 11.5184 16.7177 11.5191 16.7179 11.5198C16.7782 11.4221 16.8506 11.3818 16.8899 11.2092C16.8937 11.1923 16.8984 11.1755 16.9025 11.1611C16.9029 11.1595 16.9032 11.158 16.9036 11.1564C16.9527 10.9984 16.9374 10.842 16.9153 10.7863C16.8415 10.603 16.9415 10.4767 16.9868 10.3435C17.0212 10.2387 17.0736 10.1645 17.0872 10.0257C17.08 9.78945 17.112 9.49826 17.0338 9.32454C17.0141 9.32875 16.9958 9.32437 16.9857 9.26279C16.9813 9.10177 16.9958 9.03063 17.0721 9.03792C17.2714 9.05483 17.2804 9.07938 17.2502 9.61066C17.2328 9.8762 17.1928 10.1411 17.1703 10.4058ZM15.6811 14.0393C15.6569 14.1247 15.6034 14.1858 15.5322 14.2751C15.5605 14.1619 15.6005 14.09 15.656 14.0255C15.6786 13.9985 15.6896 14.01 15.6811 14.0393ZM15.5319 14.2754C15.532 14.2753 15.5321 14.2752 15.5322 14.2751C15.532 14.276 15.5315 14.2772 15.5313 14.2781C15.5315 14.2772 15.5317 14.2763 15.5319 14.2754ZM0.296713 11.432C0.321412 11.4668 0.346892 11.5242 0.374521 11.6042C0.336102 11.451 0.325643 11.4135 0.296713 11.432ZM0.718673 13.1113C0.68797 13.0368 0.654965 12.9379 0.680863 12.9274C0.720816 12.9115 0.770832 13.0624 0.808276 13.1128C0.854883 13.2219 0.865291 13.2754 0.839311 13.2791C0.804821 13.2841 0.75829 13.2087 0.718673 13.1113Z" fill="var(--stroke-0, #8A2E1E)"/>
</g>
</svg>
