<svg preserveAspectRatio="none" width="100%" height="100%" overflow="visible" style="display: block;" viewBox="0 0 21.0105 19.8224" fill="none" xmlns="http://www.w3.org/2000/svg">
<g id="Ellipse 34" style="mix-blend-mode:multiply">
<path d="M10.7315 19.6933C10.8033 19.6979 10.8434 19.6604 10.8936 19.6452C10.923 19.6363 10.9558 19.6349 11.001 19.6537C11 19.6537 10.9991 19.6537 10.9982 19.6537C10.9764 19.681 10.937 19.6965 10.8936 19.7089C10.8445 19.7228 10.7903 19.7326 10.7501 19.7513C10.6553 19.7587 10.6369 19.8318 10.5223 19.8214C10.4431 19.6843 10.4518 19.674 10.7315 19.6933ZM5.3875 13.5563C5.49142 13.6216 5.56554 13.7196 5.65146 13.8027C5.94502 14.0929 6.26629 14.3629 6.61492 14.6005C6.64999 14.6237 6.64898 14.6488 6.64648 14.6764C6.64683 14.6769 6.64712 14.6774 6.64746 14.6779C6.75404 14.6992 6.85374 14.7194 6.8684 14.8497C6.87817 14.9243 6.93694 14.925 6.97839 14.8973C7.03448 14.863 7.08826 14.872 7.14719 14.9106C7.60172 15.209 8.1377 15.3525 8.64304 15.5676C8.64397 15.5682 8.64486 15.5688 8.64577 15.5694C8.64544 15.569 8.64512 15.5686 8.6448 15.5681C8.90884 15.6446 9.17702 15.7071 9.44961 15.7559C9.50304 15.7655 9.55755 15.769 9.60689 15.79C9.61383 15.7935 9.62078 15.7969 9.62774 15.8003C9.79062 15.8292 9.95231 15.8529 10.1174 15.872C10.1285 15.8723 10.1396 15.8729 10.1506 15.873C10.398 15.8838 10.6444 15.8998 10.8936 15.9087C11.0896 15.9156 11.2828 15.9183 11.4783 15.9103C11.4512 15.9598 11.3919 15.9708 11.3357 15.9665C11.1874 15.9547 11.042 15.9574 10.8936 15.9629C10.7806 15.967 10.668 15.9726 10.556 15.9743C10.4962 16.0355 10.409 16.0066 10.3301 16.0055C10.2262 15.9985 10.1388 16.0533 10.0322 16.0367C10.0268 16.0347 10.0214 16.0329 10.016 16.0311C9.99371 16.0499 9.9574 16.0585 9.92253 16.0727C9.84628 16.1033 9.72705 16.099 9.71567 16.1918C9.71754 16.2516 9.68323 16.2953 9.60019 16.3048C9.59793 16.3051 9.59582 16.3057 9.59365 16.306C9.68601 16.292 9.77664 16.2809 9.873 16.3116C9.8769 16.2941 9.88571 16.2801 9.90394 16.2721C9.88509 16.2437 9.89424 16.2117 9.89625 16.1814C9.93557 16.0477 9.9518 16.0416 10.1661 16.0465C10.2432 16.0734 10.3214 16.1065 10.4087 16.087C10.47 16.0731 10.5039 16.1063 10.5479 16.124C10.6518 16.1051 10.7507 16.1419 10.8555 16.138C10.9028 16.1353 10.8812 16.164 10.8613 16.1813C10.8704 16.1937 10.8813 16.2046 10.8936 16.2144C10.9454 16.2558 11.0208 16.2771 11.0798 16.3119C11.2351 16.0874 11.5165 16.1903 11.7449 16.1436C11.822 16.0852 11.8847 16.1242 11.942 16.1535C12.0326 16.1988 12.091 16.1923 12.1694 16.1165C12.255 16.0358 12.3658 15.9777 12.489 15.9331C12.4668 15.9222 12.443 15.9125 12.4386 15.8897C12.4398 15.889 12.4409 15.8883 12.442 15.8875C12.4387 15.87 12.4354 15.8526 12.4321 15.8351C12.6088 15.7548 12.8051 15.7814 12.9847 15.7193C13.0424 15.6996 13.1015 15.6848 13.1617 15.666C13.2083 15.6286 13.2507 15.6322 13.2601 15.676C13.275 15.7452 13.2152 15.7815 13.1352 15.7979C13.1714 15.8265 13.1992 15.867 13.2846 15.8523C13.3041 15.8491 13.3195 15.8519 13.3311 15.8586C13.3476 15.8107 13.3571 15.7625 13.3546 15.7164C13.3481 15.6172 13.3923 15.5663 13.5241 15.558C13.5811 15.5539 13.6386 15.5059 13.6946 15.5375C13.6951 15.5373 13.6957 15.5371 13.6963 15.5369C13.8766 15.4909 14.053 15.4409 14.2341 15.4024C14.3227 15.3833 14.4064 15.3156 14.5013 15.2862C14.5542 15.3676 14.6355 15.3553 14.7471 15.3045C14.8563 15.2546 14.9064 15.2902 14.9059 15.3843C14.9047 15.5027 14.9021 15.6174 14.7249 15.7061C14.6723 15.7322 14.673 15.7875 14.641 15.8294C14.8287 15.719 15.0032 15.596 15.0479 15.3978C15.0557 15.3587 15.0967 15.3386 15.1362 15.3271C15.1923 15.3126 15.1879 15.3519 15.1955 15.3809C15.2039 15.411 15.1865 15.4448 15.1556 15.489C15.3497 15.4569 15.4432 15.3199 15.5508 15.2111C15.5507 15.211 15.5506 15.2109 15.5505 15.2108C15.5507 15.2108 15.5509 15.2108 15.551 15.2108C15.5512 15.2106 15.5513 15.2105 15.5514 15.2103C15.5316 15.2049 15.5131 15.1986 15.4925 15.1919C15.3549 15.1414 15.3639 15.0864 15.5037 14.9544C15.4614 14.99 15.4144 14.9863 15.394 14.9411C15.3718 14.8937 15.4232 14.856 15.471 14.8406C15.6058 14.801 15.7203 14.6871 15.8609 14.6694C15.9033 14.6512 15.9441 14.6339 15.9862 14.615C15.9555 14.6857 15.8939 14.741 15.8386 14.7986C15.8169 14.8222 15.7853 14.8527 15.821 14.8711C15.8418 14.8826 15.8785 14.8751 15.8923 14.8503C15.9599 14.7199 16.1116 14.7411 16.1982 14.6409C16.2308 14.6025 16.2724 14.5991 16.26 14.6587C16.2353 14.7732 16.3208 14.7153 16.3626 14.683C16.4619 14.6036 16.571 14.5518 16.6746 14.4836C16.5497 14.6051 16.5339 14.7735 16.3896 14.8866C16.3748 14.8857 16.36 14.8856 16.3456 14.8857C16.3116 14.9134 16.2754 14.9388 16.2481 14.9716C16.3166 14.9814 16.3598 14.9931 16.3838 15.017C16.3832 15.0155 16.3827 15.0137 16.382 15.0122C16.3497 14.942 16.4322 14.8465 16.5074 14.7695C16.5206 14.7607 16.5337 14.7513 16.5468 14.7421C16.5672 14.7002 16.5873 14.6583 16.6065 14.6177C16.6921 14.5923 16.7183 14.4968 16.8108 14.4427C16.7671 14.5293 16.7961 14.5761 16.8237 14.6233C16.8247 14.6234 16.8257 14.6233 16.8267 14.6234C16.904 14.6017 16.9587 14.5544 16.9814 14.4765C16.9825 14.4757 16.9836 14.4748 16.9848 14.4741C16.9831 14.4734 16.9814 14.4727 16.9797 14.4719C16.9796 14.4727 16.9794 14.4736 16.9793 14.4744C16.9398 14.3476 17.0398 14.1456 17.1864 14.1141C17.3549 14.0787 17.3765 13.9503 17.4416 13.8372C17.3628 13.9435 17.2449 13.8741 17.1682 14.0108C17.1692 13.92 17.2157 13.852 17.2589 13.7834C17.289 13.7466 17.3187 13.7096 17.348 13.6723C17.4493 13.6674 17.4932 13.5235 17.5865 13.4942C17.5609 13.6104 17.6378 13.6785 17.6147 13.7918C17.6151 13.7929 17.615 13.7943 17.6154 13.7955C17.6175 13.7926 17.6199 13.7899 17.622 13.7869C17.778 13.6642 17.8856 13.4898 17.9922 13.3154C18.0959 13.4613 17.9664 13.6104 17.8864 13.7631C17.9525 13.6945 18.0147 13.6258 18.0783 13.5543C18.0831 13.4983 18.1656 13.488 18.1597 13.4252C18.1972 13.3007 18.2321 13.1766 18.262 13.052C18.2602 13.0534 18.2585 13.0548 18.2567 13.0562C18.3398 12.9102 18.3252 12.721 18.4898 12.6098C18.5182 12.5906 18.5313 12.5012 18.5506 12.4433C18.5588 12.4423 18.5679 12.4395 18.5745 12.4424C18.6192 12.4527 18.5451 12.5846 18.623 12.5525C18.6968 12.5226 18.6783 12.4435 18.6828 12.381C18.687 12.3342 18.7011 12.2849 18.7029 12.2377C18.7047 12.1791 18.6892 12.1107 18.7544 12.0923C18.82 12.0738 18.7334 12.1929 18.8033 12.211C18.866 12.0499 18.9223 11.8868 18.9722 11.7216C19.0767 11.8653 18.9839 12.0419 18.9052 12.1947C18.8737 12.2571 18.8471 12.3047 18.8305 12.3752C18.7898 12.5436 18.8174 12.6156 18.9526 12.5778C18.9923 12.5659 18.983 12.5983 18.9885 12.6179C19.0013 12.6531 18.9791 12.6781 18.952 12.6855C18.9062 12.6993 18.8662 12.7344 18.8756 12.7883C18.888 12.8662 18.9354 12.7771 18.9666 12.7641C19.0828 12.7152 19.0214 12.832 19.0121 12.8938C18.997 12.989 18.8584 13.0793 18.9302 13.177C18.9967 13.2677 19.0857 13.0852 19.1583 13.0896C19.1622 13.0916 19.166 13.0935 19.171 13.0934C19.1594 13.1166 19.1492 13.1432 19.1373 13.1664C19.092 13.2232 18.9956 13.2482 19.0316 13.3563C19.033 13.3598 19.0029 13.4024 18.999 13.4004C18.8502 13.3575 18.8376 13.5729 18.7483 13.6395C18.7731 13.7155 18.8679 13.5064 18.865 13.6448C18.8623 13.6526 18.86 13.6603 18.8583 13.668C18.8617 13.6601 18.8649 13.6521 18.8686 13.6443C18.9505 13.7184 18.9134 13.8902 18.9581 13.9925C18.9843 14.0503 18.9103 14.1307 18.9126 14.2009C19.0106 14.1602 19.0759 14.0449 19.1107 13.9705C19.1898 13.8014 19.2732 13.7595 19.3773 13.7411C19.387 13.8165 19.3159 13.8773 19.2888 13.9461C19.2797 13.9582 19.2703 13.9761 19.2615 13.9795C19.0717 14.0501 19.0934 14.1651 19.1104 14.2842C19.1303 14.4201 18.9981 14.5672 18.95 14.7068C18.8978 14.8047 18.8806 14.916 18.7676 14.9999C18.7315 14.9669 18.7869 14.91 18.8075 14.8677C18.8925 14.6915 18.971 14.5186 18.8605 14.4181C18.8214 14.3836 18.8158 14.2947 18.7784 14.2477C18.7545 14.1737 18.66 14.1568 18.687 14.0437C18.6344 14.068 18.6086 14.0311 18.5821 13.972C18.5515 13.9047 18.5921 13.7812 18.5308 13.7422C18.5076 13.7935 18.4749 13.8449 18.4495 13.8951C18.4323 13.9306 18.4057 13.9935 18.4277 13.9949C18.6743 14.011 18.3686 14.2621 18.3964 14.3755C18.4088 14.4238 18.3119 14.5351 18.3629 14.5885C18.374 14.5772 18.3851 14.5659 18.3962 14.5545C18.4579 14.4853 18.4906 14.4101 18.5133 14.3303C18.5202 14.3042 18.527 14.2782 18.5336 14.2522C18.5447 14.2133 18.5616 14.1742 18.6015 14.161C18.6395 14.1473 18.6823 14.1538 18.7069 14.174C18.7433 14.2024 18.7102 14.2471 18.6646 14.2978C18.5783 14.3964 18.645 14.395 18.6849 14.4092C18.6468 14.5453 18.6448 14.6679 18.6083 14.8052C18.5674 14.9533 18.5013 15.0586 18.3827 15.1613C18.3821 15.1631 18.3818 15.1648 18.3812 15.1666C18.3849 15.1733 18.3887 15.18 18.3896 15.1876C18.3895 15.1885 18.3891 15.1896 18.3889 15.1905C18.39 15.1892 18.3912 15.188 18.3923 15.1867C18.4082 15.184 18.4242 15.1812 18.4411 15.1794C18.4991 15.1732 18.5859 15.0276 18.6089 15.0937C18.6312 15.1524 18.5403 15.2775 18.4717 15.3399C18.3889 15.417 18.2845 15.5286 18.1918 15.4921C18.132 15.6322 18.1712 15.7047 18.2568 15.7464C18.1569 15.8219 18.1877 15.9584 18.0618 15.9999C17.964 16.0321 17.9638 15.9218 17.8974 15.9069C17.8619 15.8985 17.8676 15.8599 17.8246 15.8506C17.6698 16.1194 17.4262 16.3341 17.156 16.5196C17.1034 16.5555 17.1429 16.5744 17.165 16.5868C17.125 16.6059 17.0845 16.6251 17.0455 16.6446C17.0449 16.6446 17.0443 16.6447 17.0437 16.6448C17.0298 16.6724 17.0159 16.7001 17.0008 16.7266C17.0033 16.7269 17.0063 16.7265 17.009 16.7264C17.0805 16.6946 17.1486 16.651 17.1948 16.7047C17.2594 16.7789 17.1389 16.7997 17.0926 16.8415C17.0398 16.888 17.0811 16.8834 17.1069 16.8881C17.1553 16.8977 17.1634 16.931 17.1227 16.9828C17.0742 17.0418 17.0279 17.0404 16.9833 17.0309C16.8748 17.0075 16.7867 16.9952 16.8153 17.1523C16.8241 17.2085 16.7658 17.2881 16.6866 17.3563C16.6189 17.4328 16.515 17.4872 16.451 17.5662C16.4153 17.6104 16.3948 17.5856 16.3778 17.5721C16.423 17.4118 16.5114 17.2365 16.4781 17.0958C16.4405 17.0936 16.4125 17.1109 16.3974 17.1453C16.432 17.158 16.4603 17.1745 16.4169 17.2227C16.3727 17.2695 16.3411 17.2514 16.2977 17.2586C16.1768 17.2774 16.1537 17.2176 16.1187 17.1686C15.9779 17.2587 16.0135 17.343 15.9832 17.4279C15.9669 17.4727 15.9673 17.5143 15.9195 17.5422C15.9462 17.544 15.9757 17.538 16.0155 17.5039C16.115 17.4206 16.2195 17.3709 16.3142 17.3992C16.4149 17.4272 16.3205 17.5241 16.2876 17.5954C16.2811 17.6107 16.2744 17.626 16.2678 17.6413C16.2586 17.7224 16.2168 17.8083 16.148 17.8956C16.0193 17.9755 15.892 18.0574 15.7503 18.1162C15.7851 18.1077 15.8122 18.1109 15.8282 18.1293C15.7939 18.2196 15.7233 18.2938 15.5727 18.324C15.46 18.3923 15.3265 18.4317 15.2868 18.5493C15.2673 18.6091 15.1099 18.6743 15.006 18.7271C14.9309 18.7077 14.9607 18.6613 15.0048 18.6089C15.0009 18.5751 15.1296 18.4955 14.9818 18.5112C14.932 18.4794 14.95 18.4278 14.9751 18.3748C14.9957 18.3357 15.0054 18.3009 14.9813 18.2793C14.9954 18.3737 14.9204 18.4558 14.723 18.5475C14.6595 18.5761 14.5951 18.5932 14.5702 18.6401C14.5971 18.6984 14.7154 18.638 14.7785 18.6546C14.7404 18.7006 14.6782 18.7453 14.6685 18.7928C14.5697 18.8497 14.4886 18.922 14.3611 18.9542C14.3471 18.9586 14.3331 18.9629 14.3191 18.9672C14.2576 19.0283 14.1827 19.0687 14.0754 19.0645C14.0249 19.0622 13.9968 19.0494 13.9806 19.0309C13.9899 19.0904 13.9172 19.152 13.768 19.2151C13.6623 19.2592 13.6475 19.3294 13.5445 19.3679C13.459 19.3918 13.3766 19.4185 13.2907 19.4434C13.1178 19.4891 12.946 19.5141 12.7799 19.4924C12.5987 19.4704 12.4242 19.3241 12.4522 19.223C12.4631 19.1838 12.4798 19.1466 12.4718 19.1085C12.457 19.0305 12.4142 19.0013 12.3215 19.0157C12.3819 19.0364 12.3867 19.0865 12.3669 19.1267C12.3191 19.2155 12.342 19.294 12.3414 19.3768C12.3356 19.3792 12.3296 19.3816 12.3238 19.3841C12.4245 19.4315 12.5696 19.4504 12.6222 19.5266C12.5173 19.5622 12.4171 19.5638 12.3203 19.5449C12.2947 19.5408 12.236 19.5373 12.273 19.5215C12.3628 19.4833 12.3434 19.4624 12.2703 19.4492C12.2055 19.4379 12.171 19.4764 12.1346 19.499C12.0307 19.5682 11.854 19.609 11.8651 19.7162C11.8676 19.7464 11.8004 19.7837 11.7272 19.7815C11.6652 19.7799 11.6296 19.7486 11.6279 19.7199C11.6253 19.6753 11.6226 19.6352 11.5436 19.6107C11.559 19.5476 11.6389 19.5057 11.7122 19.4612C11.6586 19.449 11.6028 19.4469 11.5283 19.4759C11.4009 19.5232 11.2459 19.5001 11.1039 19.5255C11.0493 19.5351 10.9942 19.5154 10.964 19.4882C10.9397 19.4663 10.9163 19.4498 10.8936 19.4383C10.8111 19.3967 10.7385 19.422 10.6685 19.4964C10.6546 19.5105 10.6217 19.5185 10.5942 19.5265C10.5664 19.535 10.5454 19.5465 10.527 19.559C10.5523 19.5781 10.6006 19.5913 10.6692 19.6002C10.6056 19.599 10.5421 19.5973 10.4787 19.5951C10.4744 19.5984 10.4703 19.6017 10.4658 19.6048C10.4626 19.6061 10.4589 19.6071 10.4557 19.6083C10.4994 19.6308 10.4807 19.6504 10.4163 19.6693C10.264 19.6789 10.2188 19.6151 10.1617 19.5613C10.1756 19.5633 10.1896 19.565 10.2034 19.5669C10.1913 19.5636 10.1785 19.5611 10.1645 19.56C10.1407 19.5586 10.1169 19.5571 10.0931 19.5555C10.0875 19.5545 10.0816 19.554 10.0755 19.5537C10.0803 19.5548 10.0854 19.5556 10.0903 19.5567C9.86447 19.5605 9.67153 19.578 9.5844 19.7034C9.54437 19.7614 9.43957 19.7553 9.36368 19.6875C9.36284 19.6869 9.362 19.6863 9.36115 19.6857C9.32662 19.6053 9.465 19.5044 9.18526 19.4523C9.18105 19.4507 9.20202 19.3858 9.27149 19.3574C9.27247 19.3494 9.27527 19.3413 9.27994 19.3334C9.42865 19.2669 9.60645 19.3417 9.77384 19.3416C9.84806 19.3414 9.92958 19.3616 10.0061 19.3558C10.1564 19.3423 10.231 19.3041 10.1372 19.2161C10.1318 19.199 10.1351 19.1837 10.1446 19.1701C10.1024 19.1814 10.0707 19.1981 10.09 19.2403C10.09 19.2413 10.0899 19.2423 10.0898 19.2433C10.0883 19.3052 10.0079 19.2955 9.93943 19.2783C9.87879 19.2632 9.82118 19.245 9.75967 19.2622C9.75889 19.2619 9.75815 19.2616 9.75736 19.2614C9.69941 19.2852 9.6357 19.3057 9.55394 19.2808C9.36504 19.2245 9.19977 19.1882 9.12681 19.3213C9.12281 19.3295 9.05521 19.3207 9.01656 19.3202C9.01498 19.32 9.01336 19.3199 9.01177 19.3197C9.01328 19.3204 9.01484 19.3209 9.01633 19.3216C9.01136 19.353 8.8863 19.3366 8.9531 19.4032C9.00583 19.4557 8.89629 19.4261 8.85651 19.4293C8.732 19.4104 8.62853 19.4688 8.49319 19.4089C8.32921 19.2711 8.33951 19.2631 8.63555 19.2289C8.63502 19.2283 8.63428 19.2276 8.63376 19.227C8.67971 19.161 8.606 19.0631 8.74598 19.0182C8.80382 18.9998 8.72605 18.9647 8.6813 18.944C8.44907 18.8342 8.19122 18.8687 8.20318 19.0332C8.2142 19.1763 8.07913 19.1377 7.92152 19.0918C7.84013 19.0617 7.79205 19.0328 7.77497 19.0038C7.79006 19.0444 7.74779 19.0729 7.65846 19.1243C7.62133 19.1332 7.5846 19.1406 7.5477 19.1477C7.33392 19.1633 7.07971 19.0575 6.86596 19.0627C6.82087 19.0633 6.79341 19.0395 6.76321 19.016C6.6479 18.9303 6.5383 18.8654 6.40224 18.9079C6.34976 18.9245 6.25636 18.9083 6.25205 18.8421C6.25222 18.8328 6.2524 18.8235 6.25258 18.8142C6.24829 18.757 6.17275 18.7354 6.10867 18.7069C6.09915 18.7023 6.08963 18.6978 6.08013 18.6932C6.0428 18.7903 5.96214 18.7914 5.83972 18.6736C5.83143 18.6653 5.82315 18.6569 5.8149 18.6486C5.8074 18.6446 5.7999 18.6407 5.79241 18.6368C5.74417 18.6087 5.71799 18.5743 5.70248 18.539C5.70149 18.5382 5.70038 18.5374 5.69938 18.5366C5.552 18.464 5.40482 18.3875 5.26144 18.3072C5.1898 18.215 5.35466 18.1948 5.22175 18.084C5.21431 18.0632 5.17998 18.0784 5.20401 18.0756C5.32368 18.227 5.1856 18.2063 5.07114 18.2005C4.92919 18.1619 4.8942 17.975 4.71475 17.9801C4.39083 17.9867 4.23436 17.6823 4.01106 17.5151C3.95919 17.3225 3.79896 17.3478 3.6791 17.2818C3.42455 17.1779 3.22672 17.0007 3.06122 16.7638C2.98536 16.6559 2.83245 16.57 2.74952 16.4404C2.79024 16.4491 2.89138 16.5421 2.82787 16.4193C2.83139 16.4228 2.83527 16.4257 2.83882 16.429C2.83763 16.4274 2.83627 16.426 2.83508 16.4244C2.81635 16.3213 2.83231 16.2132 2.63996 16.1445C2.61303 16.1346 2.59966 16.1393 2.57938 16.1386C2.52511 16.1415 2.60179 16.2666 2.55296 16.2374C2.44389 16.1734 2.30944 16.0859 2.23136 15.984C2.05086 15.7434 1.8588 15.5086 1.69063 15.2611C1.46196 14.9243 1.25392 14.562 1.05353 14.2017C0.961421 14.0371 0.87406 13.8554 0.825727 13.6859C0.732723 13.3519 0.473839 13.0993 0.444915 12.7489C0.443649 12.7451 0.442385 12.7414 0.441123 12.7376C0.446346 12.7421 0.451236 12.7467 0.455753 12.752C0.452762 12.7476 0.449571 12.7433 0.446181 12.739C0.375986 12.5848 0.300958 12.4281 0.308093 12.2537C0.311493 12.1637 0.266565 12.0654 0.237105 11.9806C0.12901 11.6702 0.107304 11.3509 0.0734726 11.0329C0.0314659 10.6331 -0.000399113 10.232 3.69549e-06 9.82747C6.46114e-05 9.76847 0.00081408 9.70956 0.00231659 9.65076C0.00769889 9.36487 -0.00259209 9.06906 0.0880493 8.79725C0.163715 8.56656 0.19969 8.33554 0.18113 8.09876C0.180089 8.09649 0.179048 8.09423 0.178009 8.09196C0.20724 7.96456 0.241741 7.84004 0.242795 7.71191C0.243896 7.58404 0.260599 7.48578 0.351913 7.3886C0.426366 7.30865 0.447555 7.14641 0.465738 7.01258C0.464422 6.84465 0.518457 6.67915 0.613529 6.5261C0.635008 6.51862 0.654746 6.52322 0.677387 6.48166C0.689874 6.39169 0.752189 6.33131 0.780299 6.25105C0.84189 6.14023 0.903967 6.0277 0.93737 5.90438C0.944754 5.87557 0.951096 5.84291 0.974254 5.81849C0.983263 5.80338 0.993591 5.7855 1.00269 5.77045C1.00325 5.76894 1.00391 5.76743 1.00447 5.76592C1.00552 5.74866 1.00564 5.73101 1.00699 5.71382C1.05135 5.53632 1.11846 5.36016 1.24786 5.21181C1.36022 5.08719 1.46915 4.96488 1.52412 4.79601C1.54502 4.72968 1.57922 4.69954 1.62451 4.69157C1.62503 4.69078 1.62556 4.69 1.62609 4.68922C1.62595 4.68973 1.62591 4.6902 1.62576 4.69071C1.75349 4.61622 1.83239 4.52019 1.88345 4.35402C1.92864 4.20773 2.01218 4.09097 2.1602 4.06995C2.26814 4.05354 2.39398 4.05794 2.52903 3.85987C2.56803 3.80407 2.66076 3.77781 2.65841 3.70755C2.65439 3.62392 2.5476 3.74854 2.50628 3.7349C2.50757 3.73345 2.50886 3.73199 2.51015 3.73054C2.51245 3.72707 2.51505 3.72369 2.51737 3.72026C2.51392 3.72263 2.51048 3.72544 2.50698 3.72774C2.50804 3.72867 2.50909 3.72961 2.51015 3.73054C2.48242 3.75534 2.4529 3.78255 2.42545 3.8077C2.67721 3.51264 2.84442 3.15972 3.19179 2.94299C3.27765 2.8892 3.37558 2.80782 3.42827 2.72615C3.55861 2.52958 3.74714 2.4288 3.93669 2.32918C4.1399 2.22097 4.33731 2.12301 4.4317 1.91875C4.45872 1.86218 4.54691 1.79036 4.61464 1.80167C4.72072 1.82062 4.82062 1.75409 4.92361 1.68523C5.16326 1.52535 5.40541 1.37052 5.65299 1.2268C5.65877 1.22533 5.6645 1.2235 5.67013 1.22183C5.82867 1.14735 5.93401 1.00036 6.12559 0.972108C6.12895 0.970974 6.13231 0.969605 6.13572 0.968541C6.24373 0.906887 6.25401 0.992178 6.33892 0.965367C6.43927 1.0028 6.5595 1.00697 6.72033 0.949414C6.57215 0.96862 6.48624 0.958821 6.46246 0.915486C6.729 0.793962 6.99105 0.671013 7.25166 0.547455C7.31508 0.51774 7.4098 0.464323 7.4456 0.495667C7.54697 0.59112 7.71174 0.500753 7.85883 0.475363C7.86018 0.475887 7.86119 0.476602 7.86238 0.477185C7.91896 0.45779 7.9762 0.440007 8.03327 0.421398C8.03635 0.419888 8.03971 0.418619 8.0428 0.417142C8.21628 0.26864 8.4254 0.265695 8.6335 0.288097C8.63484 0.288027 8.63622 0.28781 8.63756 0.287741C8.80701 0.166886 9.01981 0.145128 9.24775 0.126671C9.39402 0.115095 9.54597 0.0636479 9.69755 0.0384427C9.76653 0.027071 9.87853 0.00145888 9.89313 0.0451604C9.93049 0.163959 10.1078 0.105366 10.2303 0.121107C10.231 0.120715 10.2316 0.120254 10.2324 0.119865C10.2602 0.124102 10.2909 0.129713 10.3187 0.134154C10.3899 0.0702116 10.4924 0.0340273 10.6303 0.0223489C10.7179 0.0148164 10.8057 0.00846541 10.8936 0.00448298C11.1212 -0.00578499 11.3449 -0.00035727 11.5692 0.041316C11.5681 0.0424538 11.5669 0.0435449 11.5657 0.0446476C11.5677 0.0445435 11.5697 0.0443829 11.5717 0.0442775C11.5717 0.0438092 11.5718 0.0433409 11.5718 0.0428725C11.7428 0.116125 11.9092 0.124228 12.1173 0.112103C12.4516 0.0912637 12.8065 0.0956299 13.1456 0.229792C13.2088 0.25508 13.2894 0.275691 13.3589 0.281603C14.0412 0.339062 14.678 0.613892 15.3036 0.875749C15.5039 0.958549 15.7056 1.02364 15.902 1.10541C16.6152 1.40141 17.2816 1.81978 17.904 2.29024C18.4005 2.66365 18.8869 3.06551 19.3005 3.5429C19.8908 4.22232 20.4013 4.99623 20.7039 5.84177C20.7881 6.07773 20.8254 6.3132 20.905 6.55571C20.9808 6.79462 20.9659 7.01231 21.0105 7.2471C20.9946 7.40959 20.9945 7.5838 20.9945 7.7564C20.9943 8.36904 20.8494 8.88846 20.6109 9.28487C20.5579 9.37464 20.4981 9.45372 20.423 9.48469C20.4098 9.4848 20.3978 9.48234 20.387 9.47894C20.3529 9.51852 20.3093 9.53607 20.2797 9.5873C20.2755 9.59033 20.2712 9.59273 20.2672 9.59541C20.2707 9.59566 20.2741 9.59604 20.2772 9.59728C20.2447 9.65712 20.2007 9.68014 20.1538 9.69086C20.1537 9.68857 20.1537 9.68626 20.1535 9.68397C20.1118 9.75533 20.0563 9.76993 19.9995 9.77274C19.8745 9.8374 19.7476 9.83856 19.6194 9.80835C19.6169 9.81245 19.6147 9.8168 19.6121 9.82077C19.5648 9.78699 19.5236 9.74274 19.4898 9.68537C19.4784 9.68262 19.4658 9.6764 19.4516 9.66634C19.4354 9.64907 19.4218 9.6296 19.4095 9.60592C19.4075 9.59937 19.4056 9.59277 19.4037 9.58624C19.3685 9.5738 19.374 9.50044 19.3518 9.46911C19.2907 9.23496 19.222 9.00642 19.1695 8.76939C19.1684 8.76955 19.1673 8.7698 19.1662 8.76993C19.1662 8.76705 19.1662 8.76417 19.1662 8.76129C19.0842 8.52985 18.9884 8.3061 18.8827 8.08995C18.7965 7.99664 18.7127 7.89934 18.6542 7.76956C18.6091 7.63095 18.5534 7.49675 18.4902 7.36681C18.3978 7.21168 18.3037 7.05677 18.1982 6.91268C17.9923 6.62946 17.7906 6.32938 17.5206 6.11671C17.4097 5.99717 17.2962 5.88138 17.1776 5.77028C17.1735 5.76957 17.1692 5.76876 17.1646 5.76777C17.1664 5.76622 17.1682 5.76466 17.17 5.76311C17.1703 5.76279 17.1706 5.76246 17.1709 5.76214C16.713 5.3698 16.2282 5.0083 15.7063 4.71311C15.5789 4.64099 15.4428 4.58553 15.3154 4.50931C15.2974 4.49783 15.2793 4.48642 15.2612 4.47507C14.9927 4.38392 14.7348 4.2616 14.4743 4.14908C13.6089 3.77153 12.6716 3.59509 11.735 3.51324C11.6713 3.50697 11.6085 3.5015 11.5452 3.4967C11.3379 3.52571 11.1282 3.51021 10.9208 3.51392C10.9117 3.51408 10.9027 3.51426 10.8936 3.51446C10.278 3.52821 9.67877 3.63271 9.0765 3.71368C8.95783 3.7591 8.82445 3.75039 8.71014 3.80971C8.27014 3.90345 7.85772 4.08982 7.45122 4.26724C7.45138 4.26682 7.45174 4.26642 7.45189 4.266C7.45061 4.26691 7.44922 4.26771 7.44793 4.26861C7.44784 4.26871 7.44774 4.26881 7.44765 4.2689C7.20608 4.43888 6.92631 4.5457 6.69029 4.72096C6.58937 4.79646 6.46975 4.852 6.3894 4.95282C6.25166 5.0459 6.14117 5.17076 5.99711 5.25038C5.87444 5.35158 5.73669 5.4388 5.64831 5.57431C5.50064 5.7348 5.35796 5.89273 5.19818 6.03797C5.18743 6.04561 5.17544 6.05479 5.16474 6.0625C5.15925 6.06785 5.15399 6.07346 5.14856 6.07886C5.15351 6.07464 5.15839 6.07028 5.16341 6.06612C5.14482 6.09138 5.12645 6.11672 5.10832 6.14215C4.93651 6.32389 4.81411 6.54332 4.64998 6.72838C4.36971 7.22538 4.13807 7.729 3.95354 8.25067C3.95338 8.25122 3.95321 8.25177 3.95304 8.25231C3.95285 8.25201 3.9528 8.25159 3.95262 8.25129C3.96578 8.28457 3.95718 8.31801 3.94352 8.35008C3.94232 8.35315 3.94143 8.35635 3.94026 8.35943C3.94217 8.35724 3.94386 8.35467 3.94589 8.35254C3.83688 8.83917 3.76884 9.32997 3.77111 9.82747C3.77128 9.86392 3.77182 9.90026 3.77276 9.93648C3.77386 9.99204 3.76739 10.0498 3.79723 10.0983C3.79673 10.0989 3.79611 10.0993 3.79562 10.0999C3.79619 10.0999 3.79675 10.1001 3.79732 10.1002C3.82925 10.3566 3.84772 10.6095 3.89246 10.8634C3.892 10.8635 3.89154 10.8636 3.89108 10.8637C3.98126 10.9994 3.97524 11.1622 4.02457 11.31C4.02448 11.3114 4.02457 11.3129 4.0245 11.3142C4.02527 11.3135 4.02597 11.3127 4.02677 11.312C4.09507 11.514 4.17477 11.7102 4.26539 11.9041C4.28629 11.9516 4.30789 11.999 4.33018 12.0461C4.37729 12.1365 4.42693 12.2257 4.47908 12.3138C4.63399 12.5784 4.80589 12.8343 4.99174 13.0861C5.01557 13.1177 5.04768 13.1463 5.03973 13.1887C5.08266 13.2499 5.16384 13.2706 5.19644 13.345C5.19862 13.3485 5.20118 13.3518 5.20341 13.3552C5.27514 13.4116 5.31955 13.4919 5.38615 13.5558C5.38691 13.5567 5.38766 13.5575 5.38841 13.5583C5.38811 13.5576 5.3878 13.5569 5.3875 13.5563ZM8.04619 19.2368C8.06496 19.2414 8.10257 19.2743 8.09486 19.2828C8.07057 19.3242 8.03537 19.3621 7.91812 19.3247C7.919 19.3249 7.91988 19.3252 7.92076 19.3254C7.92019 19.3163 7.90995 19.3003 7.9157 19.3003C7.97829 19.291 7.93027 19.2107 8.04619 19.2368ZM0.703165 12.6893C0.697178 12.6892 0.691085 12.688 0.684532 12.6843C0.657287 12.7404 0.611235 12.7093 0.561576 12.6661C0.578948 12.756 0.604739 12.8483 0.6249 12.9392C0.647654 12.8688 0.696741 12.8367 0.731754 12.7845C0.719909 12.7555 0.710247 12.724 0.703165 12.6893ZM1.58945 14.3562C1.56335 14.34 1.53677 14.3161 1.51029 14.2951C1.53853 14.3782 1.5156 14.41 1.45051 14.4013C1.51101 14.4555 1.54927 14.4488 1.5674 14.3951C1.57317 14.3786 1.58051 14.3655 1.58945 14.3562ZM1.83931 4.83941C1.82637 4.82518 1.81414 4.80836 1.79298 4.80492C1.77736 4.83643 1.77987 4.85881 1.78138 4.88112C1.80111 4.85873 1.82046 4.84552 1.83931 4.83941ZM0.316311 10.8187C0.316364 10.8226 0.31641 10.8264 0.316628 10.8302C0.316762 10.8296 0.317 10.8291 0.317137 10.8285C0.316977 10.8253 0.316826 10.8221 0.316762 10.8189C0.316623 10.8188 0.31645 10.8188 0.316311 10.8187ZM6.73891 18.6338C6.72251 18.6383 6.70188 18.638 6.68191 18.6364C6.67422 18.6334 6.66645 18.6307 6.65878 18.6279C6.72922 18.6554 6.79806 18.6893 6.86823 18.7167C6.84408 18.6834 6.80289 18.6534 6.75896 18.6234C6.75227 18.6269 6.74593 18.6306 6.73891 18.6338ZM7.78396 18.6462C7.66034 18.6108 7.5381 18.5533 7.41142 18.5242C7.50873 18.5609 7.6064 18.5953 7.70759 18.624C7.78634 18.6473 7.88917 18.6744 7.88618 18.7348C7.88394 18.7938 7.79805 18.7929 7.70397 18.77C7.6922 18.7659 7.68106 18.7626 7.67089 18.7597C7.68866 18.7916 7.70676 18.8242 7.72642 18.8575C7.67763 18.8494 7.62905 18.84 7.58199 18.8306C7.69064 18.9128 7.75199 18.9596 7.77107 18.9958C7.76028 18.9676 7.7792 18.9393 7.82732 18.9083C7.96546 18.8203 7.94209 18.6911 7.78396 18.6462ZM7.90159 0.689413C7.83179 0.687213 7.76318 0.678391 7.6897 0.692802C7.66832 0.716226 7.64436 0.739266 7.61421 0.761116C7.57812 0.769854 7.55288 0.78384 7.53167 0.799843C7.63763 0.752375 7.75524 0.73981 7.86974 0.724368C7.88031 0.712702 7.89094 0.701052 7.90159 0.689413ZM4.14178 17.1497C4.17947 17.1975 4.21822 17.2455 4.26432 17.2899C4.23312 17.2396 4.1924 17.1927 4.14178 17.1497ZM13.9632 18.7459C13.892 18.8286 13.842 18.8925 13.9301 18.9598C13.9432 18.97 13.9536 18.9801 13.9617 18.9903C13.9595 18.9796 13.9583 18.9684 13.9575 18.9568C13.9531 18.8895 14.0468 18.8047 13.9632 18.7459ZM5.5159 17.9842C5.49783 18.0044 5.45933 18.0102 5.4204 18.0157C5.45767 18.0335 5.49596 18.0457 5.53243 18.063C5.53437 18.0377 5.52882 18.0115 5.5159 17.9842ZM7.08609 18.7157C7.13108 18.6442 7.11203 18.593 6.93811 18.5829C6.91545 18.5797 6.89597 18.5794 6.8785 18.5808C6.87423 18.5934 6.88873 18.611 6.94373 18.6387C6.99306 18.6627 7.03919 18.6892 7.0855 18.7158C7.0857 18.7158 7.08589 18.7158 7.08609 18.7157ZM0.864445 7.12128C0.848621 7.14074 0.833418 7.1521 0.818265 7.15901C0.820271 7.17276 0.823079 7.18569 0.826199 7.19835C0.836094 7.17012 0.849941 7.14493 0.864445 7.12128ZM15.6307 18.1811C15.6557 18.1643 15.681 18.1478 15.7071 18.1328C15.7022 18.1346 15.6974 18.1368 15.6924 18.1385C15.6716 18.1523 15.6512 18.1668 15.6307 18.1811ZM11.0502 19.04C11.0452 19.0453 11.0381 19.051 11.0273 19.0567C10.9833 19.0646 10.9386 19.071 10.8936 19.0759C10.78 19.0884 10.6646 19.0919 10.5498 19.0884C10.5131 19.0874 10.4756 19.0859 10.4407 19.0814C10.435 19.0836 10.4295 19.0861 10.4235 19.0884C10.3945 19.1028 10.3556 19.109 10.3184 19.117C10.5143 19.1275 10.7099 19.1297 10.8936 19.0934C10.952 19.0819 11.0088 19.0665 11.0634 19.0463C11.059 19.0442 11.0547 19.042 11.0502 19.04ZM3.54659 3.33478C3.52944 3.342 3.55537 3.32496 3.53326 3.34172C3.53728 3.33961 3.54173 3.33792 3.54639 3.33573C3.54639 3.33544 3.54657 3.33508 3.54659 3.33478ZM2.73677 15.4242C2.73614 15.4234 2.73554 15.4227 2.7349 15.4219C2.73775 15.4264 2.74047 15.4309 2.74289 15.4355C2.74237 15.4327 2.7421 15.43 2.74202 15.4273C2.7403 15.4263 2.73849 15.4251 2.73677 15.4242ZM12.4706 18.353C12.4173 18.4094 12.3847 18.4611 12.538 18.4728C12.5819 18.4763 12.6077 18.494 12.6143 18.5192C12.5588 18.6255 12.6634 18.6682 12.7943 18.6968C12.8093 18.6997 12.8258 18.7003 12.8426 18.7004C12.8178 18.6936 12.7902 18.6859 12.7569 18.6769C12.896 18.6533 13.0187 18.6401 13.1245 18.5787C13.1764 18.5491 13.2973 18.5273 13.3566 18.5786C13.4033 18.6212 13.4807 18.6168 13.5697 18.5859C13.3861 18.6984 13.1753 18.7013 12.9687 18.7202C13.0945 18.8078 13.2214 18.8009 13.4596 18.688C13.5487 18.6455 13.6398 18.6074 13.7318 18.5713C13.6772 18.5794 13.6185 18.5778 13.5644 18.5856C13.6032 18.5032 13.6197 18.4369 13.4897 18.3904C13.4064 18.3604 13.5771 18.2858 13.5801 18.2177C13.4265 18.2453 13.2962 18.3364 13.1374 18.3406C13.1221 18.3409 13.0729 18.3893 13.0719 18.4101C13.074 18.4713 13.0422 18.5076 12.9235 18.5286C12.8072 18.5476 12.6861 18.5969 12.6235 18.5119C12.6512 18.4754 12.7406 18.4155 12.6089 18.4209C12.5069 18.4238 12.4961 18.3855 12.4706 18.353ZM11.4958 18.8644C11.4148 18.8629 11.3333 18.8791 11.2824 18.9068C11.1718 18.9682 11.0433 18.9756 10.9077 18.9732C10.9333 18.9828 10.9664 18.986 11.003 18.9865C11.0037 18.9867 11.0043 18.9871 11.005 18.9873C11.0921 18.9639 11.1821 18.9555 11.276 18.9559C11.2821 18.9477 11.2865 18.9387 11.2882 18.9283C11.3263 18.8996 11.3768 18.8831 11.4418 18.8771C11.484 18.879 11.5261 18.8792 11.5699 18.8771C11.5737 18.872 11.5774 18.8671 11.5825 18.8629C11.5549 18.8609 11.5261 18.8612 11.4958 18.8644ZM17.7367 16.3311C17.7864 16.2888 17.8176 16.1908 17.882 16.2048C17.9632 16.2215 17.8612 16.3349 17.8529 16.3985C17.8346 16.4257 17.8191 16.4522 17.8004 16.4793C17.7741 16.526 17.7407 16.5612 17.6862 16.5741C17.6596 16.5081 17.6464 16.4379 17.7376 16.3322C17.7373 16.3318 17.737 16.3315 17.7367 16.3311ZM14.5441 17.9913C14.5414 17.9928 14.5389 17.9945 14.5361 17.996C14.6915 18.1024 14.4267 18.1919 14.3343 18.2607C14.1993 18.3618 14.0096 18.4336 13.8511 18.5258C14.0032 18.4697 14.1579 18.4176 14.312 18.3631C14.3016 18.3355 14.329 18.3014 14.3808 18.2696C14.4651 18.2185 14.5221 18.1468 14.6268 18.1118C14.7368 18.0761 14.7515 18.0192 14.7765 17.9634C14.7834 17.9545 14.7907 17.9456 14.7979 17.9369C14.7226 17.9255 14.6353 17.9542 14.5441 17.9913ZM10.5243 18.8152C10.5131 18.7528 10.4525 18.7065 10.3322 18.7467C10.286 18.7622 10.2357 18.7671 10.1857 18.7718C10.1881 18.7745 10.191 18.777 10.1935 18.7796C10.3925 18.7397 10.4156 18.8085 10.4326 18.8825C10.4529 18.8849 10.4732 18.89 10.4934 18.8964C10.5038 18.9027 10.5131 18.9088 10.5221 18.9144C10.5228 18.9143 10.5234 18.9143 10.5241 18.9142C10.5034 18.8799 10.5283 18.846 10.5243 18.8152ZM8.22387 18.4997C8.18911 18.5291 8.14594 18.5505 8.09053 18.5603C8.19525 18.5859 8.30055 18.61 8.40634 18.6278C8.29645 18.599 8.25599 18.5655 8.22387 18.4997ZM9.00346 18.6614C8.91579 18.6288 8.83923 18.6429 8.76203 18.6587C8.84363 18.6644 8.92488 18.6645 9.00346 18.6614ZM11.3963 18.7647C11.437 18.7717 11.4797 18.7723 11.5266 18.7674C11.4766 18.7689 11.4332 18.768 11.3963 18.7647ZM10.1419 17.9323C10.1082 17.9683 10.1243 18.0192 10.0825 18.0551C10.0568 18.0762 10.099 18.1217 10.1662 18.1335C10.195 18.1384 10.2216 18.14 10.2506 18.1432C10.4114 18.1608 10.4779 18.2066 10.4506 18.2861C10.4589 18.296 10.4682 18.3063 10.4769 18.3175C10.4904 18.3497 10.455 18.3744 10.4439 18.4027C10.4385 18.414 10.4332 18.4253 10.4254 18.4351C10.4022 18.4571 10.3758 18.479 10.3646 18.503C10.369 18.5162 10.3866 18.5199 10.4065 18.5223C10.4838 18.5257 10.557 18.5137 10.6298 18.4996C10.7263 18.4992 10.8142 18.5112 10.8936 18.5314C11.024 18.5646 11.1306 18.6203 11.2112 18.6798C11.2245 18.6898 11.2375 18.6989 11.2505 18.7071C11.2343 18.6838 11.2301 18.653 11.2369 18.6127C11.2512 18.5155 11.2295 18.4133 11.3801 18.3233C11.4814 18.2636 11.3948 18.1769 11.3466 18.1112C11.3135 18.068 11.2354 18.0896 11.1806 18.117C11.1259 18.1444 11.0976 18.1883 11.0222 18.2051C10.9784 18.2212 10.9354 18.2296 10.8936 18.2311C10.8196 18.2339 10.7495 18.2153 10.6835 18.1809C10.5681 18.1192 10.564 18.0627 10.682 18.015C10.704 18.006 10.7228 17.9953 10.7407 17.9842C10.6718 18.0015 10.5991 18.0112 10.5177 18.0003C10.5148 18.0006 10.5118 18.0008 10.5088 18.0011C10.541 18.0727 10.5341 18.1306 10.3091 18.099C10.3196 18.069 10.3291 18.0381 10.3385 18.0077C10.2549 18.0085 10.2154 17.964 10.1556 17.9391C10.151 17.9369 10.1465 17.9346 10.1419 17.9323ZM14.735 17.7398C14.7118 17.7678 14.671 17.7891 14.6316 17.8105C14.6443 17.8302 14.6424 17.8595 14.6785 17.8636C14.6788 17.8645 14.6792 17.8654 14.6795 17.8662C14.6796 17.8663 14.6797 17.8663 14.6798 17.8663C14.6799 17.8661 14.68 17.866 14.6801 17.8659C14.7553 17.8251 14.8207 17.8339 14.8881 17.8344C14.8955 17.8262 14.9029 17.818 14.9102 17.8097C14.9446 17.7075 14.8071 17.752 14.735 17.7398ZM7.33162 17.9767C7.33009 17.9801 7.3277 17.983 7.32541 17.9862C7.33982 17.9883 7.35411 17.9906 7.36843 17.9935C7.35612 17.9879 7.34385 17.9822 7.33162 17.9767ZM14.6801 17.8659C14.6799 17.866 14.6797 17.8661 14.6795 17.8662C14.6801 17.8655 14.6807 17.8648 14.6813 17.8641C14.6811 17.8647 14.6804 17.8653 14.6801 17.8659ZM9.34879 18.4122C9.41223 18.4335 9.49011 18.4444 9.5658 18.4484C9.49465 18.4331 9.42214 18.4253 9.34879 18.4122ZM9.63714 18.4473C9.62855 18.4484 9.61983 18.4493 9.61119 18.4501C9.61552 18.4502 9.61991 18.4506 9.62419 18.4506C9.62851 18.4494 9.63281 18.4482 9.63714 18.4473ZM14.1824 17.9634C14.1472 17.9948 14.0991 18.0219 14.0559 18.0501C14.1232 18.0306 14.1635 17.9979 14.1966 17.961C14.1918 17.9618 14.1871 17.9625 14.1824 17.9634ZM9.74935 18.4602C9.71647 18.4427 9.68717 18.4419 9.65863 18.4447C9.68703 18.4429 9.71652 18.4485 9.74935 18.4602ZM9.09554 18.3085C9.04716 18.3298 8.98493 18.3221 8.91263 18.287C8.90801 18.2847 8.90332 18.2825 8.89871 18.2803C8.91457 18.2901 8.93062 18.3011 8.94607 18.3139C9.01755 18.3721 9.13271 18.3719 9.24152 18.3875C9.24043 18.3872 9.23929 18.3869 9.23819 18.3866C9.17551 18.3652 9.1186 18.3485 9.09554 18.3085ZM12.1098 17.9556C11.9916 17.9921 12.0232 18.0575 12.0358 18.1067C12.0481 18.1531 12.0974 18.1989 12.1989 18.201C12.2681 18.2026 12.3451 18.1893 12.406 18.2125C12.4581 18.2458 12.4895 18.2863 12.4868 18.3362C12.4855 18.3376 12.4843 18.3389 12.483 18.3402C12.7025 18.3853 12.8366 18.2431 13.0103 18.1829C13.2233 18.0739 13.223 18.0627 13.0299 17.9965C12.9423 17.9665 12.9071 17.9108 12.8656 17.8593C12.8636 17.86 12.8617 17.8609 12.8596 17.8616C12.8195 17.8693 12.7897 17.894 12.7524 17.9052C12.7262 17.9065 12.7002 17.909 12.6743 17.9118C12.6425 17.9518 12.6338 17.9906 12.7155 18.026C12.7927 18.059 12.7577 18.0965 12.6567 18.1152C12.5005 18.1431 12.3337 18.1334 12.203 18.1162C12.0884 18.1008 12.1288 18.0355 12.1946 17.9791C12.1623 17.9744 12.1299 17.9696 12.1098 17.9556ZM17.4192 16.1655C17.3904 16.1935 17.3611 16.2212 17.3333 16.2494C17.3666 16.2235 17.3962 16.1959 17.4192 16.1655ZM14.235 17.8002C14.2215 17.8145 14.207 17.8281 14.1881 17.8395C14.1904 17.8395 14.1929 17.8393 14.1952 17.8393C14.2171 17.8502 14.2301 17.8656 14.2318 17.8863C14.2314 17.8888 14.2305 17.8913 14.2299 17.8937C14.2432 17.8926 14.2566 17.8914 14.2698 17.89C14.2751 17.8862 14.2809 17.8827 14.2873 17.8792C14.2605 17.8569 14.2452 17.8297 14.235 17.8002ZM17.8398 15.4315C17.8498 15.5059 17.8524 15.5831 17.8481 15.6635C17.8695 15.6509 17.8928 15.6434 17.9174 15.6418C17.9516 15.6399 17.9773 15.6249 17.9991 15.6036C17.9589 15.6238 17.9249 15.6195 17.8993 15.591C17.8519 15.5354 17.8519 15.4615 17.9353 15.3597C17.8997 15.3687 17.8677 15.396 17.8354 15.4281C17.8368 15.4292 17.8385 15.4301 17.8398 15.4315ZM1.41868 10.9164C1.41576 10.9046 1.41276 10.8926 1.40987 10.8807C1.40909 10.891 1.40838 10.9012 1.40712 10.9111C1.41095 10.913 1.41484 10.9144 1.41868 10.9164ZM10.0232 18.1848C10.0213 18.19 10.0186 18.1956 10.0149 18.2015C9.98133 18.2565 9.84857 18.3029 9.72285 18.3103C9.83286 18.322 9.94338 18.2996 10.0577 18.2418C10.037 18.2305 10.0262 18.211 10.0235 18.1862C10.0235 18.1858 10.0232 18.1853 10.0232 18.1848ZM6.55889 17.4201C6.55788 17.4216 6.5568 17.4229 6.55568 17.4242C6.55779 17.4254 6.55997 17.4265 6.5621 17.4276C6.56077 17.4251 6.55997 17.4226 6.55889 17.4201ZM14.9635 17.5024C14.9364 17.5175 14.9091 17.5324 14.8814 17.5464C14.9131 17.5346 14.9446 17.5226 14.9743 17.5085C14.994 17.5058 15.0138 17.5024 15.0332 17.4988C15.0113 17.4938 14.9878 17.4962 14.9635 17.5024ZM15.2562 17.3468C15.2484 17.3532 15.2401 17.3589 15.2317 17.3642C15.2323 17.3643 15.2328 17.3645 15.2335 17.3646C15.2459 17.3583 15.2585 17.3523 15.2713 17.3467C15.2667 17.3464 15.2623 17.3458 15.2579 17.3447C15.2573 17.3454 15.2569 17.3462 15.2562 17.3468ZM16.7284 16.3453C16.7175 16.3701 16.6977 16.3954 16.6687 16.4213C16.6465 16.4294 16.6269 16.4383 16.6098 16.4478C16.6011 16.4931 16.564 16.5314 16.5175 16.5671C16.5164 16.5762 16.5161 16.5856 16.5169 16.5952C16.5345 16.5759 16.5511 16.5552 16.5705 16.5379C16.6166 16.4963 16.6719 16.4561 16.7261 16.469C16.733 16.4704 16.7384 16.4725 16.7424 16.4751C16.783 16.414 16.7592 16.3782 16.7284 16.3453ZM13.6579 17.8943C13.6416 17.9008 13.625 17.9071 13.6077 17.9125C13.6073 17.9126 13.6067 17.9125 13.6063 17.9126C13.6256 17.9152 13.6468 17.915 13.6699 17.9126C13.6663 17.9063 13.6625 17.9001 13.6579 17.8943ZM15.5234 17.1173C15.4846 17.1316 15.4481 17.1606 15.4089 17.1827C15.3739 17.2023 15.3381 17.2261 15.3019 17.2422C15.299 17.2504 15.2967 17.2585 15.2948 17.2667C15.3635 17.253 15.4317 17.2324 15.4932 17.1892C15.4944 17.1682 15.4937 17.1471 15.5165 17.1242C15.5186 17.1219 15.521 17.1196 15.5234 17.1173ZM6.98695 17.4573C6.95855 17.4476 6.92907 17.4385 6.89931 17.4361C6.92914 17.4421 6.95859 17.4494 6.98695 17.4573ZM18.0768 14.8776C18.0143 15.0078 17.9237 15.1311 17.8167 15.227C17.8191 15.2297 17.8219 15.2328 17.8239 15.2374C17.8363 15.2699 17.8151 15.3099 17.784 15.3508C17.7689 15.3701 17.6673 15.4149 17.7648 15.4144C17.7661 15.4145 17.7674 15.4146 17.7687 15.4147C17.8001 15.379 17.8394 15.3489 17.8702 15.3135C17.9175 15.2574 17.9399 15.1655 18.0164 15.1578C18.0733 15.151 18.0501 15.2107 18.0436 15.2579C18.128 15.1993 18.1859 15.1269 18.2082 15.0395C18.2018 15.0437 18.1955 15.0471 18.1893 15.0482C18.14 15.0554 18.0951 14.9685 18.0768 14.8776ZM6.06685 16.9312C6.03073 16.92 5.99531 16.9043 5.96006 16.8874C5.98054 16.9075 6.00063 16.9275 6.00997 16.9496C6.03063 16.9443 6.05122 16.946 6.07206 16.9536C6.06999 16.9476 6.06783 16.9416 6.06609 16.9356C6.06647 16.9342 6.06655 16.9327 6.06685 16.9312ZM6.62343 17.1672C6.58138 17.1678 6.54614 17.175 6.51201 17.1819C6.51673 17.1882 6.52107 17.195 6.52473 17.2026C6.54986 17.1876 6.59218 17.1839 6.62343 17.1672ZM17.131 15.809C17.1062 15.8477 17.0806 15.8864 17.0474 15.9217C17.0858 15.9172 17.1173 15.9204 17.1345 15.9405C17.1263 15.9014 17.1284 15.8558 17.131 15.809ZM20.1538 9.69086C20.1539 9.69253 20.1541 9.69419 20.1542 9.69585C20.1537 9.69428 20.1532 9.6927 20.1527 9.69112C20.1531 9.69104 20.1534 9.69095 20.1538 9.69086ZM8.56701 17.6282C8.53697 17.6358 8.50742 17.6446 8.47223 17.638C8.46574 17.6334 8.45836 17.6297 8.4505 17.6264C8.45706 17.63 8.4634 17.6338 8.46998 17.6374C8.4686 17.6373 8.4672 17.637 8.46582 17.6368C8.5216 17.6741 8.57696 17.7111 8.54781 17.764C8.58959 17.7413 8.64283 17.723 8.61402 17.6687C8.59904 17.6527 8.58324 17.6394 8.56701 17.6282ZM7.68417 17.3796C7.70501 17.4169 7.71717 17.4549 7.73423 17.4924C7.73911 17.4776 7.75156 17.4666 7.77652 17.4616C7.74963 17.4312 7.72037 17.4024 7.68417 17.3796ZM6.12923 16.7537C6.11704 16.7488 6.10624 16.7428 6.09618 16.736C6.09454 16.7452 6.09429 16.755 6.09281 16.7644C6.10134 16.7685 6.10858 16.7735 6.11485 16.7795C6.11949 16.7709 6.12397 16.7622 6.12923 16.7537ZM19.2653 12.3343C19.3292 12.5841 19.3845 12.2957 19.4436 12.2595C19.4438 12.2587 19.4441 12.258 19.4443 12.2573C19.4095 12.3541 19.396 12.4411 19.4241 12.5184C19.4028 12.5988 19.3797 12.6765 19.3557 12.7565C19.177 12.7609 19.1757 12.7101 19.2653 12.3343ZM1.93846 10.9527C1.92982 10.9409 1.92183 10.9279 1.91416 10.9142C1.91299 10.9296 1.91185 10.9451 1.91078 10.9605C1.91945 10.9559 1.92887 10.9539 1.93846 10.9527ZM9.99091 17.8118C9.98441 17.8216 9.9845 17.8338 9.97973 17.8445C9.98745 17.8412 9.99543 17.8381 10.0031 17.8347C10.0006 17.8269 9.99854 17.819 9.99091 17.8118ZM4.74932 15.746C4.74969 15.7466 4.7497 15.7473 4.75012 15.7479C4.74988 15.7472 4.74988 15.7466 4.74967 15.7459C4.74955 15.7459 4.74944 15.7459 4.74932 15.746ZM19.5144 11.9681C19.5408 11.8837 19.5905 11.8619 19.637 11.8312C19.6372 11.8304 19.6374 11.8297 19.6376 11.829C19.6345 11.9953 19.5562 12.1135 19.4601 12.2132C19.4496 12.1305 19.5202 12.0509 19.5144 11.9681ZM17.6395 15.0802C17.6226 15.1184 17.6012 15.1567 17.5841 15.1946C17.6161 15.1542 17.6457 15.1141 17.6395 15.0802ZM11.5494 17.5269C11.5721 17.5456 11.5893 17.5669 11.594 17.5937C11.5933 17.5938 11.5926 17.5938 11.5918 17.5939C11.5684 17.6017 11.545 17.6095 11.522 17.6171C11.5191 17.627 11.5116 17.6368 11.4957 17.6462C11.4821 17.6545 11.4663 17.6593 11.4489 17.6631C11.4926 17.7466 11.6528 17.6512 11.7198 17.6968C11.7147 17.7168 11.7016 17.7337 11.6848 17.7491C11.7504 17.7201 11.7911 17.6681 11.8616 17.6438C11.9027 17.6305 11.9434 17.6231 11.9832 17.6237C11.9769 17.6117 11.9756 17.5988 11.979 17.5853C11.9821 17.5564 11.9687 17.5293 11.9716 17.5005C11.8331 17.5384 11.6915 17.5408 11.5494 17.5269ZM8.35816 17.276C8.35916 17.2763 8.36015 17.2766 8.36115 17.2769C8.36103 17.2768 8.36094 17.2766 8.36082 17.2764C8.35993 17.2763 8.35905 17.2761 8.35816 17.276ZM18.42 13.6743C18.4148 13.7118 18.4091 13.7492 18.3959 13.7874C18.4176 13.7728 18.4381 13.7476 18.4591 13.7278C18.44 13.7147 18.4276 13.6964 18.42 13.6743ZM11.1854 17.2851C11.1828 17.2952 11.1764 17.304 11.1699 17.3129C11.1057 17.3702 11.0318 17.3883 10.9525 17.376C10.9815 17.4116 10.9851 17.4518 10.9812 17.4937C10.9979 17.4644 11.0237 17.4356 11.0512 17.4064C11.0927 17.3627 11.1663 17.3339 11.196 17.2848C11.1925 17.2849 11.189 17.285 11.1854 17.2851ZM14.297 16.8335C14.2935 16.841 14.2911 16.8496 14.2903 16.8595C14.2969 16.8555 14.3034 16.852 14.3097 16.8487C14.3049 16.844 14.3006 16.839 14.297 16.8335ZM5.2495 15.6037C5.25104 15.6058 5.25245 15.608 5.25399 15.6101C5.25503 15.6099 5.25601 15.6095 5.2571 15.6093C5.25454 15.6075 5.25206 15.6055 5.2495 15.6037ZM19.156 11.7152C19.1137 11.6753 19.1531 11.6212 19.1729 11.5698C19.1921 11.532 19.2112 11.4802 19.2473 11.5076C19.2825 11.5326 19.2767 11.5839 19.2627 11.6398C19.2632 11.64 19.2637 11.6401 19.2642 11.6402C19.2313 11.6841 19.2011 11.7559 19.156 11.7152ZM19.3179 10.2254C19.3207 10.2015 19.3233 10.1783 19.3272 10.1568C19.3263 10.1568 19.3254 10.1568 19.3244 10.1567C19.3485 10.0478 19.3685 9.93942 19.3873 9.82747C19.3873 9.82747 19.3873 9.82747 19.3873 9.82747C19.3959 9.82747 19.4046 9.83199 19.4147 9.83199C19.4016 10.0501 19.3766 10.2645 19.3427 10.478C19.2899 10.3967 19.323 10.3087 19.3179 10.2254ZM12.2709 17.044C12.2434 17.059 12.2148 17.0649 12.1852 17.0661C12.2558 17.1072 12.2959 17.1674 12.3576 17.2132C12.3588 17.2152 12.3602 17.2171 12.3614 17.2191C12.3744 17.2207 12.3864 17.2245 12.3981 17.2296C12.3487 17.1704 12.3116 17.1064 12.2709 17.044ZM15.0064 16.29C14.9263 16.3435 14.8205 16.3642 14.75 16.4249C14.7398 16.4541 14.7444 16.4765 14.7585 16.4912C14.7925 16.4984 14.834 16.4914 14.882 16.4723C14.8874 16.4532 14.8865 16.4309 14.8959 16.4144C14.9141 16.3648 14.9605 16.3277 15.0064 16.29ZM9.10941 17.1206C9.11228 17.1268 9.1139 17.1333 9.11368 17.1401C9.11364 17.1403 9.11341 17.1405 9.11337 17.1406C9.13033 17.1412 9.14697 17.142 9.16296 17.1433C9.14764 17.1353 9.13294 17.127 9.1214 17.118C9.11792 17.1193 9.11394 17.1202 9.10941 17.1206ZM19.0085 11.6074C19.0372 11.4155 19.0685 11.2258 19.152 11.0479C19.1796 10.9877 19.1786 10.926 19.1724 10.8647C19.3203 10.8638 19.2495 11.0426 19.216 11.1042C19.1403 11.25 19.1398 11.3786 19.1407 11.5229C19.1101 11.6204 19.0514 11.5661 19.0085 11.6074ZM17.354 14.549C17.354 14.5594 17.3522 14.5708 17.3547 14.5801C17.3572 14.5687 17.3585 14.5575 17.3596 14.5464C17.3578 14.5474 17.356 14.5484 17.354 14.549ZM15.1773 15.9627C15.1569 16.0035 15.125 16.0434 15.0699 16.0805C15.0503 16.0976 15.0272 16.1118 15.0055 16.1273C15.066 16.1286 15.0966 16.1529 15.0813 16.2123C15.0753 16.2231 15.0681 16.2328 15.0606 16.2419C15.0647 16.2378 15.0692 16.2337 15.073 16.2295C15.1134 16.1492 15.1706 16.0721 15.2134 15.9931C15.221 15.9857 15.2277 15.9779 15.2343 15.9703C15.2153 15.9631 15.1964 15.961 15.1773 15.9627ZM18.3935 13.0632C18.3938 13.0834 18.393 13.104 18.391 13.1252C18.4007 13.1059 18.409 13.086 18.4167 13.0658C18.4072 13.068 18.3996 13.067 18.3935 13.0632ZM14.254 16.2992C14.1947 16.3837 14.083 16.4281 14.0084 16.4844C14.0745 16.4694 14.1512 16.3597 14.2446 16.4112C14.2496 16.4071 14.2551 16.4035 14.2613 16.4002C14.2563 16.3973 14.2511 16.3941 14.2462 16.39C14.2472 16.3594 14.2474 16.3285 14.254 16.2992ZM15.2414 15.6684C15.2395 15.7052 15.2355 15.7426 15.2256 15.7806C15.2227 15.7942 15.2203 15.8078 15.2178 15.8214C15.2347 15.8521 15.2471 15.8872 15.2914 15.8899C15.2969 15.8806 15.3025 15.8711 15.3078 15.8616C15.3117 15.7892 15.3458 15.7112 15.3427 15.6398C15.322 15.6524 15.2981 15.6625 15.2715 15.6701C15.2614 15.6693 15.2513 15.6688 15.2414 15.6684ZM10.8529 16.7202C10.8088 16.6768 10.728 16.6658 10.6583 16.7014C10.6288 16.7171 10.5966 16.7245 10.5633 16.7291C10.5629 16.8873 10.5451 16.9065 10.317 16.9419C10.3079 16.9431 10.2999 16.9447 10.2927 16.9467C10.4906 16.9666 10.6152 16.8678 10.7634 16.8073C10.7788 16.7703 10.9097 16.7781 10.8529 16.7202ZM11.8341 16.7731C11.8563 16.7927 11.8738 16.8151 11.8811 16.8436C11.8956 16.8294 11.9067 16.8166 11.9167 16.8043C11.8892 16.7939 11.8618 16.7833 11.8341 16.7731ZM14.4012 16.1654C14.4177 16.1693 14.4341 16.1711 14.4502 16.1713C14.4512 16.1697 14.4522 16.168 14.4532 16.1663C14.4356 16.165 14.418 16.1645 14.4012 16.1654ZM14.3981 16.1656C14.3511 16.1688 14.3097 16.1841 14.288 16.2309C14.3101 16.2059 14.3443 16.1838 14.3981 16.1656ZM7.78027 16.1499C7.78609 16.1851 7.75054 16.214 7.77208 16.2534C7.83839 16.2365 7.78087 16.1875 7.78822 16.1563C7.78765 16.155 7.78691 16.1536 7.78629 16.1523C7.78429 16.1517 7.78235 16.1508 7.78027 16.1499ZM12.7293 16.5533C12.6887 16.5346 12.6489 16.5177 12.6015 16.5376C12.603 16.5387 12.6048 16.5398 12.6061 16.5412C12.6138 16.5496 12.6136 16.5584 12.6086 16.5669C12.634 16.5711 12.6536 16.58 12.6684 16.5932C12.6796 16.5723 12.6999 16.5593 12.7293 16.5533ZM14.5225 15.9C14.5237 15.9005 14.5246 15.9014 14.5257 15.9021C14.5251 15.9007 14.5244 15.8994 14.5238 15.8981C14.5234 15.8987 14.523 15.8993 14.5225 15.9ZM3.26973 11.4532C3.26979 11.4533 3.26984 11.4535 3.26989 11.4537C3.26994 11.4536 3.27 11.4534 3.27006 11.4533C3.26995 11.4532 3.26984 11.4532 3.26973 11.4532ZM14.5247 15.8971C14.5413 15.8874 14.558 15.8779 14.5747 15.8683C14.5652 15.8692 14.5557 15.87 14.5463 15.8706C14.5392 15.8794 14.5318 15.8882 14.5247 15.8971ZM3.16164 9.99732C3.15694 9.97844 3.15434 9.95878 3.15465 9.93953C3.1369 9.96184 3.11839 9.9819 3.089 9.97583C3.08775 9.97521 3.08652 9.97457 3.0853 9.974C3.0838 9.97935 3.08226 9.98468 3.08078 9.99003C3.1313 10.0139 3.14611 10.0812 3.16885 10.138C3.17325 10.1517 3.17467 10.1653 3.17494 10.1789C3.17626 10.1791 3.17758 10.1792 3.1789 10.1793C3.17924 10.1688 3.17882 10.1583 3.17653 10.1473C3.17617 10.1172 3.17493 10.0863 3.17818 10.0579C3.1726 10.0378 3.167 10.0177 3.16164 9.99732ZM12.038 16.463C12.006 16.4762 11.9752 16.4944 11.9457 16.5189C11.9326 16.5299 11.9165 16.5381 11.8987 16.5441C11.9158 16.5501 11.931 16.5572 11.9426 16.5667C11.971 16.529 12.0007 16.4929 12.038 16.463ZM12.8709 16.2993C12.9409 16.3029 13.0183 16.2799 13.0896 16.2771C13.1152 16.2861 13.1383 16.2961 13.1592 16.3065C13.1739 16.3021 13.1888 16.2979 13.2039 16.2936C13.1873 16.2691 13.1933 16.2469 13.209 16.2254C13.0998 16.2666 12.9871 16.295 12.8709 16.2993ZM13.805 15.8801C13.832 15.902 13.855 15.9255 13.8247 15.9641C13.7819 16.0178 13.7183 15.9776 13.6633 15.9902C13.6658 15.9888 13.6681 15.9873 13.6705 15.9858C13.6679 15.9868 13.6654 15.9878 13.6628 15.9887C13.663 15.9892 13.6631 15.9897 13.6633 15.9902C13.5199 16.019 13.477 16.0871 13.4932 16.1818C13.4929 16.1824 13.4924 16.183 13.4921 16.1835C13.4926 16.1834 13.4931 16.1834 13.4937 16.1833C13.4936 16.1828 13.4933 16.1823 13.4932 16.1818C13.5927 16.1796 13.6875 16.1438 13.7825 16.1121C13.7831 16.1123 13.7838 16.1125 13.7844 16.1127C13.8028 16.1048 13.8208 16.0956 13.8409 16.0869C13.8505 16.079 13.8599 16.071 13.8694 16.063C14.0005 15.9602 14.168 15.9174 14.3191 15.8486C14.28 15.8243 14.2355 15.8075 14.1792 15.842C14.0383 15.9272 13.9176 15.9164 13.805 15.8801ZM10.1533 16.5288C10.1616 16.5399 10.1696 16.5511 10.1767 16.5625C10.1746 16.5489 10.1669 16.5378 10.1533 16.5288ZM3.96774 12.71C3.96358 12.7144 3.95825 12.7188 3.95141 12.7229C3.94134 12.7285 3.92821 12.7315 3.92729 12.7476C3.94551 12.7853 3.97664 12.7923 4.0054 12.8033C3.99493 12.771 3.98408 12.739 3.96774 12.71ZM10.9564 16.487C10.9361 16.4693 10.9159 16.4564 10.8936 16.4481C10.8596 16.4355 10.8209 16.4337 10.7699 16.4415C10.7715 16.4419 10.7731 16.4423 10.7747 16.4428C10.8032 16.464 10.8356 16.4781 10.87 16.4882C10.8778 16.4881 10.8857 16.4881 10.8936 16.488C10.9145 16.4878 10.9355 16.4875 10.9564 16.487ZM7.74369 15.6324C7.70557 15.6061 7.66305 15.5911 7.6195 15.577C7.65277 15.6077 7.6776 15.6397 7.6467 15.6785C7.60427 15.7342 7.53048 15.6937 7.46385 15.6719C7.408 15.6527 7.35083 15.626 7.29573 15.6363C7.32897 15.6602 7.36294 15.6843 7.39598 15.7084C7.39635 15.7084 7.3969 15.7084 7.39728 15.7084C7.41795 15.7238 7.43989 15.7411 7.46089 15.7565C7.46177 15.7566 7.46267 15.7567 7.46357 15.7568C7.52134 15.7251 7.59728 15.7463 7.66563 15.7452C7.6675 15.6909 7.68759 15.6491 7.74369 15.6324ZM4.5207 13.3591C4.50644 13.3434 4.49278 13.3273 4.48012 13.3103C4.48445 13.3241 4.49171 13.3389 4.49876 13.3538C4.50625 13.3549 4.51353 13.3566 4.5207 13.3591ZM4.72354 13.5741C4.68724 13.5358 4.64894 13.4987 4.61292 13.46C4.61618 13.4838 4.63324 13.5084 4.64562 13.5328C4.65515 13.532 4.66488 13.5325 4.67539 13.5366C4.69015 13.5508 4.70667 13.5627 4.72354 13.5741ZM5.349 14.1192C5.34635 14.1291 5.34293 14.1379 5.337 14.144C5.27813 14.1551 5.22749 14.1262 5.17906 14.0897C5.19608 14.1105 5.20863 14.1336 5.21164 14.1621C5.22554 14.1508 5.24733 14.1491 5.2755 14.1547C5.32026 14.1638 5.35495 14.1596 5.36165 14.1179C5.35745 14.1185 5.35316 14.1187 5.349 14.1192ZM5.59605 14.4346C5.59856 14.4366 5.60102 14.4387 5.60355 14.4407C5.60507 14.4382 5.60687 14.436 5.60872 14.4339C5.60449 14.4341 5.60023 14.4342 5.59605 14.4346ZM10.3862 16.2733C10.3853 16.2881 10.3837 16.3029 10.3803 16.3176C10.3822 16.3177 10.3838 16.3184 10.3855 16.3186C10.3849 16.3038 10.3853 16.2889 10.3862 16.2733ZM15.1413 15.0151C15.1404 15.015 15.1396 15.015 15.1388 15.015C15.2079 15.0132 15.2682 14.9529 15.3362 14.9377C15.354 15.0571 15.2039 15.0874 15.1532 15.1662C15.0944 15.0956 15.0138 15.1025 14.9134 15.1561C14.8245 15.2031 14.732 15.2431 14.6403 15.2839C14.6232 15.2927 14.5922 15.3084 14.5982 15.2779C14.5998 15.2642 14.6273 15.2501 14.6433 15.2353C14.8109 15.1678 14.9774 15.0936 15.1413 15.0151ZM6.80206 15.1498C6.76511 15.1601 6.73756 15.1786 6.72504 15.2102C6.73049 15.2091 6.73591 15.2098 6.74155 15.2118C6.74672 15.1804 6.77162 15.1635 6.80206 15.1498ZM13.7432 15.7937C13.7389 15.8007 13.7363 15.8088 13.735 15.8183C13.7354 15.818 13.7357 15.8178 13.736 15.8176C13.7365 15.8097 13.7387 15.8018 13.7432 15.7937ZM8.6976 15.8048C8.69744 15.8436 8.67105 15.8719 8.63971 15.8984C8.69041 15.9304 8.7392 15.9748 8.80168 15.9408C8.73854 15.9108 8.73579 15.8486 8.6976 15.8048ZM5.86875 14.4188C5.84677 14.4164 5.82446 14.4118 5.80197 14.4037C5.80443 14.4121 5.80529 14.4195 5.80465 14.4258C5.82593 14.4234 5.84714 14.4206 5.86875 14.4188ZM10.9469 3.46802C10.9518 3.46805 10.9568 3.46823 10.9618 3.46827C10.9592 3.46659 10.9567 3.46492 10.9541 3.46343C10.951 3.46487 10.9477 3.46628 10.9448 3.46801C10.9443 3.46801 10.9438 3.468 10.9434 3.468C10.9445 3.46896 10.9458 3.46983 10.9469 3.47084C10.9469 3.4699 10.9469 3.46896 10.9469 3.46802ZM11.6054 15.9899C11.651 15.9601 11.6989 15.8963 11.7518 15.9792C11.7525 15.9796 11.7532 15.98 11.7539 15.9804C11.6589 16.0044 11.7799 16.0634 11.712 16.0918C11.6481 16.1269 11.5786 16.1384 11.5336 16.0869C11.489 16.0367 11.5673 16.0164 11.6054 15.9899ZM7.45416 4.26061C7.45359 4.26138 7.45285 4.26208 7.4523 4.26287C7.45249 4.26304 7.45275 4.26317 7.45294 4.26335C7.4533 4.26242 7.45378 4.26152 7.45416 4.26061ZM10.6766 16.0605C10.7603 16.0244 10.8286 16.0563 10.8936 16.0591C10.9046 16.0595 10.9155 16.0591 10.9263 16.0574C10.9155 16.0633 10.9046 16.0687 10.8936 16.0734C10.831 16.1004 10.7631 16.1068 10.6766 16.0605ZM5.71205 14.1076C5.7197 14.104 5.71786 14.1012 5.70741 14.1019C5.7091 14.1037 5.71056 14.1057 5.71205 14.1076ZM3.86893 10.8569C3.86827 10.8583 3.86767 10.8597 3.86699 10.8609C3.86801 10.8629 3.8692 10.8648 3.87018 10.8668C3.8703 10.866 3.87062 10.8654 3.87075 10.8646C3.87016 10.8621 3.86951 10.8595 3.86893 10.8569ZM4.02677 11.312C4.02651 11.3112 4.02619 11.3104 4.02593 11.3096C4.02659 11.3101 4.02726 11.3105 4.02793 11.311C4.02755 11.3113 4.02715 11.3117 4.02677 11.312ZM5.54655 13.745C5.5558 13.7551 5.5653 13.7653 5.57451 13.7758C5.56764 13.767 5.56047 13.7587 5.55337 13.7506C5.55109 13.7487 5.54882 13.7469 5.54655 13.745ZM5.3875 13.5563C5.38664 13.5557 5.38583 13.5551 5.38497 13.5546C5.38486 13.553 5.38476 13.5514 5.38465 13.5498C5.3855 13.552 5.38659 13.5542 5.3875 13.5563Z" fill="var(--stroke-0, #8A2E1E)"/>
</g>
</svg>
