<svg preserveAspectRatio="none" width="100%" height="100%" overflow="visible" style="display: block;" viewBox="0 0 17.8501 18.037" fill="none" xmlns="http://www.w3.org/2000/svg">
<g id="Ellipse 34" style="mix-blend-mode:multiply">
<path d="M15.119 16.6356C15.1643 16.6 15.2397 16.5365 15.2409 16.5771C15.2415 16.6259 15.1421 16.6919 15.0839 16.7476C15.0353 16.784 14.9707 16.8314 14.9674 16.8042C14.9622 16.7605 15.0485 16.6925 15.119 16.6356ZM2.95966 8.2102C2.95454 8.41703 2.95484 8.62423 2.96102 8.83295C2.97005 9.1368 2.99146 9.43725 3.02676 9.73676C3.06149 10.0318 3.11992 10.322 3.1554 10.6146C3.15574 10.6153 3.15599 10.6161 3.15633 10.6167C3.15638 10.6171 3.15645 10.6175 3.15649 10.6179C3.15661 10.618 3.1567 10.6182 3.15681 10.6183C3.15672 10.6183 3.15664 10.6184 3.15655 10.6184C3.18427 10.8609 3.27028 11.1003 3.36197 11.3332C3.36156 11.3334 3.36105 11.3333 3.36064 11.3334C3.36103 11.334 3.36141 11.3345 3.36179 11.3351C3.45134 11.5658 3.57056 11.784 3.71592 11.985C3.85774 12.1819 3.96545 12.3965 4.1033 12.5963C4.22901 12.779 4.38581 12.9377 4.56499 13.0516C4.56596 13.0525 4.56695 13.0534 4.56793 13.0543C4.56753 13.0536 4.56721 13.0529 4.5668 13.0522C4.63604 13.0818 4.70531 13.1262 4.76621 13.1837C5.09615 13.4895 5.45944 13.7603 5.84548 13.9862C5.84588 13.9857 5.8462 13.9851 5.84663 13.9846C6.18977 14.19 6.55352 14.3578 6.92794 14.493C7.31794 14.6339 7.72091 14.7392 8.13113 14.801C8.21809 14.814 8.30554 14.8338 8.39135 14.8477C8.39231 14.8484 8.39344 14.849 8.39442 14.8497C8.58745 14.8631 8.77771 14.8804 8.97108 14.8919C9.00279 14.8938 9.03445 14.8955 9.06606 14.897C9.06571 14.8974 9.06527 14.8977 9.06492 14.898C9.06584 14.8977 9.06677 14.8973 9.06771 14.897C9.86496 14.8736 10.6482 14.705 11.3793 14.4004C11.4457 14.3726 11.5157 14.3524 11.5817 14.3272C11.8051 14.2029 12.0337 14.0908 12.253 13.958C12.3878 13.8941 12.5177 13.8191 12.6401 13.7283C13.2712 13.3428 13.8361 12.8399 14.3424 12.2813C14.4204 12.1951 14.5006 12.1255 14.5779 12.0484C14.5734 12.0575 14.5684 12.0664 14.5636 12.0753C14.5679 12.0695 14.5723 12.0639 14.5766 12.0581C14.577 12.0548 14.5775 12.0516 14.5779 12.0484C14.7367 11.8578 14.8653 11.633 14.9906 11.411C15.0088 11.3794 15.0266 11.3479 15.0443 11.3161C15.049 11.3066 15.0538 11.297 15.0585 11.2874C15.1303 11.146 15.2187 11.0478 15.307 10.9442C15.3067 10.944 15.3064 10.9439 15.3062 10.9437C15.3144 10.931 15.3266 10.906 15.3308 10.9054C15.4196 10.9209 15.4976 10.8491 15.5595 10.6858C15.5669 10.6663 15.5843 10.6534 15.5976 10.6374C15.5975 10.6386 15.5974 10.6398 15.5973 10.6409C15.5977 10.6399 15.5981 10.6387 15.5986 10.6376C15.6844 10.4855 15.7643 10.3268 15.839 10.1657C15.8387 10.1654 15.8384 10.1649 15.838 10.1646C15.8394 10.1622 15.8409 10.1599 15.8423 10.1575C15.84 10.1394 15.8379 10.1195 15.8354 10.1014C15.8351 10.0348 15.8467 9.97036 15.8847 9.94297C15.915 9.92215 15.9275 9.87892 15.9442 9.83622C16.0148 9.65214 16.0196 9.63718 16.0566 9.80552C16.061 9.78807 16.0647 9.77005 16.0676 9.75129C16.0675 9.74826 16.0675 9.74513 16.0674 9.74211C16.0674 9.64574 16.0656 9.549 16.0617 9.45362C16.062 9.45365 16.0623 9.45368 16.0626 9.4537C16.0633 9.44586 16.064 9.43802 16.0646 9.43017C16.0932 9.41298 16.0948 9.25183 16.1454 9.34891C16.1709 9.37872 16.1848 9.3178 16.2037 9.30484C16.2235 9.29157 16.2455 9.27819 16.2421 9.33638C16.2423 9.33618 16.2425 9.33583 16.2427 9.33563C16.2435 9.33651 16.2442 9.33765 16.2449 9.33855C16.2468 9.33269 16.2489 9.32692 16.2513 9.32196C16.2854 9.28359 16.2685 9.19284 16.2919 9.1538C16.3722 9.21381 16.4526 9.24151 16.5351 9.25017C16.5358 9.2376 16.5374 9.22495 16.539 9.21258C16.6128 9.12178 16.6897 9.19002 16.7637 9.15266C16.7724 9.14871 16.782 9.14902 16.791 9.13858C16.7961 9.12799 16.8021 9.12166 16.8077 9.124C16.8081 9.12401 16.8085 9.12443 16.8088 9.12446C16.8157 9.11258 16.8232 9.10238 16.8299 9.09023C16.8305 9.09219 16.8308 9.09447 16.8313 9.09643C16.8548 9.1295 16.8635 9.2048 16.8953 9.21029C16.8958 9.20892 16.8963 9.20747 16.8968 9.20609C16.8998 9.16251 16.9041 9.12107 16.923 9.09752C16.9231 9.09822 16.9232 9.09897 16.9233 9.09967C16.9235 9.09968 16.9237 9.09969 16.9239 9.09969C16.9541 9.07874 16.972 9.02845 16.9731 8.95749C16.9745 8.84664 17.0062 8.83294 17.0426 8.83295C17.0426 8.83295 17.0426 8.83295 17.0426 8.83295C17.0425 8.86106 17.0441 8.88715 17.0448 8.91507C17.0452 8.91543 17.0456 8.91558 17.0459 8.91596C17.0456 8.91595 17.0453 8.91595 17.045 8.91595C17.0571 8.94517 17.069 8.97228 17.0808 9.00169C17.0927 9.02439 17.1047 9.04493 17.1164 9.06778C17.1387 9.05713 17.1422 8.98302 17.1677 8.98551C17.199 8.9184 17.2359 8.95148 17.271 8.96877C17.2803 9.0402 17.2868 9.11398 17.2962 9.18556C17.3042 9.24535 17.3309 9.3143 17.3503 9.27341C17.4492 9.06921 17.4417 9.3148 17.4606 9.40671C17.503 9.43803 17.4722 9.20835 17.5278 9.30633C17.5278 9.30641 17.5277 9.30649 17.5277 9.30656C17.5283 9.30663 17.529 9.30632 17.5297 9.30643C17.5384 9.3212 17.5471 9.33617 17.5557 9.35102C17.5651 9.43522 17.5665 9.53072 17.6001 9.60318C17.6237 9.47564 17.6067 9.37044 17.6111 9.26287C17.6528 9.27401 17.6526 9.36354 17.6584 9.43806C17.7735 9.35214 17.8634 9.55156 17.8485 9.82047C17.8484 9.82136 17.8483 9.82224 17.8482 9.82312C17.8449 9.87004 17.8413 9.91689 17.8373 9.96366C17.8366 9.96734 17.8359 9.97114 17.8352 9.97483C17.8539 10.1716 17.8438 10.3901 17.8283 10.6052C17.8291 10.6065 17.8298 10.6081 17.8306 10.6094C17.8362 10.6105 17.8408 10.6165 17.8454 10.6225C17.838 10.8177 17.8324 11.0109 17.7671 11.2222C17.7625 11.2363 17.7579 11.2505 17.7532 11.2646C17.7389 11.4023 17.6939 11.5387 17.649 11.676C17.5257 12.0525 17.3767 12.422 17.2046 12.7788C17.0321 13.1362 16.8367 13.4813 16.6194 13.8129C16.6156 13.8197 16.6119 13.8264 16.6081 13.8332C16.6047 13.8387 16.601 13.8442 16.5971 13.8501C16.6212 13.8315 16.6525 13.8145 16.6681 13.7903C16.8631 13.4776 17.0915 13.2654 17.2662 12.9505C17.2681 12.9482 17.27 12.9456 17.2719 12.9433C17.339 12.8079 17.4024 12.6719 17.4628 12.5334C17.4636 12.5325 17.4643 12.5317 17.465 12.5308C17.4643 12.5308 17.4637 12.5307 17.463 12.5308C17.5307 12.3644 17.59 12.3671 17.6515 12.3275C17.6506 12.33 17.6496 12.3325 17.6488 12.3349C17.6496 12.3334 17.6505 12.332 17.6513 12.3305C17.6513 12.3295 17.6514 12.3285 17.6515 12.3275C17.683 12.2593 17.7006 12.183 17.76 12.0971C17.7192 12.3112 17.7248 12.4617 17.7212 12.6205C17.7238 12.6336 17.7267 12.6478 17.7291 12.664C17.7328 12.6887 17.7362 12.7163 17.7386 12.7435C17.7375 12.8274 17.7319 12.9162 17.6751 13.0402C17.6757 13.0375 17.6763 13.0348 17.6769 13.0321C17.6152 13.1658 17.6263 13.2372 17.6221 13.3201C17.6154 13.4743 17.534 13.649 17.4163 13.7148C17.2149 13.8269 17.0447 14.0692 16.8566 14.3202C16.8297 14.3563 16.8027 14.3922 16.7753 14.4278C16.7713 14.435 16.7673 14.4422 16.7632 14.4494C16.7089 14.5411 16.6347 14.6045 16.5685 14.6789C16.5585 14.6907 16.5485 14.7025 16.5385 14.7143C16.3648 14.9381 16.1811 15.1542 15.9884 15.3618C15.9881 15.3615 15.9878 15.3613 15.9875 15.361C15.9872 15.3619 15.987 15.3627 15.9866 15.3637C15.9091 15.4651 15.831 15.5635 15.7259 15.6383C15.7258 15.6383 15.7258 15.6383 15.7257 15.6384C15.6875 15.6737 15.6496 15.7093 15.6127 15.7422C15.6123 15.7422 15.6118 15.7422 15.6113 15.7423C15.6108 15.7437 15.61 15.7452 15.6095 15.7466C15.4482 15.9007 15.2708 15.9552 15.0979 16.1371C14.9853 16.2565 14.8496 16.3744 14.6993 16.4683C14.2973 16.7745 14.1617 16.9286 14.228 17.1094C14.2493 17.168 14.2073 17.2494 14.122 17.3479C14.0969 17.3631 14.0712 17.3773 14.0457 17.3918C14.0366 17.4002 14.0269 17.4088 14.0163 17.4176C13.6838 17.6019 13.6208 17.6004 13.5637 17.4867C13.5286 17.4213 13.4261 17.3924 13.439 17.2973C13.444 17.2559 13.3379 17.2926 13.2673 17.3101C13.1934 17.3274 13.1096 17.3524 13.1431 17.2903C13.2196 17.1987 13.4138 17.1769 13.4793 17.0788C13.4792 17.0787 13.4792 17.0786 13.4792 17.0786C13.4073 17.0968 13.318 17.1439 13.229 17.1832C12.9942 17.2867 12.8289 17.4428 12.5854 17.525C12.5631 17.5304 12.5454 17.5329 12.5308 17.5337C12.3238 17.5663 12.2999 17.535 12.4608 17.4115C12.6244 17.2838 12.6774 17.1411 12.9715 17.017C12.9724 17.0169 12.9733 17.0168 12.9742 17.0167C13.5371 16.7152 14.0667 16.3713 14.5957 16.0172C14.9489 15.7805 15.2669 15.4796 15.5584 15.1651C15.7888 14.9171 16.0036 14.663 16.223 14.4078C16.2257 14.4019 16.2292 14.3958 16.2331 14.3896C16.2372 14.3834 16.2413 14.3771 16.2454 14.3708C16.2411 14.3701 16.2369 14.3695 16.2327 14.3689C16.1694 14.3674 16.1 14.4823 16.04 14.5489C15.8115 14.8027 15.5749 15.0479 15.3215 15.2779C15.3192 15.2813 15.3171 15.2847 15.3147 15.2882C14.8872 15.7165 14.4068 16.0926 13.8922 16.4048C13.882 16.4108 13.8718 16.4168 13.8616 16.4227C13.7491 16.4973 13.6358 16.568 13.5198 16.6377C13.5207 16.6377 13.5217 16.6375 13.5225 16.6375C13.5217 16.6379 13.521 16.6384 13.5202 16.6388C13.3865 16.7385 13.2418 16.8216 13.0894 16.8879C12.966 16.9639 12.8247 17.0088 12.6921 17.0592C12.6575 17.0724 12.6198 17.081 12.5826 17.0903C12.4833 17.1349 12.3855 17.1822 12.2881 17.2324C11.6622 17.4664 11.011 17.6062 10.3572 17.719C10.3555 17.7183 10.3543 17.7175 10.3527 17.7168C10.3517 17.7176 10.3505 17.7184 10.3496 17.7193C10.2996 17.727 10.2498 17.7342 10.1998 17.741C10.1991 17.7411 10.1985 17.7411 10.1978 17.7411C10.2002 17.7412 10.2026 17.7412 10.2049 17.7413C9.79473 17.7997 9.38431 17.8263 8.97108 17.8234C7.92629 17.8164 6.88618 17.6154 5.9109 17.2515C5.56276 17.1218 5.22252 16.9743 4.89226 16.805C4.89411 16.8013 4.89343 16.7963 4.89322 16.7915C4.88273 16.7851 4.87249 16.7785 4.86248 16.7716C4.75393 16.713 4.646 16.653 4.53914 16.5913C4.33293 16.4745 4.12999 16.3507 3.93663 16.2144C3.80144 16.1224 3.66916 16.0268 3.54018 15.9264C2.97821 15.5498 2.49232 15.061 2.06317 14.5368C2.04192 14.5126 2.01916 14.4802 1.99916 14.4645C1.67905 14.2238 1.4905 13.8352 1.27792 13.495C1.19763 13.3664 1.12997 13.2331 1.04942 13.104C0.877065 12.8293 0.775966 12.5296 0.7167 12.2521C0.671456 12.0386 0.59858 11.8323 0.53917 11.619C0.538803 11.6199 0.538436 11.6209 0.538069 11.6219C0.441287 11.356 0.374165 11.0437 0.370795 10.8271C0.359752 10.3166 0.217579 9.80919 0.239679 9.304C0.246694 9.14813 0.249685 8.99161 0.252554 8.83295C0.258952 8.47838 0.264997 8.12067 0.312671 7.76771C0.321435 7.69579 0.331077 7.62413 0.341583 7.55274C0.342218 7.55296 0.34283 7.55326 0.343447 7.55349C0.391914 7.24965 0.398029 6.94966 0.482132 6.65135C0.4824 6.64779 0.482772 6.64419 0.483068 6.6406C0.482295 6.64327 0.4816 6.64593 0.480826 6.64858C0.406626 6.70707 0.401417 6.854 0.366778 6.9611C0.360958 6.97308 0.356493 6.98623 0.352508 6.99975C0.357003 6.98829 0.362116 6.97561 0.367778 6.96132C0.311422 7.22141 0.266859 7.4848 0.23446 7.74835C0.199456 7.57959 0.241602 7.37952 0.258566 7.16852C0.225537 7.27696 0.201769 7.3578 0.166854 7.48489C0.167934 7.26401 0.201009 7.07448 0.18592 6.92093C0.186219 6.92084 0.186491 6.92095 0.18679 6.92087C0.186407 6.9201 0.186104 6.91914 0.185709 6.91839C0.185794 6.91922 0.185838 6.9201 0.18592 6.92093C0.185416 6.92108 0.184855 6.92143 0.184351 6.92158C0.184625 6.92031 0.184901 6.91904 0.185176 6.91778C0.18495 6.91735 0.184755 6.91681 0.184525 6.91639C0.201053 6.83753 0.218615 6.75903 0.237199 6.68092C0.238907 6.66599 0.241757 6.65391 0.245378 6.63946C0.245694 6.63821 0.246095 6.63698 0.246412 6.63572C0.242103 6.63455 0.238447 6.62924 0.235753 6.61903C0.251154 6.55808 0.267402 6.49654 0.284168 6.43567C0.296409 6.3016 0.345059 6.17577 0.396825 6.0531C0.671632 5.20426 1.07442 4.39769 1.58582 3.66799C1.56533 3.69297 1.54533 3.71861 1.52562 3.74446C1.32223 4.03202 1.14346 4.33764 0.962724 4.63762C0.871246 4.77369 0.812204 4.98899 0.692961 5.03072C0.695139 5.01231 0.697282 4.99394 0.700649 4.97323C1.00737 4.30066 1.40061 3.66201 1.8753 3.09558C1.87505 3.09643 1.8748 3.09728 1.87454 3.09814C1.88259 3.0954 1.88993 3.09487 1.8979 3.09237C1.94198 3.04272 1.98602 2.99914 2.03841 2.97907C2.02979 3.04065 1.9509 3.12129 1.92745 3.18574C1.91196 3.22768 1.86417 3.29477 1.88978 3.30535C1.92212 3.31799 1.97125 3.2432 2.01548 3.19942C2.01596 3.19981 2.01644 3.2002 2.01693 3.20059C2.01723 3.19978 2.01749 3.199 2.0178 3.19819C2.01556 3.19741 2.01332 3.19663 2.01107 3.19585C2.24454 2.94894 2.28687 2.93064 2.41272 2.99382C2.45628 3.01632 2.52176 2.94223 2.56815 2.91611C2.32833 3.2753 2.07504 3.63059 1.79419 3.99521C1.8634 3.91665 1.93385 3.83959 2.00547 3.76407C2.0101 3.75871 2.01469 3.75328 2.01938 3.74803C2.01846 3.74928 2.01755 3.75053 2.01663 3.75178C2.02582 3.74084 2.03579 3.73047 2.04579 3.72015C2.07133 3.68561 2.0962 3.65282 2.12271 3.61925C2.12613 3.61319 2.12956 3.60711 2.13299 3.60106C2.15684 3.57134 2.20229 3.51331 2.20383 3.51453C2.29769 3.57002 2.40611 3.37066 2.50108 3.27755C2.9465 2.83939 3.37373 2.37768 3.87996 2.00545C4.23294 1.74548 4.60581 1.51813 4.97473 1.27629C5.18534 1.13862 5.43143 1.02827 5.67973 0.960676C5.75072 0.941264 5.8256 0.913166 5.89884 0.886891C5.98265 0.855472 6.04124 0.816006 6.03486 0.777769C6.02959 0.735056 5.94524 0.768897 5.88092 0.787641C5.72214 0.833356 5.56746 0.896869 5.41547 0.966722C5.27851 1.02968 5.14206 1.10241 5.00134 1.15054C4.99182 1.15546 4.98226 1.16046 4.97276 1.16541C4.62176 1.30754 4.30281 1.55154 3.96232 1.70928C4.24583 1.47572 4.56824 1.28671 4.89233 1.11524C4.89386 1.11478 4.89539 1.11432 4.89693 1.11386C4.90255 1.11088 4.90814 1.10784 4.91376 1.10487C4.91049 1.10517 4.90694 1.10575 4.90369 1.10597C5.2309 0.892585 5.56988 0.696457 5.93498 0.532357C6.09317 0.461203 6.27237 0.40565 6.44538 0.363167C6.94864 0.237015 7.46185 0.154682 7.9708 0.132329C8.24296 0.120974 8.49024 0.174034 8.78072 0.148301C8.78613 0.148954 8.79175 0.149278 8.79717 0.149822C8.85501 0.148685 8.91298 0.148113 8.97108 0.148113C9.25912 0.148118 9.54573 0.16214 9.83092 0.190191C9.83146 0.190659 9.83229 0.191073 9.8329 0.191508C10.3077 0.25036 10.7861 0.331811 11.2376 0.482551C11.2438 0.484619 11.2503 0.486559 11.2565 0.48867C11.2789 0.494783 11.299 0.500407 11.3214 0.505815C11.3213 0.505764 11.3213 0.505713 11.3212 0.505662C11.4686 0.522001 11.6431 0.597154 11.7602 0.566695C11.7608 0.566546 11.7617 0.566552 11.7623 0.566416C11.6307 0.517956 11.4879 0.48363 11.3703 0.411686C11.6799 0.496771 11.994 0.574942 12.2865 0.71923C12.2866 0.719289 12.2867 0.719347 12.2867 0.719406C12.386 0.761189 12.4619 0.808225 12.4258 0.849108C12.3939 0.886099 12.3057 0.849105 12.2234 0.816833C12.1792 0.798858 12.1354 0.779463 12.0901 0.76397C12.0107 0.737023 11.8893 0.670819 11.8621 0.697742C11.8261 0.735246 11.9827 0.777411 12.0366 0.823034C12.038 0.823876 12.0393 0.824719 12.0406 0.825562C12.0341 0.822925 12.0276 0.820305 12.0211 0.817682C12.0259 0.820352 12.0308 0.82303 12.0356 0.825727C12.0489 0.830812 12.0614 0.837713 12.0765 0.844601C12.0819 0.847203 12.0874 0.849784 12.0929 0.85238C12.0885 0.8495 12.084 0.846631 12.0796 0.843705C12.2721 0.918221 12.4772 1.03401 12.6439 1.07981C13.1122 1.20646 13.4662 1.51575 13.8447 1.77635C13.9131 1.82329 14.0259 1.89433 14.0112 1.9463C13.9964 1.99806 13.893 1.95285 13.8059 1.92691C13.7684 1.91535 13.658 1.81716 13.6985 1.91046C13.6991 1.91089 13.6998 1.91131 13.7004 1.91174C13.6968 1.90931 13.6932 1.90695 13.6897 1.90453C13.6928 1.90745 13.6962 1.91033 13.6993 1.91327C13.7755 1.96543 13.8483 2.01829 13.9221 2.07357C13.9229 2.07336 13.9235 2.073 13.9243 2.0728C13.952 2.08599 13.9777 2.09801 14.0053 2.11153C14.0294 2.28805 14.2738 2.45264 14.4373 2.63136C14.2733 2.48665 14.1036 2.3485 13.9286 2.21712C13.9276 2.21715 13.9267 2.21726 13.9257 2.21727C13.926 2.21677 13.9264 2.21628 13.9268 2.21578C13.9037 2.19964 13.8806 2.18365 13.8574 2.16777C13.8188 2.17021 13.841 2.20534 13.8605 2.23997C13.9557 2.30285 14.0414 2.37438 14.1224 2.44953C14.1797 2.49204 14.2371 2.53429 14.295 2.57608C14.33 2.61212 14.3552 2.64913 14.3799 2.68612C14.3894 2.69578 14.399 2.70544 14.4108 2.71593C14.4368 2.75816 14.4828 2.78826 14.5191 2.82569C14.5571 2.8645 14.6229 2.91011 14.5975 2.9399C14.58 2.96139 14.5354 2.94633 14.4844 2.90924C14.3567 2.81641 14.2252 2.73353 14.0954 2.63225C14.0051 2.56199 13.9115 2.49731 13.816 2.44257C13.9224 2.52625 14.0305 2.6126 14.0644 2.71789C14.1925 2.83586 14.3154 2.95565 14.4352 3.08127C14.4938 3.16575 14.5943 3.22631 14.6452 3.3115C14.6366 3.36237 14.5429 3.23465 14.5366 3.28393C14.5304 3.32078 14.5873 3.36783 14.6092 3.40992C14.658 3.46203 14.7041 3.51388 14.7514 3.56726C14.8419 3.68058 14.9457 3.78801 15.0304 3.9057C15.1555 4.08839 15.2368 4.27941 15.365 4.46631C15.3825 4.50368 15.4004 4.54062 15.4173 4.57812C15.4263 4.60547 15.4496 4.64843 15.4111 4.63294C15.4118 4.63166 15.4125 4.63039 15.4132 4.62911C15.3306 4.50292 15.245 4.37812 15.1546 4.25465C14.916 3.9282 14.6508 3.62085 14.3614 3.33823C14.3219 3.29944 14.2722 3.27421 14.2282 3.24979C14.1826 3.22391 14.1408 3.23205 14.1663 3.26625C14.2766 3.41102 14.2576 3.53356 14.4241 3.70028C14.5831 3.86076 14.7327 4.03302 14.8817 4.20613C14.9126 4.24253 14.9433 4.2794 14.9686 4.31762C15.0026 4.36744 15.0152 4.41225 14.995 4.43465C14.9835 4.44604 14.9674 4.44239 14.9492 4.42965C15.0172 4.52368 15.0814 4.62854 15.1128 4.75996C15.0415 4.65266 14.9672 4.54704 14.8904 4.44364C14.8904 4.44418 14.8905 4.44478 14.8905 4.44532C14.8406 4.38615 14.8 4.31399 14.7084 4.24667C14.7708 4.34499 14.8309 4.4447 14.8882 4.5453C14.9036 4.56654 14.9189 4.58786 14.9341 4.60927C15.0287 4.78697 15.1674 4.93231 15.26 5.11063C15.3181 5.22161 15.3762 5.33529 15.4291 5.44833C15.5169 5.61772 15.6473 5.75805 15.697 5.95336C15.7131 6.01475 15.728 6.07603 15.741 6.1373C15.7932 6.23504 15.8398 6.33684 15.8404 6.45289C15.8398 6.45232 15.8392 6.45175 15.8387 6.45119C15.8509 6.47952 15.8629 6.50796 15.8747 6.53651C15.8932 6.59807 15.911 6.66041 15.9277 6.72211C15.8435 6.68326 15.8477 6.55204 15.8077 6.46627C15.7981 6.44351 15.7884 6.42083 15.7786 6.39822C15.7783 6.39692 15.7778 6.39557 15.7775 6.39427C15.7776 6.39568 15.7777 6.39713 15.7777 6.39853C15.6735 6.21988 15.6259 6.01525 15.5563 5.83085C15.4372 5.5132 15.2504 5.24848 15.0486 4.99348C15.193 5.22153 15.3243 5.45731 15.4421 5.70016C15.4432 5.70088 15.4443 5.70178 15.4454 5.70246C15.5321 5.88543 15.6293 6.06597 15.6792 6.2625C15.6824 6.27562 15.6855 6.28876 15.6885 6.3019C15.7466 6.47475 15.7997 6.65212 15.8421 6.82863C15.8514 6.86699 15.8891 6.94263 15.8413 6.93738C15.8096 6.93377 15.7799 6.90777 15.7768 6.82932C15.7728 6.72457 15.7293 6.63196 15.675 6.54935C15.6278 6.43137 15.5782 6.31402 15.5247 6.19893C15.5247 6.15054 15.503 6.10049 15.484 6.05113C15.4154 5.89087 15.3403 5.73401 15.2593 5.57982C15.259 5.57991 15.2586 5.57981 15.2583 5.57991C15.2416 5.53731 15.2244 5.49373 15.2069 5.45078C15.191 5.43753 15.175 5.42527 15.1585 5.41403C15.1376 5.39205 15.1128 5.36343 15.105 5.33642C15.0565 5.1678 14.9487 5.03982 14.8423 4.91504C14.849 4.93444 14.8557 4.95418 14.8558 4.97044C14.8225 4.96836 14.7951 4.90935 14.7645 4.89146C14.7625 4.89047 14.7605 4.88948 14.7584 4.8885C14.7793 4.93725 14.8016 4.98498 14.8252 5.03232C14.8351 5.04185 14.845 5.05103 14.8544 5.05922C14.9365 5.18335 15.0172 5.30905 15.0677 5.44667C15.0856 5.48742 15.1037 5.52802 15.1188 5.56722C15.1311 5.58995 15.1433 5.61275 15.1552 5.63569C15.1549 5.63583 15.1547 5.63598 15.1544 5.63612C15.1445 5.62525 15.138 5.61147 15.1304 5.59824C15.1314 5.6012 15.1324 5.60414 15.1334 5.60707C15.1397 5.61742 15.1465 5.62739 15.1544 5.63612C15.1614 5.64758 15.1683 5.65694 15.1753 5.66845C15.1845 5.67998 15.1938 5.69155 15.2029 5.70316C15.2558 5.77418 15.2934 5.85429 15.3175 5.9401C15.3212 5.95454 15.3249 5.96898 15.3285 5.98344C15.3266 6.01172 15.3237 6.04043 15.3214 6.06858C15.3171 6.07044 15.3132 6.07288 15.3093 6.07569C15.363 6.24697 15.3815 6.41729 15.4473 6.59295C15.4539 6.61868 15.4603 6.64445 15.4666 6.67026C15.4721 6.70495 15.4773 6.73967 15.4823 6.77442C15.4832 6.81187 15.5093 6.86857 15.477 6.88026C15.4763 6.88008 15.4756 6.87977 15.4748 6.87957C15.4864 6.95775 15.4549 6.99985 15.4495 7.06456C15.4489 7.07043 15.4485 7.07651 15.4481 7.08259C15.4489 7.07647 15.4497 7.07043 15.4504 7.06432C15.4558 7.08785 15.4606 7.10964 15.4658 7.13324C15.4623 7.18786 15.4594 7.24342 15.4523 7.29612C15.4439 7.36045 15.4176 7.39227 15.3783 7.3862C15.3357 7.37901 15.3339 7.30733 15.3194 7.26075C15.3037 7.21279 15.2838 7.16004 15.2566 7.15056C15.1918 7.12513 15.1994 7.04929 15.1856 6.98615C15.1712 6.91055 15.1662 6.82716 15.21 6.82627C15.2832 6.82478 15.3048 6.7411 15.3305 6.66534C15.3257 6.65748 15.321 6.64956 15.3162 6.64211C15.2955 6.61404 15.2826 6.57747 15.2664 6.54411C15.2379 6.48141 15.2263 6.41564 15.202 6.35176C15.1797 6.38115 15.1491 6.36615 15.1078 6.30229C15.1025 6.31728 15.089 6.32198 15.0811 6.33426C15.0814 6.3499 15.0847 6.36822 15.0826 6.38082C15.0761 6.43035 15.1242 6.53797 15.0844 6.53549C15.0626 6.53399 15.0437 6.51557 15.0266 6.48911C14.995 6.47578 14.9652 6.43171 14.9415 6.37791C14.939 6.37213 14.9368 6.36619 14.9345 6.36034C14.9545 6.41762 14.9791 6.47565 14.9874 6.53204C14.992 6.59646 14.9967 6.66254 14.9703 6.6819C14.9694 6.70403 14.9674 6.72589 14.9637 6.7472C14.9429 6.81554 14.9042 6.82604 14.8463 6.77543C14.8424 6.76765 14.8385 6.75972 14.8348 6.75179C14.809 6.78209 14.781 6.7503 14.7501 6.69388C14.7102 6.62161 14.6853 6.54019 14.6443 6.46918C14.6148 6.40824 14.5982 6.33721 14.5486 6.29286C14.502 6.20442 14.4422 6.12297 14.4151 6.02483C14.4156 6.02392 14.4162 6.02318 14.4167 6.02231C14.416 6.02207 14.4152 6.02165 14.4144 6.02143C14.386 5.92916 14.4528 5.93482 14.461 5.8802C14.4607 5.87808 14.4604 5.87591 14.4602 5.87378C14.4342 5.82577 14.4076 5.77802 14.3804 5.73072C14.1249 5.62989 14.0626 5.35518 13.8989 5.11362C13.9742 5.14241 14.0246 5.15284 14.0769 5.2197C14.0769 5.22015 14.077 5.22071 14.0769 5.22115C14.0785 5.22281 14.0799 5.22457 14.0814 5.22624C14.08 5.22406 14.0784 5.22188 14.0769 5.2197C14.222 5.36805 14.3228 5.5597 14.4471 5.72841C14.4476 5.72875 14.4482 5.72909 14.4487 5.72943C14.4847 5.77524 14.4988 5.84864 14.5636 5.87135C14.4745 5.62549 14.4378 5.37068 14.2242 5.16087C14.2236 5.16054 14.2231 5.16033 14.2225 5.15999C14.2213 5.15885 14.2201 5.1577 14.2189 5.15655C14.1216 5.08035 14.0687 4.94041 13.9628 4.87268C13.9626 4.87296 13.9623 4.87316 13.9621 4.87345C13.9679 4.8914 13.9837 4.91924 13.9783 4.92787C13.9702 4.94528 13.9475 4.92084 13.9367 4.90262C13.8557 4.77122 13.7162 4.67267 13.6693 4.51769C13.637 4.40969 13.465 4.32385 13.428 4.3964C13.3803 4.48758 13.3273 4.39728 13.2682 4.33182C13.1838 4.23815 13.1245 4.1362 13.0529 4.04C13.0524 4.03911 13.0519 4.03822 13.0514 4.03734C13.0393 4.02511 13.0214 4.01176 13.0199 4.00337C13.0015 3.89245 12.9375 3.78636 12.7912 3.69142C12.8992 3.7499 13.0113 3.78966 13.0895 3.88956C13.0897 3.88984 13.09 3.8901 13.0902 3.89038C13.0914 3.89198 13.0926 3.8936 13.0938 3.89524C13.0978 3.90042 13.1018 3.90577 13.1054 3.91124C13.1056 3.91137 13.1059 3.91152 13.1062 3.91165C13.1064 3.91214 13.1065 3.91263 13.1067 3.91312C13.1445 3.93388 13.1817 3.9556 13.2317 3.98445C13.2096 3.90915 13.1273 3.86421 13.0959 3.80645C13.0978 3.80802 13.0998 3.80962 13.1018 3.81118C13.1005 3.80975 13.0991 3.80829 13.0978 3.80685C12.9907 3.7055 12.9262 3.58343 12.7933 3.49711C12.7931 3.49736 12.7929 3.49761 12.7927 3.49787C12.7373 3.44755 12.6809 3.39789 12.617 3.34277C12.6771 3.33131 12.7342 3.3194 12.7931 3.30932C12.7809 3.29879 12.7687 3.28829 12.7564 3.27783C12.5706 3.12297 12.3549 3.01103 12.1379 2.904C11.9984 2.83544 11.831 2.81094 11.7217 2.69245C11.7165 2.68784 11.7115 2.68303 11.7065 2.67801C11.6535 2.66901 11.599 2.66409 11.5486 2.6215C11.6079 2.59966 11.6767 2.66212 11.7624 2.66245C11.6174 2.59672 11.4708 2.53644 11.3214 2.48114C11.3216 2.48052 11.3219 2.47991 11.3221 2.4793C11.3203 2.47669 11.3184 2.47397 11.3165 2.47119C11.3125 2.4701 11.3085 2.46881 11.3045 2.46776C10.7942 2.24062 10.2451 2.2131 9.707 2.15357C9.68165 2.16231 9.65263 2.17072 9.62369 2.1641C9.39804 2.11313 9.1854 2.14852 8.97108 2.1747C8.92 2.18095 8.8689 2.18673 8.81731 2.19082C8.76696 2.20457 8.71372 2.21226 8.66035 2.21742C8.58384 2.25468 8.50816 2.29215 8.38591 2.28229C8.38582 2.28195 8.38573 2.28162 8.38564 2.28128C8.15395 2.32621 7.92597 2.38339 7.70367 2.45218C7.7611 2.45346 7.81848 2.4555 7.87579 2.45828C7.65602 2.56747 7.46986 2.575 7.27796 2.53448C7.27038 2.53568 7.2628 2.53689 7.25523 2.53811C7.14234 2.55889 7.0463 2.61331 6.94984 2.65988C6.66841 2.79489 6.39042 2.90795 6.09606 3.00064C6.06547 3.02012 6.03123 3.03707 6.0059 3.06165C5.94649 3.10815 5.94891 3.14066 6.01049 3.15913C5.84684 3.2276 5.70642 3.3198 5.57817 3.42747C5.55231 3.44935 5.52078 3.4752 5.4931 3.48761C5.45275 3.50511 5.41331 3.52445 5.37454 3.54511C5.33513 3.57735 5.27501 3.61042 5.23638 3.63833C4.95624 3.84245 4.69017 4.06684 4.47026 4.33118C4.40956 4.38515 4.34958 4.43779 4.2943 4.49737C4.26917 4.52446 4.24353 4.55099 4.22429 4.58007C4.24015 4.57397 4.25556 4.56807 4.27069 4.5624C4.29239 4.53197 4.31532 4.50186 4.34124 4.47358C4.36746 4.44991 4.39324 4.42584 4.41995 4.40522C4.45783 4.3758 4.50012 4.35114 4.51724 4.37575C4.53637 4.40235 4.49711 4.43903 4.46523 4.47342C4.21142 4.74923 3.97266 5.04324 3.78558 5.367C3.55573 5.72345 3.35915 6.1026 3.23107 6.50114C3.21663 6.54022 3.20518 6.58119 3.1929 6.62163C3.15806 6.74103 3.12757 6.85969 3.09978 6.98072C3.0817 7.05699 3.06222 7.12828 3.14267 7.09082C3.20583 7.06276 3.18443 7.13627 3.16836 7.19734C3.16791 7.19778 3.16747 7.19822 3.16702 7.19865C3.16675 7.19861 3.16649 7.19847 3.16622 7.19843C3.15888 7.22915 3.15177 7.25996 3.14491 7.29085C3.14159 7.2944 3.13871 7.29885 3.13601 7.30349C3.13921 7.3002 3.14235 7.29671 3.14535 7.29281C3.13982 7.31377 3.13662 7.34542 3.1283 7.35529C2.99888 7.4836 2.98956 7.68483 2.9636 7.87013C2.96358 7.8703 2.96355 7.87046 2.96353 7.87062C2.96314 7.98312 2.98451 8.08949 2.96076 8.2085C2.96032 8.2087 2.9599 8.2092 2.95944 8.20952C2.95954 8.2097 2.95956 8.21002 2.95966 8.2102ZM0.38789 12.5452C0.439406 12.6469 0.401909 12.7064 0.394673 12.773C0.38984 12.8125 0.367853 12.8285 0.355177 12.8576C0.354886 12.8571 0.354622 12.8565 0.354331 12.856C0.354272 12.8558 0.354146 12.8555 0.354089 12.8552C0.354025 12.8552 0.353961 12.8551 0.353896 12.8551C0.354058 12.8553 0.35417 12.8557 0.354331 12.856C0.362731 12.8896 0.373222 12.9251 0.381987 12.9586C0.395057 13.0166 0.420654 13.0895 0.373897 13.0744C0.356796 13.0592 0.329518 13.025 0.322956 13.0311C0.226845 13.0989 0.157802 12.92 0.0989438 12.726C0.100034 12.7269 0.101113 12.7274 0.102273 12.7283C0.100461 12.7259 0.0985913 12.7236 0.0967318 12.721C0.0724097 12.6584 0.0486768 12.5954 0.0249034 12.533C0.0235685 12.5075 0.0144231 12.4624 0.0231928 12.4587C0.0910628 12.4222 0.0918312 12.3255 0.00776362 12.117C-0.0094384 12.0755 0.00409687 12.0538 0.0273415 12.0677C0.0804118 12.2223 0.161228 12.3215 0.233113 12.4385C0.233438 12.4393 0.233763 12.4401 0.234087 12.4409C0.245941 12.4671 0.257936 12.4932 0.270042 12.5193C0.270509 12.5205 0.270846 12.5217 0.271285 12.5229C0.271203 12.5225 0.271122 12.5221 0.271042 12.5216C0.319257 12.5521 0.330786 12.4315 0.38789 12.5452ZM0.923636 3.5899C0.867722 3.68024 0.79433 3.80937 0.748061 3.81238C0.683806 3.81688 0.792714 3.68316 0.818476 3.61394C0.822384 3.60899 0.826296 3.60405 0.830212 3.59912C0.834078 3.59311 0.837952 3.58711 0.84183 3.58112C0.84157 3.58095 0.84131 3.58078 0.841049 3.58061C0.890832 3.53642 0.953846 3.41174 0.987351 3.44407C1.0023 3.45754 0.95674 3.53548 0.923636 3.5899ZM1.4896 14.4219C1.60973 14.5905 1.75072 14.7273 1.81004 14.8872C1.81029 14.8883 1.81034 14.8893 1.81056 14.8904C1.89421 15.0552 1.75357 14.9524 1.70483 14.9146C1.57289 14.8129 1.57893 14.7365 1.58884 14.6758C1.58959 14.6769 1.59032 14.678 1.59107 14.6792C1.59055 14.6778 1.5902 14.6765 1.58964 14.6751C1.58937 14.6754 1.58911 14.6756 1.58884 14.6758C1.54635 14.5934 1.47001 14.4914 1.4896 14.4219ZM5.79433 17.6782C5.87675 17.6714 5.97393 17.7061 6.06595 17.751C6.09161 17.7633 6.11363 17.7791 6.13193 17.79C6.10931 17.8081 6.06473 17.7958 6.02919 17.7881C5.94478 17.7694 5.85255 17.7709 5.78308 17.7095C5.77068 17.698 5.77745 17.6792 5.79433 17.6782ZM0.93492 12.9811C1.03984 13.1634 1.15749 13.3372 1.2206 13.5327C1.26005 13.6526 1.34085 13.7568 1.42479 13.8603C1.59099 14.063 1.75035 14.2695 1.88783 14.4932C1.87564 14.4901 1.86547 14.4789 1.85906 14.4617C1.72111 14.3182 1.58756 14.1699 1.45852 14.0167C1.45278 14.0207 1.44705 14.0246 1.44131 14.0286C1.54583 14.1798 1.65472 14.3277 1.7681 14.4723C1.76989 14.4752 1.77189 14.4782 1.7737 14.4811C1.77212 14.478 1.77033 14.4748 1.76883 14.4717C1.87769 14.6045 1.98146 14.7301 2.11607 14.7862C2.23811 14.84 2.58343 15.2413 2.63983 15.3761C2.66843 15.4515 2.73074 15.5184 2.80597 15.5858C2.81466 15.5951 2.82525 15.606 2.83397 15.6152C3.13701 15.8792 3.44267 16.135 3.75613 16.3911C3.58815 16.3031 3.42292 16.1767 3.26828 16.1254C3.2479 16.1106 3.22758 16.0958 3.20733 16.0808C3.14684 16.0351 3.08768 15.9881 3.02503 15.9581C3.00739 15.9512 2.98977 15.9442 2.97215 15.9372C2.89816 15.8696 2.85615 15.8553 2.80505 15.8587C2.71231 15.8627 2.58047 15.7432 2.54487 15.6528C2.45525 15.428 2.21688 15.2152 2.05137 14.988C1.99906 14.9164 1.9327 14.8438 1.86927 14.7709C1.84857 14.7468 1.82797 14.7225 1.80754 14.6982C1.76725 14.6485 1.72747 14.5984 1.6882 14.548C1.68795 14.5469 1.68769 14.5458 1.68744 14.5447C1.68715 14.5451 1.68696 14.5456 1.68666 14.546C1.60624 14.362 1.47793 14.1897 1.34424 14.0152C1.35387 14.0261 1.36348 14.0368 1.37309 14.0476C1.36379 14.0364 1.35446 14.0254 1.34508 14.0146C1.24347 13.874 1.15371 13.7171 1.03786 13.6077C1.01327 13.567 0.987777 13.5239 0.964548 13.4822C0.963781 13.4815 0.963003 13.4807 0.962236 13.48C0.924553 13.3598 0.947794 13.3066 1.01732 13.3486C1.17885 13.4419 1.08754 13.294 1.01651 13.1532C0.988297 13.0974 0.956028 13.0406 0.93492 12.9811ZM6.1326 17.7904C6.13237 17.7902 6.13215 17.7901 6.13193 17.79C6.13215 17.7898 6.13265 17.7897 6.13288 17.7895C6.13278 17.7898 6.13269 17.7901 6.1326 17.7904ZM0.482039 12.0881C0.575462 12.2785 0.656019 12.4754 0.732395 12.6727C0.737045 12.6872 0.743453 12.7009 0.750973 12.7168C0.751282 12.7167 0.75159 12.7165 0.751898 12.7164C0.758731 12.7576 0.76979 12.8025 0.772281 12.8379C0.77593 12.8895 0.840323 13.0332 0.760244 12.9572C0.708552 12.9068 0.60622 12.8869 0.590553 12.6996C0.584943 12.6375 0.571849 12.5625 0.540965 12.4816C0.509445 12.3538 0.455984 12.2645 0.390661 12.2078C0.349041 12.1721 0.315273 12.1301 0.286688 12.0476C0.29589 11.7396 0.317446 11.7472 0.482039 12.0881ZM6.67214 17.7697C7.18984 17.87 7.70557 17.9421 8.21957 18.037C7.6937 18.0235 7.16571 17.9427 6.67214 17.7697ZM0.533944 5.35219C0.578731 5.42518 0.500322 5.54723 0.455919 5.6116C0.399777 5.69269 0.327793 5.77235 0.320455 5.64226C0.324866 5.62755 0.328446 5.61252 0.331145 5.59988C0.431645 5.2989 0.443274 5.29003 0.533944 5.35219ZM12.0095 17.3217C12.0142 17.3203 12.019 17.3187 12.0238 17.3171C12.019 17.3186 12.0143 17.3202 12.0095 17.3217ZM1.26586 13.2478C1.2574 13.2441 1.24697 13.2361 1.23511 13.2247C1.24747 13.2453 1.25955 13.2575 1.27164 13.2671C1.26925 13.2608 1.26729 13.2544 1.26586 13.2478ZM9.6578 0.0689281C9.51003 0.0842561 9.36177 0.10971 9.21101 0.0637269C9.17023 0.0511274 9.0976 0.0375721 9.13693 0.0116261C9.16166 -0.00604379 9.22263 2.48551e-05 9.27109 0.00645542C9.40155 0.0241644 9.53054 0.044654 9.66025 0.0680915C9.65943 0.0683702 9.65862 0.0686491 9.6578 0.0689281ZM1.56667 4.18292C1.58936 4.14528 1.62435 4.10664 1.63484 4.07716C1.60877 4.11078 1.58611 4.14627 1.56667 4.18292ZM13.7552 1.5459C13.5021 1.45677 13.2409 1.31346 12.9908 1.12285C13.2876 1.25363 13.5496 1.34393 13.7552 1.5459ZM1.54899 4.25363C1.54475 4.24138 1.54636 4.22791 1.55153 4.21357C1.54167 4.23433 1.53291 4.25528 1.52497 4.2765C1.53072 4.27029 1.53707 4.2646 1.54403 4.25971C1.54568 4.25773 1.54734 4.25561 1.54899 4.25363ZM10.7313 17.342C10.7328 17.3411 10.7343 17.3401 10.7358 17.3392C10.7365 17.3392 10.7372 17.3391 10.7379 17.3391C10.7377 17.3387 10.7374 17.3383 10.7372 17.3379C10.7366 17.338 10.7361 17.3382 10.7356 17.3383C10.7356 17.3386 10.7357 17.3389 10.7358 17.3392C10.7328 17.3394 10.7298 17.3397 10.7268 17.3399C10.7283 17.3406 10.7299 17.3413 10.7313 17.342ZM2.22099 14.2416C2.22123 14.2415 2.22148 14.2414 2.22172 14.2413C2.22116 14.2406 2.2206 14.2398 2.22004 14.2391C2.22036 14.2399 2.22067 14.2407 2.22099 14.2416ZM3.13388 2.51725C3.03488 2.63083 2.93281 2.73569 2.80994 2.81517C2.89976 2.69324 3.01173 2.59517 3.13388 2.51725ZM4.46385 16.0779C4.46477 16.0785 4.46568 16.079 4.46659 16.0796C4.46608 16.0789 4.46552 16.0781 4.46503 16.0773C4.46458 16.0775 4.46431 16.0778 4.46385 16.0779ZM17.3411 9.90187C17.3412 9.90157 17.3412 9.90127 17.3412 9.90097C17.3412 9.90139 17.3412 9.90191 17.3412 9.90233C17.3414 9.9037 17.3415 9.90516 17.3417 9.90653C17.3421 9.90802 17.3425 9.90956 17.343 9.91106C17.3425 9.90743 17.3417 9.90429 17.3412 9.90073C17.3411 9.90025 17.3409 9.89978 17.3408 9.8993C17.3409 9.90013 17.341 9.90103 17.3411 9.90187ZM4.29345 1.82624C4.35223 1.78648 4.41174 1.74771 4.47194 1.70987C4.41119 1.74702 4.35174 1.78587 4.29345 1.82624ZM3.64723 2.37874C3.65591 2.35772 3.66886 2.33649 3.68509 2.31504C3.58284 2.40553 3.48171 2.49731 3.37967 2.58843C3.4757 2.5292 3.55282 2.44513 3.64577 2.37946C3.64626 2.3792 3.64674 2.37899 3.64723 2.37874ZM13.2034 1.59965C13.1969 1.5959 13.1905 1.59216 13.184 1.58843C13.1888 1.59293 13.1936 1.59738 13.1985 1.60174C13.2001 1.60106 13.2017 1.60035 13.2034 1.59965ZM13.8579 2.23784C13.8582 2.2381 13.8584 2.23838 13.8587 2.23864C13.859 2.23888 13.8594 2.23921 13.8597 2.23944C13.8591 2.23891 13.8585 2.23836 13.8579 2.23784ZM15.5342 4.24044C15.5103 4.20309 15.4881 4.1672 15.4644 4.12966C15.4637 4.12926 15.463 4.12886 15.4624 4.12846C15.3739 3.93212 15.2224 3.75511 15.0613 3.55908C15.1557 3.61609 15.2571 3.77052 15.2942 3.69119C15.4487 3.84498 15.5254 4.02823 15.6325 4.20175C15.6759 4.27265 15.6661 4.30621 15.6364 4.31827C15.6066 4.33037 15.5712 4.2983 15.5342 4.24044ZM15.2587 13.8963C15.2598 13.8953 15.261 13.8944 15.2621 13.8934C15.2617 13.8941 15.2614 13.8949 15.2611 13.8957C15.2619 13.8943 15.2626 13.893 15.2634 13.8917C15.2657 13.887 15.268 13.8823 15.2702 13.8776C15.2664 13.8838 15.2625 13.89 15.2587 13.8963ZM2.08795 12.9794C2.08802 12.9795 2.0881 12.9796 2.08817 12.9797C2.08844 12.9796 2.0887 12.9794 2.08897 12.9792C2.08863 12.9793 2.08829 12.9793 2.08795 12.9794ZM9.13359 0.858332C9.12374 0.858135 9.11389 0.857956 9.10404 0.857795C9.1108 0.858897 9.1175 0.860022 9.12426 0.861034C9.1272 0.860058 9.13044 0.859242 9.13359 0.858332ZM9.22439 1.07104C9.22385 1.07111 9.22324 1.0711 9.22271 1.07117C9.22272 1.07086 9.22273 1.07055 9.22274 1.07024C9.22206 1.07023 9.22132 1.07028 9.22064 1.07027C9.22126 1.07088 9.22207 1.07147 9.22268 1.0721C9.22394 1.07219 9.22518 1.07233 9.22644 1.07241C9.22572 1.07195 9.22506 1.07149 9.22439 1.07104ZM16.1532 6.23518C16.1258 6.16224 16.1102 6.09543 16.1698 6.11823C16.1851 6.15877 16.2001 6.19946 16.2146 6.24006C16.2155 6.25098 16.2182 6.26138 16.2224 6.27336C16.2222 6.27264 16.2219 6.27193 16.2217 6.27121C16.205 6.31304 16.1804 6.3081 16.1532 6.23518ZM6.11253 15.8952C6.09095 15.8843 6.06821 15.8744 6.04491 15.8658C6.06743 15.8756 6.08993 15.8855 6.11253 15.8952ZM6.12337 15.8559C6.1255 15.8567 6.12767 15.8577 6.1298 15.8585C6.13182 15.8598 6.13392 15.8611 6.13595 15.8624C6.13679 15.862 6.13771 15.8617 6.13857 15.8613C6.13514 15.8598 6.1315 15.8584 6.12807 15.8568C6.12652 15.8565 6.12491 15.8562 6.12337 15.8559ZM3.76804 3.44071C3.76801 3.43851 3.76811 3.43615 3.76826 3.43365C3.76745 3.43442 3.76652 3.43521 3.76572 3.43598C3.76547 3.43669 3.76522 3.4374 3.76497 3.43812C3.76317 3.43985 3.76137 3.44159 3.75958 3.44333C3.7608 3.44303 3.76213 3.44253 3.76335 3.44227C3.7649 3.44181 3.7665 3.4412 3.76804 3.44071ZM13.8903 3.35045C13.8901 3.35027 13.8899 3.3501 13.8897 3.34992C13.8899 3.35021 13.8901 3.35051 13.8903 3.35079C13.8903 3.35068 13.8903 3.35057 13.8903 3.35045ZM16.0531 7.55865C16.025 7.51523 16.0239 7.46318 16.0216 7.41311C16.0086 7.31452 16.0255 7.25143 16.056 7.20117C16.0633 7.22421 16.0699 7.24538 16.0769 7.26854C16.0766 7.26861 16.0763 7.26868 16.076 7.26874C16.0983 7.37114 16.1548 7.45403 16.1617 7.58229C16.1238 7.56412 16.0826 7.51286 16.0531 7.55865ZM15.9138 7.26355C16.0113 7.34714 15.9788 7.49068 15.9999 7.60806C15.9677 7.55562 15.9614 7.48512 15.9445 7.42055C15.9341 7.36916 15.9244 7.31508 15.9138 7.26355ZM15.9135 7.26203C15.9136 7.26253 15.9137 7.26305 15.9138 7.26355C15.9134 7.26322 15.913 7.26256 15.9126 7.26223C15.9129 7.26216 15.9132 7.26209 15.9135 7.26203ZM14.7061 4.81931C14.7051 4.81795 14.7041 4.8166 14.703 4.81523C14.7032 4.81539 14.7033 4.81554 14.7034 4.8157C14.704 4.81716 14.7046 4.81869 14.7053 4.82016C14.7055 4.81988 14.7058 4.81958 14.7061 4.81931ZM6.03587 15.0049C5.97144 14.9706 5.90408 14.9427 5.8382 14.9126C5.86058 14.9244 5.8831 14.9361 5.90574 14.9475C5.95049 14.9679 5.99561 14.988 6.04061 15.0073C6.03904 15.0065 6.03744 15.0057 6.03587 15.0049ZM7.0462 15.3865C7.04633 15.3863 7.04656 15.3862 7.04671 15.3861C7.04324 15.385 7.03976 15.384 7.0363 15.383C7.03959 15.3842 7.0429 15.3853 7.0462 15.3865ZM15.4318 8.31489C15.4084 8.23025 15.3498 8.09533 15.3601 8.07244C15.413 7.95848 15.4733 7.85189 15.543 7.77509C15.5861 7.72597 15.6009 7.84491 15.6188 7.90703C15.619 7.9071 15.6192 7.90726 15.6194 7.90732C15.6479 7.94826 15.699 7.94553 15.6986 8.04763C15.6984 8.04886 15.6979 8.05005 15.6977 8.05125C15.6978 8.0514 15.698 8.05141 15.6982 8.05156C15.7012 8.08636 15.704 8.12155 15.7066 8.15794C15.6758 8.23439 15.6257 8.2498 15.5793 8.272C15.5369 8.29208 15.4984 8.31893 15.477 8.39827C15.4649 8.38819 15.4526 8.37643 15.4405 8.36649C15.4373 8.34868 15.4368 8.33069 15.4318 8.31489ZM15.7074 8.15622C15.7072 8.15752 15.707 8.15881 15.7068 8.16011C15.7068 8.15939 15.7067 8.15866 15.7066 8.15794C15.7068 8.15736 15.7071 8.15681 15.7074 8.15622ZM15.0115 6.07967C15.0542 6.15424 15.1043 6.18925 15.155 6.22221C15.1059 6.0631 15.0698 6.0323 15.0115 6.07967ZM13.0706 3.62539C13.1268 3.71614 13.225 3.76786 13.3075 3.83193C13.3941 3.89967 13.4795 3.9685 13.5531 4.04774C13.5752 4.06617 13.5971 4.08495 13.6192 4.10343C13.6147 4.08293 13.6147 4.06518 13.6236 4.05261C13.6226 4.05123 13.6215 4.04988 13.6206 4.04849C13.6175 4.04094 13.6139 4.03334 13.6105 4.02592C13.5691 4.00515 13.5279 3.97065 13.4901 3.93666C13.3754 3.83193 13.2682 3.72387 13.173 3.60988C13.1701 3.62639 13.1569 3.63521 13.1355 3.63782C13.17 3.66785 13.2039 3.69825 13.2368 3.72785C13.1799 3.69914 13.1265 3.65587 13.0706 3.62539ZM6.4188 2.8086C6.41914 2.809 6.4194 2.80943 6.41971 2.80983C6.42041 2.80953 6.42112 2.80923 6.42182 2.80893C6.42082 2.80882 6.41981 2.80872 6.4188 2.8086ZM13.1101 3.92078C13.117 3.93468 13.1292 3.94713 13.1433 3.95572C13.131 3.94309 13.1191 3.9295 13.1075 3.91469C13.1083 3.91672 13.1092 3.91875 13.1101 3.92078ZM14.9869 7.9116C15.0118 7.60279 14.8993 7.28628 14.8509 6.97923C14.8512 6.98034 14.8516 6.98145 14.8519 6.98256C14.8763 6.97664 14.8988 6.96466 14.928 6.99209C14.9288 6.99157 14.9294 6.99089 14.9301 6.99039C14.9314 6.99128 14.9326 6.99202 14.9338 6.99277C14.9577 6.98239 14.9916 6.99901 15.003 6.9551C15.0123 6.91756 15.0282 6.8828 15.0604 6.92807C15.104 6.98827 15.063 7.00818 15.0541 7.0417C15.0507 7.05362 15.0434 7.06293 15.0385 7.07339C15.0384 7.07284 15.0382 7.0723 15.0381 7.07175C15.0376 7.07141 15.0371 7.0711 15.0366 7.07076C15.0237 7.15451 14.9751 7.20785 15.0049 7.32609C15.0078 7.3377 15.0097 7.34964 15.0112 7.35984C15.0115 7.36093 15.0117 7.36201 15.012 7.36309C15.0247 7.47587 15.0896 7.56963 15.1284 7.59895C15.2573 7.69571 15.1945 7.81076 15.1821 7.90985C15.1733 7.98821 15.1381 8.04818 15.1507 8.14384C15.2032 8.30354 15.2043 8.50726 15.2932 8.62691C15.3126 8.62292 15.3315 8.62495 15.3453 8.66915C15.3585 8.78588 15.3434 8.83809 15.2674 8.83258C15.0637 8.82054 15.0731 8.80385 15.0505 8.44497C15.0375 8.26657 15.0295 8.085 14.9869 7.9116ZM14.2358 5.3176C14.1828 5.27957 14.1646 5.22457 14.1302 5.15021C14.2068 5.19344 14.2423 5.24196 14.2611 5.30063C14.2692 5.32478 14.2537 5.33079 14.2358 5.3176ZM14.1301 5.14988C14.1301 5.14999 14.1301 5.1501 14.1302 5.15021C14.1296 5.14985 14.1289 5.14925 14.1282 5.14889C14.1288 5.14922 14.1294 5.14955 14.1301 5.14988ZM3.09195 7.14027C3.07694 7.10702 3.07201 7.05991 3.07812 6.99887C3.04902 7.10769 3.04699 7.13576 3.09195 7.14027ZM3.6421 6.07196C3.61765 6.12084 3.58093 6.18211 3.54677 6.16537C3.49362 6.13926 3.55283 6.04456 3.55416 5.99767C3.59016 5.92313 3.62265 5.89857 3.65017 5.9195C3.6869 5.94753 3.67404 6.00836 3.6421 6.07196Z" fill="var(--stroke-0, #8A2E1E)"/>
</g>
</svg>
