<svg preserveAspectRatio="none" width="100%" height="100%" overflow="visible" style="display: block;" viewBox="0 0 29.6999 29.4342" fill="none" xmlns="http://www.w3.org/2000/svg">
<g id="Ellipse 34">
<circle cx="14.716" cy="14.9351" r="13.5" fill="var(--fill-0, #8A2E1E)"/>
<path d="M5.6165 23.1985C7.67345 25.5809 10.9775 27.1837 14.166 27.3737C14.5555 27.3997 14.5293 27.466 14.64 27.4789C14.6662 27.4817 14.6915 27.4835 14.716 27.4846C14.9766 27.4955 15.1437 27.423 15.3433 27.4222C16.4133 27.4132 17.4131 27.2634 18.433 26.9933C19.4787 26.6912 19.0582 27.0358 19.4386 26.9542C20.1778 26.765 19.4791 26.757 19.7282 26.5909C20.5205 26.2795 21.2962 25.8932 22.0235 25.4322C21.8634 25.57 21.6998 25.7037 21.5297 25.8342C21.8535 25.6436 22.3246 25.3689 21.8329 25.7767C21.9612 25.7159 22.0829 25.6605 22.2127 25.5925C22.1946 25.4966 22.7311 25.0937 22.7424 25.01C22.7568 24.9308 22.4672 25.1681 22.4653 25.162C22.4563 25.1107 23.6913 24.1961 23.763 24.104C23.9872 23.9121 23.8823 24.1723 24.0553 23.9887C24.3486 23.6658 23.9851 23.7321 24.6015 23.4928C24.6827 23.2529 24.7343 23.2713 24.9274 23.0452C24.9525 23.0153 24.8902 23.0046 24.8999 22.9903C25.1456 22.6149 25.0133 22.9469 25.019 22.9489C25.1204 22.9762 25.3803 22.5636 25.4449 22.4846C26.2716 21.4983 26.795 20.6771 27.2934 19.3949C27.4064 19.119 27.6295 18.2391 27.7011 17.9623C27.7786 17.6888 27.8043 17.8505 27.8648 17.7103C27.7689 17.4454 27.803 17.2265 27.9711 16.7099C27.8923 16.4994 27.9765 16.5346 27.9934 16.1535C28.0078 15.8343 27.9144 15.2839 28.0175 14.9351C28.003 15.3364 28.0556 15.2939 28.0617 15.7471C28.0865 15.9011 27.8764 17.4549 27.9862 17.3584C28.0555 17.3083 28.0853 16.7798 28.0958 16.7617C28.1706 16.6524 28.2078 16.9532 28.1383 17.2094C28.1369 17.143 28.137 17.0631 28.1354 16.992C27.9662 17.5581 28.3218 17.2141 27.9886 17.604C27.9469 17.6515 27.9192 17.6241 27.8679 17.7057C27.8777 17.7268 27.9339 17.6254 27.9205 17.72C27.9069 17.817 27.8021 17.9819 27.8495 18.021C27.9195 18.08 27.9761 17.6779 27.9852 17.6489C27.9848 17.6485 27.9844 17.648 27.984 17.6476C28.0786 17.3926 27.9717 17.9446 27.9705 17.9723C27.98 18.1535 28.0457 18.0465 28.0238 18.3121C28.0118 18.4645 27.8961 18.8319 27.8614 18.9687C27.8282 19.1055 27.9286 18.9074 27.9091 19.0006C27.8896 19.094 27.826 19.1986 27.8004 19.3075C27.7895 19.3542 27.8314 19.3658 27.8255 19.3883C27.7615 19.6294 27.7291 19.4455 27.6596 19.6587C27.6158 19.797 27.516 20.2856 27.6623 19.9791C27.6122 20.1349 27.5591 20.2845 27.5021 20.4374C27.5542 20.3478 27.6024 20.2535 27.6536 20.166C27.5209 20.4418 27.5338 20.5999 27.4605 20.7789C27.3863 20.9579 27.2299 21.0737 27.1754 21.2833C27.0593 21.734 27.5177 20.705 27.5775 20.5789C27.6052 20.5313 27.5875 20.7529 27.5758 20.7835C27.5257 20.9191 27.4078 21.0508 27.3618 21.1516C27.1968 21.5116 27.1438 21.7592 26.9684 22.0976C26.3788 23.2524 25.3987 24.5593 24.5054 25.4205C24.1751 25.7443 23.9085 25.8597 23.7527 25.994C23.3845 26.3051 23.3811 26.3997 23.0434 26.6557C22.5401 27.0386 21.7474 27.4485 21.2758 27.6762C20.9509 27.8379 20.6843 28.0452 20.5983 28.087C19.415 28.6812 17.8462 29.1199 16.7584 29.2751C16.2464 29.3534 15.9931 29.2819 15.8885 29.2953C15.4345 29.3449 15.5592 29.4126 15.1885 29.4246C14.9875 29.4291 14.9486 29.354 14.9218 29.352C14.8318 29.3449 14.7693 29.3542 14.716 29.3691C14.6293 29.3931 14.567 29.4321 14.4522 29.4336C13.3868 29.4465 12.3671 29.2648 11.3438 29.024C11.2695 29.0064 11.2869 28.9636 11.2384 28.9547C11.0301 28.9163 11.1076 29.0094 10.8899 28.9595C10.438 28.8542 9.98512 28.7018 9.52694 28.5234C9.48149 28.5056 9.4824 28.4425 9.37881 28.4029C9.27519 28.363 9.17519 28.3853 9.01417 28.3158C8.59309 28.1333 8.21444 27.8805 7.791 27.6516C7.72082 27.6137 7.59752 27.6312 7.49252 27.5718C7.16198 27.3879 6.72373 27.0359 6.46018 26.8517C5.58594 26.2487 4.8059 25.6407 4.1054 24.9169C3.9409 24.7464 3.85431 24.5433 3.77448 24.4509C3.59486 24.2411 3.67964 24.4431 3.49627 24.2302C2.00629 22.4816 0.957902 20.3498 0.429363 18.0778C0.216152 17.1887 -0.0009408 16.0804 1.19209e-05 15.1886C-0.000373721 15.0837 0.00861847 15.0028 0.0213056 14.9351C0.0538237 14.7636 0.10855 14.6773 0.112416 14.4913C0.125833 14.0315 -0.00655115 13.9343 0.0193765 13.4419C0.0429771 13.0443 0.23757 12.6178 0.300455 12.2155C0.364641 11.8146 0.270329 11.5976 0.367508 11.1328C0.448503 10.7487 0.663566 10.244 0.796253 9.84199C1.99064 6.13743 4.74938 2.93298 8.38907 1.323C9.66191 0.751793 11.163 0.256863 12.6078 0.19777C12.7427 0.193134 12.5605 0.371375 12.9804 0.282459C13.2073 0.236904 13.5127 0.0650594 14.0511 0.0273308C14.2704 0.0124921 14.4922 0.00387776 14.716 0.00152791C17.7375 -0.0488632 20.8086 1.15239 23.2807 2.82787C27.2693 5.24801 31.1294 10.4638 29.1773 14.8232C29.0852 15.0256 28.6224 14.9136 28.4903 14.8012C28.5827 14.6936 28.6916 14.5919 28.793 14.4748C28.2112 14.3519 28.3699 14.3777 28.3837 13.8554C28.3885 13.5358 28.1666 13.8092 28.0825 13.6495C27.9824 13.4354 27.555 12.4982 27.9523 12.6238C27.8774 12.5731 27.8059 12.5275 27.7324 12.48C27.5445 11.7792 27.2698 11.1275 26.9369 10.5105C26.8789 10.4042 26.7686 10.4391 26.7084 10.3312C26.5451 10.0432 26.5143 9.77362 26.3614 9.47009C26.2776 9.30613 26.1482 9.34057 26.049 9.12367C25.9482 8.90853 26.1066 8.82515 25.7796 8.63389C25.6924 8.926 25.3651 8.03222 25.155 7.76586C25.1262 7.72466 24.7396 7.51578 24.6315 7.33754C24.5241 7.15731 24.4213 6.8249 24.1527 6.62443C24.0269 6.5308 23.8533 6.56461 23.7373 6.45111C23.6557 6.37152 23.6577 6.17757 23.5584 6.069C23.4598 5.95948 23.1565 5.8207 23.1132 5.78377C22.9559 5.64772 23.1878 5.73409 23.0859 5.63376C22.5937 5.14989 21.9776 4.61561 21.3668 4.30239C21.2922 4.26373 21.3322 4.41818 21.3207 4.41523C20.7743 4.22937 21.1023 4.26946 21.0206 4.10562C20.9465 3.93713 19.9451 3.47648 19.8598 3.65375C19.9268 3.42691 19.6326 3.48913 19.5734 3.47137C19.3408 3.40013 19.4597 3.2322 19.2158 3.20155C19.1268 3.19081 19.2354 3.3792 19.1503 3.34135C18.9411 3.24865 18.8201 2.97221 18.5285 2.85472C18.4582 2.82658 18.4072 2.91094 18.2816 2.86907C18.1577 2.82422 17.6467 2.56775 17.845 2.82921C17.5601 2.58818 17.4692 2.65674 17.0874 2.57343C16.9909 2.5529 16.8907 2.37756 16.6708 2.38973C16.5969 2.39417 16.5777 2.53963 16.4717 2.5248C16.2301 2.49215 16.0145 2.31248 15.7002 2.27978C15.3806 2.24669 15.0512 2.25929 14.716 2.27767C14.4309 2.29332 14.1514 2.31294 13.8672 2.31239C13.7 2.31273 13.7304 2.16547 13.4859 2.1833C13.4502 2.18592 13.1688 2.33788 13.0019 2.34831C12.902 2.35088 12.3662 2.3473 12.2603 2.36323C12.0853 2.38521 12.0822 2.52626 11.9829 2.51955C11.6955 2.50347 11.8638 2.259 11.6037 2.60267C11.46 2.48071 11.2721 2.54616 11.1601 2.38396C11.1044 2.61171 10.9065 2.4637 10.7112 2.59755C10.5157 2.7318 10.4809 3.1608 10.2859 2.78184C10.2032 2.8639 9.82313 3.10476 9.75854 3.14037C9.56342 3.24145 9.62536 3.08941 9.47885 3.16994C9.4532 3.18431 9.51299 3.24344 9.33954 3.3132C9.22247 3.35133 8.41877 3.75778 8.3699 3.7818C7.77386 3.98227 8.62202 3.5461 8.70595 3.41595C8.73738 3.42487 8.76855 3.43408 8.80114 3.4423C9.06198 3.3531 8.84363 3.26282 8.71221 3.28357C8.58075 3.30399 8.41161 3.48433 8.29225 3.48489C8.2325 3.48509 8.15573 3.28414 8.30923 3.22903C8.12683 3.25473 8.2998 3.08072 8.21043 3.05972C8.10921 3.03147 7.42221 3.41849 7.48429 3.52262C7.6094 3.44778 7.76216 3.34975 7.89158 3.27953C8.15339 3.36384 8.01989 4.22962 7.45292 4.28289C7.03376 4.33348 7.44413 3.84339 6.81893 4.50266C6.93359 4.42652 7.03825 4.37355 7.1446 4.30855C7.24271 4.42292 6.98251 4.40539 6.92742 4.50624C6.90176 4.55375 7.21024 4.45941 7.01865 4.64362C6.70713 4.609 6.69658 4.88608 6.4077 5.12925C6.46414 5.03257 6.52225 4.93626 6.58154 4.84028C5.9759 5.13272 7.12822 4.12927 6.08114 4.87544C6.19444 4.76955 6.31451 4.6728 6.42975 4.56757C6.32138 4.55399 6.27318 4.29818 6.18906 4.30341C5.9668 4.31837 5.80727 4.55293 5.63423 4.69258C5.55834 4.75412 5.56241 4.66787 5.55607 4.67303C5.45173 4.75798 5.53429 4.80495 5.45205 4.88845C5.3479 4.99183 4.98221 5.22805 4.94138 5.28614C4.8343 5.43153 5.16836 5.3436 5.16545 5.36619C5.14614 5.50567 4.9365 5.62103 5.0258 5.68979C5.34096 5.22201 6.59625 4.26776 5.66462 5.34869C6.07488 5.21969 6.15162 5.48118 5.77762 5.86498C5.47188 6.18994 5.60565 5.91634 5.36204 6.00769C5.32886 6.01706 4.8786 6.43114 4.91915 6.50719C4.80125 6.37184 4.54989 6.42391 4.49946 6.2015C4.49161 6.16843 4.67053 5.98038 4.50021 5.95109C4.41464 5.93593 4.20637 5.93144 4.14888 5.85406C4.16272 5.93865 4.18185 6.02999 4.19872 6.11609C3.96132 6.433 3.87515 6.43427 3.64588 6.53483C3.69259 6.55687 3.98129 6.5271 3.74751 6.72965C3.73521 6.73996 3.66586 6.70433 3.54415 6.80763C3.30037 7.01775 3.24301 7.0639 3.20154 6.73316C2.93011 7.35022 2.64561 7.33721 2.36753 7.96997C2.68139 7.99114 2.72743 7.75061 3.01888 7.20018C3.09015 7.2152 3.15295 7.24199 3.22506 7.25738C2.65603 7.85746 2.88372 7.53306 2.76561 7.99713C2.73504 8.10974 2.42113 8.6207 2.68268 8.53387C2.74265 8.51318 2.91647 8.18977 2.95777 8.26188C2.96381 8.27509 2.78126 8.67966 2.74891 8.70647C2.33196 9.04739 2.5648 8.17047 2.06298 9.45847C2.05017 9.4944 2.11927 9.53869 2.10099 9.61106C2.06713 9.74669 1.9799 9.71278 1.95377 9.83632C1.92784 9.96051 1.98375 10.1641 1.81244 10.2994C1.49884 10.5552 1.65475 9.73776 1.9077 9.44694C1.66365 9.17255 0.822017 11.7007 0.872639 11.8804C0.826901 12.6023 1.01055 11.4239 1.10882 11.3875C1.14659 11.3704 1.53242 11.4869 1.35705 11.1334C1.30519 11.0266 1.10902 11.3557 1.12542 11.131C1.14317 10.9053 1.23499 11.0235 1.24719 11.0103C1.28917 10.9655 1.31355 10.7292 1.33944 10.7048C1.72891 10.3431 2.08133 10.5025 1.35185 10.912C1.40097 11.2028 1.77323 10.6841 1.76339 11.0215C1.75318 11.4259 1.50854 11.6577 1.48841 11.705C1.26025 12.2642 1.66713 11.6531 1.43579 12.3435C1.31442 12.7325 1.37218 11.7112 1.22167 12.6287C1.11764 13.4015 1.27501 12.9969 1.47301 13.0825C1.51994 13.1027 1.52231 13.5197 1.5796 12.9594C1.52786 12.9357 1.46102 12.8953 1.41674 12.8514C1.47744 12.7167 1.78915 12.5377 1.81276 12.4698C1.92701 12.1329 1.78602 12.1166 1.9979 11.9513C1.78325 12.0548 1.94736 11.843 1.93221 11.7456C1.87976 11.3823 1.70413 11.7922 2.09691 11.109C1.98396 11.1786 1.87597 11.2419 1.76563 11.3131C1.78792 11.2223 1.81109 11.1317 1.83522 11.0415C2.05867 10.9627 2.18932 10.4956 2.23663 10.9734C2.45266 10.4902 2.49578 10.2839 2.396 10.119C2.37713 10.0878 2.39579 10.009 2.42901 9.92095C2.38267 9.92116 2.25161 9.89287 2.24226 9.87286C2.16087 9.69306 2.47113 9.59719 2.52935 9.70015C2.55969 9.64142 2.58573 9.59595 2.59531 9.58008C2.65612 9.47987 2.64139 9.72226 2.7064 9.64816C2.72669 9.6234 2.84661 9.32079 2.88158 9.33055C3.10358 9.39413 2.71367 9.7896 3.31322 8.90603C3.14341 8.78574 2.95577 9.24996 2.8206 9.03992C2.67485 8.80915 3.08521 8.70143 2.86356 8.51144C2.91612 8.51335 2.95556 8.52311 3.01224 8.53136C3.11943 8.08262 3.33434 8.20018 3.44757 8.11397C3.66207 7.94305 4.32486 6.95644 3.54953 7.72671C3.61794 7.58315 3.70017 7.44411 3.77548 7.30453C4.15441 7.52661 3.94639 7.49378 4.4515 6.94612C4.56477 6.82662 4.74679 6.90872 4.67164 6.64072C4.82979 6.79916 5.03766 6.3509 5.09045 6.3366C5.40691 6.24782 4.91052 7.1807 4.52335 7.05109C4.53574 7.28578 4.3741 7.16162 4.27586 7.33893C4.13665 7.59603 4.14659 7.64745 3.83085 7.85199C3.81131 8.23788 4.66403 6.83033 4.31533 7.79912C3.81236 8.58419 2.17454 13.0541 2.45796 14.9351C2.46054 15.119 2.46663 15.2729 2.47266 15.3909C2.65148 17.7374 3.06054 18.9434 3.98696 20.8318C4.05996 21.0302 4.9308 22.3416 4.59136 22.1838C4.53946 22.1652 4.08864 21.6275 4.29019 22.2168C4.29869 22.0624 4.54803 22.3166 4.57365 22.3335C5.15425 22.7367 4.94427 22.4055 5.6165 23.1985ZM6.9782 26.6634C5.7293 25.749 6.58931 26.5008 6.15124 26.5509C6.31612 26.6709 6.48305 26.7871 6.65305 26.9002C6.61845 26.8557 6.58472 26.8113 6.55083 26.7664C6.55064 26.7663 6.55044 26.7662 6.55026 26.766C6.69426 26.7335 6.83733 26.6996 6.9782 26.6634ZM27.8744 19.7761C27.8789 19.8422 27.8834 19.9078 27.8848 19.9787C27.8054 20.1686 27.7228 20.3546 27.6351 20.5407C27.6279 20.5109 27.6201 20.4818 27.6128 20.4521C27.7066 20.2295 27.7943 20.0056 27.8744 19.7761ZM1.94586 9.22853C2.18324 9.02094 1.95829 8.94448 2.22367 8.64614C2.04773 8.60996 1.87246 8.58204 1.6962 8.55268C1.5897 8.83762 1.62135 8.92563 1.45409 9.20969C1.51972 9.19651 1.58601 9.18315 1.65164 9.17189C1.66216 9.11764 1.67292 9.05956 1.68463 9.00746C1.85822 8.99714 1.67514 9.47378 1.94578 9.22959C1.9458 9.22924 1.94583 9.22888 1.94586 9.22853ZM3.35916 6.62903C3.46678 6.51308 3.91303 6.08287 3.91171 5.97315C3.89254 5.5804 2.93721 7.07906 3.55863 5.90877C3.52753 5.89132 3.50447 5.86492 3.47739 5.84298C3.318 6.02352 3.16444 6.20914 3.0151 6.40064C3.13399 6.47148 3.2389 6.55878 3.35916 6.62903ZM2.99193 22.7692C2.86101 22.5707 2.19064 21.6307 2.26516 22.0196C2.28638 22.138 2.7203 22.4808 2.82195 22.6452C2.88766 22.7534 2.72111 22.6929 2.89381 22.8793C2.92549 22.8446 2.96371 22.8107 2.9913 22.7689C2.99151 22.769 2.99172 22.7691 2.99193 22.7692ZM3.73934 22.7878C3.58588 22.6053 3.43091 22.4184 3.28467 22.2265C3.27874 22.4396 3.53832 22.684 3.41465 22.7952C3.36597 22.7477 3.31804 22.7004 3.26988 22.652C3.27118 22.5893 3.27347 22.5274 3.27623 22.4656C3.08653 22.3405 3.11469 22.4722 2.92932 22.1264C2.83963 22.4573 2.74865 22.5842 3.34831 22.9941C3.1625 22.9666 2.87095 23.327 3.35751 23.4463C3.44691 23.4679 3.29978 23.2077 3.3061 23.1992C3.37337 23.0949 3.52956 23.182 3.58921 23.0783C3.61616 23.0319 3.51207 22.8897 3.55343 22.8283C3.57398 22.7994 3.74839 22.878 3.73934 22.7878ZM3.55815 23.5258C3.45485 23.5072 3.48637 23.8186 3.66158 23.9753C3.93263 24.2167 3.68893 23.6857 3.55815 23.5258ZM27.8748 19.7748C27.8747 19.7753 27.8746 19.7757 27.8744 19.7761C27.8744 19.7759 27.8744 19.7756 27.8744 19.7754C27.8745 19.7752 27.8747 19.775 27.8748 19.7748ZM2.82496 7.24062C2.86426 7.04556 3.02796 6.8232 2.92334 6.77534C2.99302 6.71276 3.06349 6.65006 3.13417 6.58927C3.1059 6.56992 3.07707 6.55123 3.04907 6.5321C2.87282 6.74376 2.70278 6.96033 2.53831 7.18258C2.63333 7.20217 2.7271 7.22471 2.82496 7.24062ZM4.71808 4.99448C4.96525 4.76262 4.65338 4.85127 4.65217 4.74408C4.65121 4.6353 4.91545 4.4662 4.81417 4.41149C4.66362 4.54961 4.50978 4.6972 4.36379 4.84394C4.48682 4.88775 4.59953 4.94598 4.71856 4.994C4.7184 4.99416 4.71824 4.99432 4.71808 4.99448ZM12.8402 28.9076C12.6155 28.853 12.7233 28.7848 12.2584 28.8125C12.2588 28.8126 12.2591 28.8126 12.2594 28.8127C12.6727 28.9556 13.2254 29.0829 13.7072 29.0439C13.4229 28.9355 13.1955 28.9894 12.8402 28.9076ZM1.32981 9.84683C1.37949 9.96976 1.61151 9.57262 1.5735 9.44846C1.50933 9.2429 1.2518 9.65518 1.32981 9.84683ZM21.4788 26.6148C21.6696 26.2872 21.0358 26.4347 20.4945 26.7927C20.4476 26.8256 20.8506 26.6913 20.7558 26.7792C20.7463 26.7885 20.5367 26.8875 20.4958 26.9353C20.4553 26.9836 20.5363 27.0123 20.4616 27.0759C20.3304 27.189 19.9512 27.2648 19.8588 27.3653C19.8464 27.3795 20.0945 27.3635 20.1095 27.3597C20.3522 27.3082 20.5174 27.1109 20.55 27.0945C20.7209 27.0078 20.7314 27.094 20.7839 27.0898C20.8828 27.0814 21.01 26.9738 21.0211 26.9709C21.3145 26.8981 20.7111 27.192 20.6399 27.2551C20.4526 27.4327 20.6955 27.4089 20.1695 27.694C20.1202 27.7207 19.4913 27.9823 20.3166 27.7311C18.8281 28.5729 21.1553 27.5061 21.3544 27.2913C21.4564 27.2129 21.2508 27.2363 21.3014 27.1683C21.417 27.0141 21.6651 26.8531 21.5851 26.7686C21.4176 26.5921 21.1634 26.9161 20.909 27.0005C20.9096 26.9415 20.8957 26.8915 20.917 26.8229C20.8801 26.923 21.4665 26.6425 21.4791 26.6152C21.479 26.6151 21.4789 26.6149 21.4788 26.6148ZM17.7104 28.3915C17.3284 28.3965 17.3866 28.5479 17.0318 28.5187C16.7556 28.7134 17.3468 28.6008 17.4162 28.5917C17.7359 28.562 17.765 28.7152 18.0751 28.5892C17.9432 28.5279 17.8328 28.4586 17.7104 28.3915ZM20.7968 27.3626C20.6045 27.5438 21.0087 27.3421 21.0311 27.3452C21.2835 27.3996 20.0463 27.9669 20.7968 27.3626ZM2.5773 21.3058C2.52457 21.1907 2.47563 21.3069 2.39829 21.2202C2.319 21.1335 2.22631 20.7506 2.17646 20.7851C2.12191 20.8181 2.2981 21.5316 1.95 20.8991C1.92951 20.9357 1.90286 20.9391 1.87999 20.963C1.96529 21.143 2.05531 21.3243 2.14833 21.5007C2.1835 21.3586 2.22454 21.213 2.26353 21.0786C2.38255 21.142 2.32146 21.2415 2.32422 21.2469C2.32431 21.2468 2.3244 21.2468 2.3245 21.2467C2.42613 21.4264 2.69812 21.563 2.5773 21.3058ZM9.78237 27.991C9.89458 27.8031 9.52636 27.9215 9.39912 27.8984C9.27283 27.8767 9.14598 27.7352 9.16861 27.8464C9.33067 27.9867 9.77057 28.0132 9.78247 27.9907C9.78243 27.9908 9.7824 27.9909 9.78237 27.991ZM15.7012 28.6916C15.3906 28.7611 15.4418 28.8121 15.0554 28.7662C15.0715 28.8144 15.0877 28.8636 15.1041 28.9109C15.413 28.8993 15.3832 28.7614 15.7417 28.7921C15.8005 28.7964 15.6842 28.9191 15.9447 28.8599C15.863 28.8078 15.7806 28.7484 15.7012 28.6916ZM14.1381 28.9033C14.5052 28.9054 14.793 28.515 14.1299 28.6767C14.032 28.6995 13.8644 28.8983 14.1381 28.9033ZM4.46494 24.0043C4.07547 23.537 4.47021 24.1079 4.53044 24.2713C3.54251 23.2365 4.64001 24.3838 4.58513 24.64C4.75717 24.7226 5.09487 24.845 4.86777 24.5602C4.77427 24.4406 4.76311 24.5278 4.75693 24.5212C4.5761 24.3078 4.68155 24.2557 4.46494 24.0043ZM18.3385 28.2244C18.3169 28.2333 18.369 28.2863 18.3009 28.3183C18.2324 28.3507 18.0596 28.3483 18.0531 28.3909C18.0463 28.435 18.3812 28.3792 18.4727 28.3214C18.564 28.2642 18.5328 28.1443 18.3385 28.2244ZM16.0152 28.4887C15.7179 28.5651 16.235 28.7646 16.3049 28.7525C16.8881 28.6661 16.0011 28.5743 16.0152 28.4887ZM5.78516 24.6519C5.17335 24.2687 5.35974 24.8117 5.60942 25.2323C5.67548 25.2496 5.74267 25.2673 5.80776 25.2832C5.48041 25.2418 4.97865 25.0629 5.91789 25.6456C5.48858 25.2314 5.90336 25.513 5.91251 25.5067C6.1753 25.29 5.42699 24.8418 5.78562 24.6523C5.78547 24.6522 5.78531 24.652 5.78516 24.6519ZM19.309 27.9886C19.6166 27.8851 20.3656 27.512 19.9608 27.5516C19.7493 27.702 19.5312 27.8481 19.309 27.9886ZM1.55506 14.2817C1.66644 14.035 1.68231 13.8083 1.71006 13.5018C1.5375 13.7631 1.54016 13.5814 1.51562 13.4822C1.47869 13.3329 1.44521 13.6813 1.43658 13.681C1.30258 13.6627 1.29819 13.4351 1.25989 13.9467C1.22189 13.8166 1.18502 13.6873 1.15066 13.5556C1.10757 13.9468 1.01569 14.0345 0.895568 14.2832C1.17115 14.0512 0.987382 14.3659 1.11327 14.6602C1.17543 14.8045 1.49629 14.4029 1.55511 14.2808C1.55509 14.2811 1.55508 14.2814 1.55506 14.2817ZM5.29645 24.1081C5.21611 24.0852 5.12918 24.0761 5.04572 24.0574C4.98949 24.0042 4.934 23.95 4.87863 23.8957C4.89972 23.8636 4.9232 23.8315 4.94231 23.7992C4.88288 23.7167 4.87064 23.7807 4.84694 23.7614C4.84709 23.7613 4.84724 23.7612 4.84739 23.761C4.51021 23.4825 4.40137 23.3353 4.28656 22.9973C4.19518 23.068 4.1038 23.1388 4.01241 23.2095C4.06876 23.2643 4.12579 23.3193 4.18267 23.3731C4.25677 23.3665 4.33074 23.3595 4.40428 23.352C4.43371 23.4422 4.4641 23.5317 4.49595 23.6217C4.55909 23.6619 4.63271 23.7115 4.68947 23.7435C4.68543 24.224 4.31358 23.4678 4.21061 23.5439C4.1362 23.5975 4.68603 24.2224 4.81508 24.2638C4.83295 24.27 4.88338 23.9796 5.00011 24.2813C5.01758 24.3269 4.66534 24.7007 5.19057 24.6389C5.26435 24.6292 5.37033 24.2915 5.29645 24.1081ZM3.67169 21.729C3.6061 22.2937 3.09198 20.6767 3.20018 21.4372C2.96399 21.3343 2.98172 21.3643 2.9649 21.6169C2.96326 21.6394 2.85375 21.5331 2.85513 21.5464C2.88508 21.7579 3.04413 21.9433 2.92633 22.0162C2.96078 22.0588 2.99316 22.099 3.0281 22.1412C3.02115 21.8811 3.28314 22.1408 3.44909 22.1939C3.52416 22.2187 3.46061 22.0913 3.52515 22.1114C3.54843 22.119 3.62943 22.3013 3.67199 22.2826C3.76673 22.2392 3.81354 22.0606 3.76994 21.8471C3.77003 21.8471 3.77011 21.847 3.7702 21.847C3.73741 21.8072 3.70434 21.7691 3.67169 21.729ZM10.9282 27.6621C10.954 27.842 11.2456 27.9797 10.6415 27.8822C10.6605 27.9224 10.6805 27.9625 10.6998 28.0026C10.7991 28.0298 10.8957 28.0551 10.9973 28.0809C11.4252 27.6996 11.837 28.3544 11.5671 27.9386C11.5375 27.8934 11.2971 27.8755 11.5491 27.8345C11.5488 27.8343 11.5485 27.8341 11.5482 27.834C11.2243 27.7839 11.1654 27.8277 10.9282 27.6621ZM8.83821 26.9666C7.98273 26.9536 9.72179 27.5992 9.48 27.3741C9.45632 27.3609 8.70603 27.1005 8.83821 26.9666ZM14.7473 28.0437C14.7365 28.0435 14.7261 28.0435 14.716 28.0436C14.4102 28.0461 14.386 28.2128 14.4178 28.2767C14.4498 28.3406 14.6742 28.2843 14.716 28.2893C14.7174 28.2895 14.7185 28.2897 14.7195 28.29C14.7703 28.3071 14.7406 28.3212 14.716 28.3369C14.6954 28.35 14.6783 28.3644 14.716 28.3828C14.7218 28.3856 14.7288 28.3885 14.7374 28.3915C14.7807 28.4098 15.3825 28.4569 15.4093 28.4446C15.5599 28.3944 15.3295 28.2603 15.3726 28.2413C15.5101 28.1806 15.7057 28.2432 15.7405 28.1631C15.815 27.9932 15.4756 28.1892 15.4142 28.1939C15.2346 28.21 15.2465 28.1158 15.112 28.1008C14.9776 28.0853 14.8904 28.1183 14.7712 28.1117C14.7317 28.1094 14.7644 28.0444 14.7473 28.0437ZM13.6101 28.3755C13.9746 28.2692 13.1285 28.0454 13.0263 28.0568C12.7125 28.1139 13.4304 28.4329 13.6101 28.3755ZM3.88249 22.9514C4.16823 23.1446 3.79312 22.481 3.64067 22.3246C3.61973 22.3846 3.78037 22.8849 3.88249 22.9514ZM5.92963 24.7846C5.6869 24.6105 5.80863 25.0641 6.00673 25.2246C6.2251 25.1941 6.09752 25.1305 5.979 25.0184C5.86128 24.9059 6.11984 24.918 5.92963 24.7846ZM18.378 27.7057C18.3198 27.7288 17.3341 28.0811 17.9279 27.9888C17.9738 27.9864 18.6765 27.7709 18.7206 27.7298C18.8139 27.6562 18.5385 27.6675 18.378 27.7057ZM7.17287 25.4813C6.9668 25.5046 6.8437 25.4094 6.86141 25.6283C6.86158 25.6284 6.86175 25.6285 6.86192 25.6287C6.51111 25.4296 6.70939 25.1485 6.63922 25.1026C6.39486 24.9363 6.46016 25.3017 6.26455 25.2441C6.65263 25.4628 6.45343 25.511 6.7165 25.7232C6.77571 25.7711 7.07732 25.8689 7.14726 25.8438C7.21684 25.8195 7.19525 25.585 7.17287 25.4813ZM19.7491 27.2039C19.4113 27.2917 19.1729 27.5804 19.6419 27.4342C19.8706 27.3594 19.956 27.1477 19.7491 27.2039ZM4.47639 6.83335C4.38437 6.82732 4.29138 6.82371 4.19703 6.82327C4.26162 6.71022 4.3277 6.59757 4.39544 6.48578C4.34902 6.57998 4.30341 6.67435 4.25858 6.76953C4.42976 6.59555 4.60545 6.6003 4.47678 6.83286C4.47665 6.83303 4.47652 6.83319 4.47639 6.83335ZM11.4737 2.38794C11.5941 2.43874 11.7395 2.15326 11.7101 2.14046C11.4795 2.04703 11.3026 2.3189 11.4737 2.38794ZM4.07061 22.2333C3.87649 21.893 3.76718 22.2867 3.89164 22.5022C3.85485 22.3461 4.18388 22.4257 4.07061 22.2333ZM8.70595 3.41595C8.65916 3.40268 8.61197 3.38979 8.56107 3.37905C8.69366 3.36145 8.72712 3.37987 8.70595 3.41595ZM18.1622 27.5404C18.0985 27.5399 17.6627 27.6292 17.6083 27.6631C17.4959 27.7385 17.8697 27.7969 18.0605 27.7032C18.0821 27.6933 18.2257 27.543 18.1613 27.5406C18.1616 27.5405 18.1619 27.5405 18.1622 27.5404ZM4.92612 6.51442C4.92299 6.51263 4.92068 6.51016 4.91915 6.50719C4.92135 6.50968 4.92401 6.51181 4.92612 6.51442ZM19.8546 3.67304C19.8553 3.66598 19.8569 3.65943 19.8598 3.65375C19.858 3.65981 19.8569 3.66656 19.8546 3.67304ZM15.0449 27.7565C14.8943 27.5145 14.5614 27.6408 14.8276 27.7645C14.8427 27.7711 15.0096 27.7568 15.0449 27.7565Z" fill="var(--stroke-0, #8A2E1E)"/>
</g>
</svg>
